SplineFontDB: 3.0
FontName: Distinguish-Thin
FullName: Distinguish Thin
FamilyName: Distinguish
Weight: Thin
Copyright: Copyright 2015 Google Inc. All Rights Reserved.
Version: 2.000;GOOG;noto-source:20170915:90ef993387c0; ttfautohint (v1.7)
ItalicAngle: 0
UnderlinePosition: -125
UnderlineWidth: 50
Ascent: 800
Descent: 200
InvalidEm: 0
sfntRevision: 0x00020000
LayerCount: 2
Layer: 0 1 "Back" 1
Layer: 1 1 "Fore" 0
XUID: [1021 269 1684064080 15726623]
StyleMap: 0x0000
FSType: 0
OS2Version: 4
OS2_WeightWidthSlopeOnly: 1
OS2_UseTypoMetrics: 0
CreationTime: 1458096639
ModificationTime: 1515966941
PfmFamily: 17
TTFWeight: 100
TTFWidth: 5
LineGap: 0
VLineGap: 0
Panose: 2 11 2 2 4 5 4 2 2 4
OS2TypoAscent: 1069
OS2TypoAOffset: 0
OS2TypoDescent: -293
OS2TypoDOffset: 0
OS2TypoLinegap: 0
OS2WinAscent: 1069
OS2WinAOffset: 0
OS2WinDescent: 293
OS2WinDOffset: 0
HheadAscent: 1069
HheadAOffset: 0
HheadDescent: -293
HheadDOffset: 0
OS2SubXSize: 650
OS2SubYSize: 600
OS2SubXOff: 0
OS2SubYOff: 75
OS2SupXSize: 650
OS2SupYSize: 600
OS2SupXOff: 0
OS2SupYOff: 350
OS2StrikeYSize: 50
OS2StrikeYPos: 322
OS2CapHeight: 714
OS2XHeight: 536
OS2Vendor: 'GOOG'
OS2CodePages: 00000000.00000000
OS2UnicodeRanges: e00002ff.4000001f.08000029.00100000
Lookup: 1 0 0 "'aalt' Access All Alternates lookup 0" { "'aalt' Access All Alternates lookup 0 subtable"  } ['aalt' ('DFLT' <'dflt' > 'cyrl' <'dflt' > 'grek' <'dflt' > 'latn' <'CAT ' 'MAH ' 'MOL ' 'NAV ' 'ROM ' 'dflt' > ) ]
Lookup: 3 0 0 "'aalt' Access All Alternates lookup 1" { "'aalt' Access All Alternates lookup 1 subtable"  } ['aalt' ('DFLT' <'dflt' > 'cyrl' <'dflt' > 'grek' <'dflt' > 'latn' <'CAT ' 'MAH ' 'MOL ' 'NAV ' 'ROM ' 'dflt' > ) ]
Lookup: 4 0 0 "'ccmp' Glyph Composition/Decomposition lookup 2" { "'ccmp' Glyph Composition/Decomposition lookup 2 subtable"  } ['ccmp' ('DFLT' <'dflt' > 'cyrl' <'dflt' > 'grek' <'dflt' > 'latn' <'CAT ' 'MAH ' 'MOL ' 'NAV ' 'ROM ' 'dflt' > ) ]

StartChar: .notdef
Encoding: 65536 -1 0
Width: 600
Flags: W
LayerCount: 2
Fore
SplineSet
94 0 m 1,0,-1
 94 714 l 1,1,-1
 505 714 l 1,2,-1
 505 0 l 1,3,-1
 94 0 l 1,0,-1
145 51 m 1,4,-1
 454 51 l 1,5,-1
 454 663 l 1,6,-1
 145 663 l 1,7,-1
 145 51 l 1,4,-1
EndSplineSet
EndChar

StartChar: exclam
Encoding: 33 33 4
Width: 223
Flags: W
LayerCount: 2
Fore
SplineSet
125 174 m 1,0,-1
 100 174 l 1,1,-1
 98 714 l 1,2,-1
 127 714 l 1,3,-1
 125 174 l 1,0,-1
85 23 m 0,4,5
 85 35 85 35 90 44.5 c 128,-1,6
 95 54 95 54 110 54 c 0,7,8
 128 54 128 54 132.5 44.5 c 128,-1,9
 137 35 137 35 137 23 c 0,10,11
 137 10 137 10 132.5 1 c 128,-1,12
 128 -8 128 -8 110 -8 c 0,13,14
 95 -8 95 -8 90 1 c 128,-1,15
 85 10 85 10 85 23 c 0,4,5
EndSplineSet
Substitution2: "'smcp' Lowercase to Small Capitals lookup 34 subtable" exclam.sc
Substitution2: "'c2sc' Capitals to Small Capitals lookup 33 subtable" exclam.sc
EndChar

StartChar: quotedbl
Encoding: 34 34 5
Width: 320
Flags: W
LayerCount: 2
Fore
SplineSet
101 714 m 1,0,-1
 97 456 l 1,1,-1
 77 456 l 1,2,-1
 73 714 l 1,3,-1
 101 714 l 1,0,-1
247 714 m 1,4,-1
 243 456 l 1,5,-1
 223 456 l 1,6,-1
 219 714 l 1,7,-1
 247 714 l 1,4,-1
EndSplineSet
EndChar

StartChar: numbersign
Encoding: 35 35 6
Width: 646
Flags: W
LayerCount: 2
Fore
SplineSet
467 462 m 1,0,-1
 426 251 l 1,1,-1
 579 251 l 1,2,-1
 579 227 l 1,3,-1
 422 227 l 1,4,-1
 378 0 l 1,5,-1
 353 0 l 1,6,-1
 397 227 l 1,7,-1
 198 227 l 1,8,-1
 154 0 l 1,9,-1
 129 0 l 1,10,-1
 173 227 l 1,11,-1
 28 227 l 1,12,-1
 28 251 l 1,13,-1
 177 251 l 1,14,-1
 218 462 l 1,15,-1
 67 462 l 1,16,-1
 67 486 l 1,17,-1
 222 486 l 1,18,-1
 266 714 l 1,19,-1
 291 714 l 1,20,-1
 247 486 l 1,21,-1
 446 486 l 1,22,-1
 490 714 l 1,23,-1
 515 714 l 1,24,-1
 471 486 l 1,25,-1
 618 486 l 1,26,-1
 618 462 l 1,27,-1
 467 462 l 1,0,-1
202 251 m 1,28,-1
 401 251 l 1,29,-1
 442 462 l 1,30,-1
 243 462 l 1,31,-1
 202 251 l 1,28,-1
EndSplineSet
EndChar

StartChar: dollar
Encoding: 36 36 7
Width: 570
Flags: W
LayerCount: 2
Fore
SplineSet
253 -58 m 1,0,-1
 253 10 l 1,1,2
 190 11 190 11 144 19.5 c 128,-1,3
 98 28 98 28 67 39 c 1,4,-1
 67 68 l 1,5,6
 102 54 102 54 150 45 c 128,-1,7
 198 36 198 36 253 35 c 1,8,-1
 253 353 l 1,9,10
 202 372 202 372 159 394 c 128,-1,11
 116 416 116 416 90 449 c 128,-1,12
 64 482 64 482 64 536 c 0,13,14
 64 588 64 588 89 624.5 c 128,-1,15
 114 661 114 661 156.5 681 c 128,-1,16
 199 701 199 701 253 704 c 1,17,-1
 253 759 l 1,18,-1
 277 759 l 1,19,-1
 277 704 l 1,20,21
 317 703 317 703 357.5 694.5 c 128,-1,22
 398 686 398 686 439 667 c 1,23,-1
 428 644 l 1,24,25
 386 663 386 663 347.5 670.5 c 128,-1,26
 309 678 309 678 277 679 c 1,27,-1
 277 370 l 1,28,29
 333 350 333 350 376.5 327.5 c 128,-1,30
 420 305 420 305 444.5 272 c 128,-1,31
 469 239 469 239 469 186 c 0,32,33
 469 101 469 101 414.5 57.5 c 128,-1,34
 360 14 360 14 277 10 c 1,35,-1
 277 -58 l 1,36,-1
 253 -58 l 1,0,-1
253 379 m 1,37,-1
 253 679 l 1,38,39
 208 677 208 677 171 661 c 128,-1,40
 134 645 134 645 112.5 614.5 c 128,-1,41
 91 584 91 584 91 538 c 256,42,43
 91 492 91 492 114 462.5 c 128,-1,44
 137 433 137 433 173.5 414 c 128,-1,45
 210 395 210 395 253 379 c 1,37,-1
277 35 m 1,46,47
 348 39 348 39 395 75.5 c 128,-1,48
 442 112 442 112 442 187 c 0,49,50
 442 229 442 229 422 256.5 c 128,-1,51
 402 284 402 284 365 304 c 128,-1,52
 328 324 328 324 277 343 c 1,53,-1
 277 35 l 1,46,47
EndSplineSet
EndChar

StartChar: percent
Encoding: 37 37 8
Width: 793
Flags: W
LayerCount: 2
Fore
SplineSet
197 724 m 0,0,1
 266 724 266 724 299.5 667 c 128,-1,2
 333 610 333 610 333 501 c 0,3,4
 333 388 333 388 296.5 332 c 128,-1,5
 260 276 260 276 195 276 c 0,6,7
 129 276 129 276 94 333 c 128,-1,8
 59 390 59 390 59 501 c 256,9,10
 59 612 59 612 96 668 c 128,-1,11
 133 724 133 724 197 724 c 0,0,1
609 714 m 1,12,-1
 213 0 l 1,13,-1
 185 0 l 1,14,-1
 581 714 l 1,15,-1
 609 714 l 1,12,-1
197 699 m 0,16,17
 144 699 144 699 115 650 c 128,-1,18
 86 601 86 601 86 501 c 0,19,20
 86 402 86 402 114 351.5 c 128,-1,21
 142 301 142 301 195 301 c 0,22,23
 250 301 250 301 278 352.5 c 128,-1,24
 306 404 306 404 306 501 c 0,25,26
 306 597 306 597 280 648 c 128,-1,27
 254 699 254 699 197 699 c 0,16,17
598 438 m 0,28,29
 667 438 667 438 700.5 381 c 128,-1,30
 734 324 734 324 734 215 c 0,31,32
 734 102 734 102 697 46 c 128,-1,33
 660 -10 660 -10 596 -10 c 0,34,35
 530 -10 530 -10 495 47 c 128,-1,36
 460 104 460 104 460 215 c 256,37,38
 460 326 460 326 497 382 c 128,-1,39
 534 438 534 438 598 438 c 0,28,29
598 413 m 0,40,41
 546 413 546 413 516.5 364 c 128,-1,42
 487 315 487 315 487 215 c 0,43,44
 487 116 487 116 515.5 65.5 c 128,-1,45
 544 15 544 15 596 15 c 0,46,47
 652 15 652 15 679.5 66.5 c 128,-1,48
 707 118 707 118 707 215 c 0,49,50
 707 311 707 311 681 362 c 128,-1,51
 655 413 655 413 598 413 c 0,40,41
EndSplineSet
EndChar

StartChar: ampersand
Encoding: 38 38 9
Width: 702
Flags: W
LayerCount: 2
Fore
SplineSet
304 725 m 0,0,1
 372 725 372 725 416 686.5 c 128,-1,2
 460 648 460 648 460 581 c 0,3,4
 460 512 460 512 413.5 469 c 128,-1,5
 367 426 367 426 289 388 c 1,6,-1
 532 141 l 1,7,8
 562 177 562 177 586 224.5 c 128,-1,9
 610 272 610 272 622 328 c 1,10,-1
 649 328 l 1,11,12
 635 266 635 266 609 216 c 128,-1,13
 583 166 583 166 549 122 c 1,14,-1
 667 0 l 1,15,-1
 632 0 l 1,16,-1
 533 105 l 1,17,18
 486 55 486 55 428 22.5 c 128,-1,19
 370 -10 370 -10 281 -10 c 0,20,21
 185 -10 185 -10 124 39 c 128,-1,22
 63 88 63 88 63 179 c 0,23,24
 63 235 63 235 84.5 272.5 c 128,-1,25
 106 310 106 310 147 338.5 c 128,-1,26
 188 367 188 367 246 395 c 1,27,28
 211 430 211 430 187 458 c 128,-1,29
 163 486 163 486 151 514 c 128,-1,30
 139 542 139 542 139 576 c 0,31,32
 139 644 139 644 184.5 684.5 c 128,-1,33
 230 725 230 725 304 725 c 0,0,1
304 700 m 0,34,35
 240 700 240 700 203 666.5 c 128,-1,36
 166 633 166 633 166 576 c 0,37,38
 166 530 166 530 193 493 c 128,-1,39
 220 456 220 456 269 406 c 1,40,41
 345 439 345 439 389 479.5 c 128,-1,42
 433 520 433 520 433 581 c 0,43,44
 433 636 433 636 397.5 668 c 128,-1,45
 362 700 362 700 304 700 c 0,34,35
264 377 m 1,46,47
 208 350 208 350 169 324.5 c 128,-1,48
 130 299 130 299 110 264.5 c 128,-1,49
 90 230 90 230 90 179 c 0,50,51
 90 100 90 100 143 57.5 c 128,-1,52
 196 15 196 15 281 15 c 0,53,54
 364 15 364 15 417 43.5 c 128,-1,55
 470 72 470 72 516 122 c 1,56,-1
 264 377 l 1,46,47
EndSplineSet
Substitution2: "'smcp' Lowercase to Small Capitals lookup 34 subtable" ampersand.sc
Substitution2: "'c2sc' Capitals to Small Capitals lookup 33 subtable" ampersand.sc
EndChar

StartChar: quotesingle
Encoding: 39 39 10
Width: 172
Flags: W
LayerCount: 2
Fore
SplineSet
101 714 m 1,0,-1
 97 456 l 1,1,-1
 77 456 l 1,2,-1
 73 714 l 1,3,-1
 101 714 l 1,0,-1
EndSplineSet
EndChar

StartChar: parenleft
Encoding: 40 40 11
Width: 255
Flags: W
LayerCount: 2
Fore
SplineSet
42 274 m 0,0,1
 42 407 42 407 80.5 520 c 128,-1,2
 119 633 119 633 187 714 c 1,3,-1
 220 714 l 1,4,5
 143 626 143 626 106 513.5 c 128,-1,6
 69 401 69 401 69 275 c 0,7,8
 69 150 69 150 106.5 40.5 c 128,-1,9
 144 -69 144 -69 220 -158 c 1,10,-1
 187 -158 l 1,11,12
 119 -74 119 -74 80.5 34.5 c 128,-1,13
 42 143 42 143 42 274 c 0,0,1
EndSplineSet
Substitution2: "'smcp' Lowercase to Small Capitals lookup 34 subtable" parenleft.sc
Substitution2: "'c2sc' Capitals to Small Capitals lookup 33 subtable" parenleft.sc
Substitution2: "'sups' Superscript lookup 19 subtable" uni207D
Substitution2: "'subs' Subscript lookup 18 subtable" uni208D
EndChar

StartChar: parenright
Encoding: 41 41 12
Width: 255
Flags: W
LayerCount: 2
Fore
SplineSet
214 282 m 0,0,1
 214 149 214 149 175.5 36 c 128,-1,2
 137 -77 137 -77 69 -158 c 1,3,-1
 36 -158 l 1,4,5
 113 -70 113 -70 150 42.5 c 128,-1,6
 187 155 187 155 187 281 c 0,7,8
 187 406 187 406 149.5 515.5 c 128,-1,9
 112 625 112 625 36 714 c 1,10,-1
 69 714 l 1,11,12
 137 630 137 630 175.5 521.5 c 128,-1,13
 214 413 214 413 214 282 c 0,0,1
EndSplineSet
Substitution2: "'smcp' Lowercase to Small Capitals lookup 34 subtable" parenright.sc
Substitution2: "'c2sc' Capitals to Small Capitals lookup 33 subtable" parenright.sc
Substitution2: "'sups' Superscript lookup 19 subtable" uni207E
Substitution2: "'subs' Subscript lookup 18 subtable" uni208E
EndChar

StartChar: asterisk
Encoding: 42 42 13
Width: 551
Flags: W
LayerCount: 2
Fore
SplineSet
287 758 m 1,0,-1
 281 552 l 1,1,-1
 475 621 l 1,2,-1
 483 594 l 1,3,-1
 287 537 l 1,4,-1
 412 374 l 1,5,-1
 389 357 l 1,6,-1
 273 527 l 1,7,-1
 158 358 l 1,8,-1
 135 374 l 1,9,-1
 260 537 l 1,10,-1
 62 594 l 1,11,-1
 71 621 l 1,12,-1
 265 552 l 1,13,-1
 259 758 l 1,14,-1
 287 758 l 1,0,-1
EndSplineSet
EndChar

StartChar: plus
Encoding: 43 43 14
Width: 570
Flags: W
LayerCount: 2
Fore
SplineSet
297 365 m 1,0,-1
 515 365 l 1,1,-1
 515 341 l 1,2,-1
 297 341 l 1,3,-1
 297 123 l 1,4,-1
 273 123 l 1,5,-1
 273 341 l 1,6,-1
 55 341 l 1,7,-1
 55 365 l 1,8,-1
 273 365 l 1,9,-1
 273 583 l 1,10,-1
 297 583 l 1,11,-1
 297 365 l 1,0,-1
EndSplineSet
Substitution2: "'sups' Superscript lookup 19 subtable" uni207A
Substitution2: "'subs' Subscript lookup 18 subtable" uni208A
EndChar

StartChar: comma
Encoding: 44 44 15
Width: 183
Flags: W
LayerCount: 2
Fore
SplineSet
122 116 m 1,0,-1
 125 104 l 1,1,2
 114 48 114 48 97.5 -14.5 c 128,-1,3
 81 -77 81 -77 60 -129 c 1,4,-1
 38 -129 l 1,5,6
 60 -56 60 -56 73 1.5 c 128,-1,7
 86 59 86 59 94 116 c 1,8,-1
 122 116 l 1,0,-1
EndSplineSet
EndChar

StartChar: hyphen
Encoding: 45 45 16
Width: 322
Flags: W
LayerCount: 2
Fore
SplineSet
40 259 m 1,0,-1
 40 284 l 1,1,-1
 282 284 l 1,2,-1
 282 259 l 1,3,-1
 40 259 l 1,0,-1
EndSplineSet
EndChar

StartChar: period
Encoding: 46 46 17
Width: 220
Flags: W
LayerCount: 2
Fore
SplineSet
85 23 m 0,0,1
 85 35 85 35 90 44.5 c 128,-1,2
 95 54 95 54 110 54 c 0,3,4
 128 54 128 54 132.5 44.5 c 128,-1,5
 137 35 137 35 137 23 c 0,6,7
 137 10 137 10 132.5 1 c 128,-1,8
 128 -8 128 -8 110 -8 c 0,9,10
 95 -8 95 -8 90 1 c 128,-1,11
 85 10 85 10 85 23 c 0,0,1
EndSplineSet
EndChar

StartChar: slash
Encoding: 47 47 18
Width: 322
Flags: W
LayerCount: 2
Fore
SplineSet
309 714 m 1,0,-1
 41 0 l 1,1,-1
 13 0 l 1,2,-1
 281 714 l 1,3,-1
 309 714 l 1,0,-1
EndSplineSet
Substitution2: "'frac' Diagonal Fractions lookup 22 subtable" fraction
EndChar

StartChar: zero
Encoding: 48 48 19
Width: 570
Flags: W
LayerCount: 2
Fore
SplineSet
261 360 m 4,0,1
 261 372 261 372 266 381.5 c 132,-1,2
 271 391 271 391 286 391 c 4,3,4
 304 391 304 391 308.5 381.5 c 132,-1,5
 313 372 313 372 313 360 c 4,6,7
 313 347 313 347 308.5 338 c 132,-1,8
 304 329 304 329 286 329 c 4,9,10
 271 329 271 329 266 338 c 132,-1,11
 261 347 261 347 261 360 c 4,0,1
507 360 m 0,12,13
 507 -10 507 -10 285 -10 c 0,14,15
 179 -10 179 -10 120.5 81 c 128,-1,16
 62 172 62 172 62 360 c 0,17,18
 62 464 62 464 83.5 546.5 c 128,-1,19
 105 629 105 629 154.5 677 c 128,-1,20
 204 725 204 725 286 725 c 0,21,22
 371 725 371 725 419 678.5 c 128,-1,23
 467 632 467 632 487 549.5 c 128,-1,24
 507 467 507 467 507 360 c 0,12,13
89 360 m 0,25,26
 89 184 89 184 138.5 99.5 c 128,-1,27
 188 15 188 15 285 15 c 0,28,29
 388 15 388 15 434 100 c 128,-1,30
 480 185 480 185 480 360 c 0,31,32
 480 462 480 462 463.5 538.5 c 128,-1,33
 447 615 447 615 405 657.5 c 128,-1,34
 363 700 363 700 286 700 c 0,35,36
 211 700 211 700 168 656 c 128,-1,37
 125 612 125 612 107 535 c 128,-1,38
 89 458 89 458 89 360 c 0,25,26
EndSplineSet
Substitution2: "'zero' Slashed Zero lookup 37 subtable" zero.slash
Substitution2: "'case' Case-Sensitive Forms lookup 35 subtable" zero.lf
Substitution2: "'onum' Oldstyle Figures lookup 32 subtable" zero.tosf
Substitution2: "'pnum' Proportional Numbers lookup 30 subtable" zero.lf
Substitution2: "'frac' Diagonal Fractions lookup 23 subtable" zero.numr
Substitution2: "'dnom' Denominators lookup 21 subtable" zero.dnom
Substitution2: "'numr' Numerators lookup 20 subtable" zero.numr
Substitution2: "'sups' Superscript lookup 19 subtable" uni2070
Substitution2: "'subs' Subscript lookup 18 subtable" uni2080
EndChar

StartChar: one
Encoding: 49 49 20
Width: 570
Flags: W
LayerCount: 2
Fore
SplineSet
320 0 m 1,0,-1
 294 0 l 1,1,-1
 294 563 l 2,2,3
 294 606 294 606 294 635.5 c 128,-1,4
 294 665 294 665 295 685 c 1,5,6
 283 674 283 674 271.5 665 c 128,-1,7
 260 656 260 656 241 642 c 2,8,-1
 118 551 l 1,9,-1
 102 572 l 1,10,-1
 297 714 l 1,11,-1
 320 714 l 1,12,-1
 320 0 l 1,0,-1
EndSplineSet
Substitution2: "'case' Case-Sensitive Forms lookup 35 subtable" one.lf
Substitution2: "'onum' Oldstyle Figures lookup 32 subtable" one.tosf
Substitution2: "'pnum' Proportional Numbers lookup 30 subtable" one.lf
Substitution2: "'frac' Diagonal Fractions lookup 23 subtable" one.numr
Substitution2: "'dnom' Denominators lookup 21 subtable" one.dnom
Substitution2: "'numr' Numerators lookup 20 subtable" one.numr
Substitution2: "'sups' Superscript lookup 19 subtable" uni00B9
Substitution2: "'subs' Subscript lookup 18 subtable" uni2081
EndChar

StartChar: two
Encoding: 50 50 21
Width: 570
Flags: W
LayerCount: 2
Fore
SplineSet
491 0 m 1,0,-1
 59 0 l 1,1,-1
 59 23 l 1,2,-1
 283 260 l 2,3,4
 332 311 332 311 364.5 353.5 c 128,-1,5
 397 396 397 396 414 440 c 128,-1,6
 431 484 431 484 431 539 c 0,7,8
 431 614 431 614 387.5 656.5 c 128,-1,9
 344 699 344 699 268 699 c 0,10,11
 225 699 225 699 180 683 c 128,-1,12
 135 667 135 667 95 635 c 1,13,-1
 80 655 l 1,14,15
 126 692 126 692 175.5 708 c 128,-1,16
 225 724 225 724 268 724 c 0,17,18
 325 724 325 724 367.5 700.5 c 128,-1,19
 410 677 410 677 434 635.5 c 128,-1,20
 458 594 458 594 458 539 c 0,21,22
 458 479 458 479 439.5 432 c 128,-1,23
 421 385 421 385 386.5 341 c 128,-1,24
 352 297 352 297 303 246 c 2,25,-1
 95 26 l 1,26,-1
 95 25 l 1,27,-1
 491 25 l 1,28,-1
 491 0 l 1,0,-1
EndSplineSet
Substitution2: "'case' Case-Sensitive Forms lookup 35 subtable" two.lf
Substitution2: "'onum' Oldstyle Figures lookup 32 subtable" two.tosf
Substitution2: "'pnum' Proportional Numbers lookup 30 subtable" two.lf
Substitution2: "'frac' Diagonal Fractions lookup 23 subtable" two.numr
Substitution2: "'dnom' Denominators lookup 21 subtable" two.dnom
Substitution2: "'numr' Numerators lookup 20 subtable" two.numr
Substitution2: "'sups' Superscript lookup 19 subtable" uni00B2
Substitution2: "'subs' Subscript lookup 18 subtable" uni2082
EndChar

StartChar: three
Encoding: 51 51 22
Width: 570
Flags: W
LayerCount: 2
Fore
SplineSet
470 551 m 0,0,1
 470 480 470 480 426.5 433 c 128,-1,2
 383 386 383 386 318 375 c 1,3,-1
 318 373 l 1,4,5
 401 362 401 362 446.5 318 c 128,-1,6
 492 274 492 274 492 194 c 0,7,8
 492 105 492 105 429.5 47.5 c 128,-1,9
 367 -10 367 -10 247 -10 c 0,10,11
 188 -10 188 -10 136.5 2 c 128,-1,12
 85 14 85 14 47 32 c 1,13,-1
 47 60 l 1,14,15
 84 41 84 41 138 28 c 128,-1,16
 192 15 192 15 247 15 c 0,17,18
 355 15 355 15 410 63.5 c 128,-1,19
 465 112 465 112 465 194 c 0,20,21
 465 254 465 254 436 290 c 128,-1,22
 407 326 407 326 356.5 342.5 c 128,-1,23
 306 359 306 359 239 359 c 2,24,-1
 156 359 l 1,25,-1
 156 384 l 1,26,-1
 239 384 l 2,27,28
 292 384 292 384 338.5 401.5 c 128,-1,29
 385 419 385 419 414 456 c 128,-1,30
 443 493 443 493 443 551 c 0,31,32
 443 626 443 626 396.5 662.5 c 128,-1,33
 350 699 350 699 273 699 c 0,34,35
 217 699 217 699 167.5 681.5 c 128,-1,36
 118 664 118 664 69 629 c 1,37,-1
 55 650 l 1,38,39
 99 684 99 684 153 704 c 128,-1,40
 207 724 207 724 273 724 c 0,41,42
 361 724 361 724 415.5 679 c 128,-1,43
 470 634 470 634 470 551 c 0,0,1
EndSplineSet
Substitution2: "'case' Case-Sensitive Forms lookup 35 subtable" three.lf
Substitution2: "'onum' Oldstyle Figures lookup 32 subtable" three.tosf
Substitution2: "'pnum' Proportional Numbers lookup 30 subtable" three.lf
Substitution2: "'frac' Diagonal Fractions lookup 23 subtable" three.numr
Substitution2: "'dnom' Denominators lookup 21 subtable" three.dnom
Substitution2: "'numr' Numerators lookup 20 subtable" three.numr
Substitution2: "'sups' Superscript lookup 19 subtable" uni00B3
Substitution2: "'subs' Subscript lookup 18 subtable" uni2083
EndChar

StartChar: four
Encoding: 52 52 23
Width: 570
Flags: W
LayerCount: 2
Fore
SplineSet
560 194 m 1,0,-1
 426 194 l 1,1,-1
 426 0 l 1,2,-1
 400 0 l 1,3,-1
 400 194 l 1,4,-1
 25 194 l 1,5,-1
 25 212 l 1,6,-1
 398 718 l 1,7,-1
 426 718 l 1,8,-1
 426 219 l 1,9,-1
 560 219 l 1,10,-1
 560 194 l 1,0,-1
400 219 m 1,11,-1
 400 524 l 2,12,13
 400 567 400 567 400 593.5 c 128,-1,14
 400 620 400 620 400 640 c 128,-1,15
 400 660 400 660 401 686 c 1,16,-1
 399 686 l 1,17,18
 382 659 382 659 370 641 c 128,-1,19
 358 623 358 623 335 592 c 2,20,-1
 60 219 l 1,21,-1
 400 219 l 1,11,-1
EndSplineSet
Substitution2: "'case' Case-Sensitive Forms lookup 35 subtable" four.lf
Substitution2: "'onum' Oldstyle Figures lookup 32 subtable" four.tosf
Substitution2: "'pnum' Proportional Numbers lookup 30 subtable" four.lf
Substitution2: "'frac' Diagonal Fractions lookup 23 subtable" four.numr
Substitution2: "'dnom' Denominators lookup 21 subtable" four.dnom
Substitution2: "'numr' Numerators lookup 20 subtable" four.numr
Substitution2: "'sups' Superscript lookup 19 subtable" uni2074
Substitution2: "'subs' Subscript lookup 18 subtable" uni2084
EndChar

StartChar: five
Encoding: 53 53 24
Width: 570
Flags: W
LayerCount: 2
Fore
SplineSet
274 426 m 0,0,1
 381 426 381 426 443 372 c 128,-1,2
 505 318 505 318 505 217 c 0,3,4
 505 146 505 146 473.5 95.5 c 128,-1,5
 442 45 442 45 385 17.5 c 128,-1,6
 328 -10 328 -10 253 -10 c 0,7,8
 196 -10 196 -10 151 2 c 128,-1,9
 106 14 106 14 74 32 c 1,10,-1
 74 62 l 1,11,12
 108 42 108 42 153 28.5 c 128,-1,13
 198 15 198 15 253 15 c 0,14,15
 355 15 355 15 416.5 68.5 c 128,-1,16
 478 122 478 122 478 217 c 0,17,18
 478 302 478 302 426 351.5 c 128,-1,19
 374 401 374 401 274 401 c 0,20,21
 228 401 228 401 191 394.5 c 128,-1,22
 154 388 154 388 117 378 c 1,23,-1
 98 393 l 1,24,-1
 128 714 l 1,25,-1
 462 714 l 1,26,-1
 462 689 l 1,27,-1
 151 689 l 1,28,-1
 126 406 l 1,29,30
 151 412 151 412 187 419 c 128,-1,31
 223 426 223 426 274 426 c 0,0,1
EndSplineSet
Substitution2: "'case' Case-Sensitive Forms lookup 35 subtable" five.lf
Substitution2: "'onum' Oldstyle Figures lookup 32 subtable" five.tosf
Substitution2: "'pnum' Proportional Numbers lookup 30 subtable" five.lf
Substitution2: "'frac' Diagonal Fractions lookup 23 subtable" five.numr
Substitution2: "'dnom' Denominators lookup 21 subtable" five.dnom
Substitution2: "'numr' Numerators lookup 20 subtable" five.numr
Substitution2: "'sups' Superscript lookup 19 subtable" uni2075
Substitution2: "'subs' Subscript lookup 18 subtable" uni2085
EndChar

StartChar: six
Encoding: 54 54 25
Width: 570
Flags: W
LayerCount: 2
Fore
SplineSet
68 303 m 0,0,1
 68 456 68 456 107 549 c 128,-1,2
 146 642 146 642 214 684 c 128,-1,3
 282 726 282 726 367 726 c 0,4,5
 397 726 397 726 421 722.5 c 128,-1,6
 445 719 445 719 465 713 c 1,7,-1
 465 686 l 1,8,9
 447 693 447 693 422 697 c 128,-1,10
 397 701 397 701 367 701 c 0,11,12
 288 701 288 701 227.5 662.5 c 128,-1,13
 167 624 167 624 131.5 541 c 128,-1,14
 96 458 96 458 93 322 c 1,15,-1
 95 322 l 1,16,17
 108 350 108 350 135 377 c 128,-1,18
 162 404 162 404 204.5 421.5 c 128,-1,19
 247 439 247 439 304 439 c 0,20,21
 403 439 403 439 458 380.5 c 128,-1,22
 513 322 513 322 513 225 c 0,23,24
 513 156 513 156 488 103 c 128,-1,25
 463 50 463 50 415 20 c 128,-1,26
 367 -10 367 -10 299 -10 c 0,27,28
 236 -10 236 -10 191.5 17 c 128,-1,29
 147 44 147 44 120 89 c 128,-1,30
 93 134 93 134 80.5 190 c 128,-1,31
 68 246 68 246 68 303 c 0,0,1
299 15 m 0,32,33
 390 15 390 15 438 71.5 c 128,-1,34
 486 128 486 128 486 225 c 0,35,36
 486 313 486 313 441 363.5 c 128,-1,37
 396 414 396 414 304 414 c 0,38,39
 241 414 241 414 195 389 c 128,-1,40
 149 364 149 364 124.5 328 c 128,-1,41
 100 292 100 292 100 258 c 0,42,43
 100 228 100 228 108.5 187 c 128,-1,44
 117 146 117 146 138.5 106.5 c 128,-1,45
 160 67 160 67 199 41 c 128,-1,46
 238 15 238 15 299 15 c 0,32,33
EndSplineSet
Substitution2: "'case' Case-Sensitive Forms lookup 35 subtable" six.lf
Substitution2: "'onum' Oldstyle Figures lookup 32 subtable" six.tosf
Substitution2: "'pnum' Proportional Numbers lookup 30 subtable" six.lf
Substitution2: "'frac' Diagonal Fractions lookup 23 subtable" six.numr
Substitution2: "'dnom' Denominators lookup 21 subtable" six.dnom
Substitution2: "'numr' Numerators lookup 20 subtable" six.numr
Substitution2: "'sups' Superscript lookup 19 subtable" uni2076
Substitution2: "'subs' Subscript lookup 18 subtable" uni2086
EndChar

StartChar: seven
Encoding: 55 55 26
Width: 570
Flags: W
LayerCount: 2
Fore
SplineSet
183 0 m 1,0,-1
 480 689 l 1,1,-1
 58 689 l 1,2,-1
 58 714 l 1,3,-1
 510 714 l 1,4,-1
 510 697 l 1,5,-1
 212 0 l 1,6,-1
 183 0 l 1,0,-1
EndSplineSet
Substitution2: "'case' Case-Sensitive Forms lookup 35 subtable" seven.lf
Substitution2: "'onum' Oldstyle Figures lookup 32 subtable" seven.tosf
Substitution2: "'pnum' Proportional Numbers lookup 30 subtable" seven.lf
Substitution2: "'frac' Diagonal Fractions lookup 23 subtable" seven.numr
Substitution2: "'dnom' Denominators lookup 21 subtable" seven.dnom
Substitution2: "'numr' Numerators lookup 20 subtable" seven.numr
Substitution2: "'sups' Superscript lookup 19 subtable" uni2077
Substitution2: "'subs' Subscript lookup 18 subtable" uni2087
EndChar

StartChar: eight
Encoding: 56 56 27
Width: 570
Flags: W
LayerCount: 2
Fore
SplineSet
283 724 m 0,0,1
 373 724 373 724 426 681 c 128,-1,2
 479 638 479 638 479 561 c 0,3,4
 479 495 479 495 434.5 453.5 c 128,-1,5
 390 412 390 412 314 382 c 1,6,7
 402 352 402 352 452.5 305 c 128,-1,8
 503 258 503 258 503 181 c 0,9,10
 503 120 503 120 473 77.5 c 128,-1,11
 443 35 443 35 392.5 12.5 c 128,-1,12
 342 -10 342 -10 279 -10 c 256,13,14
 216 -10 216 -10 167.5 13.5 c 128,-1,15
 119 37 119 37 91.5 78.5 c 128,-1,16
 64 120 64 120 64 175 c 0,17,18
 64 257 64 257 115 304.5 c 128,-1,19
 166 352 166 352 251 381 c 1,20,21
 206 398 206 398 169 420.5 c 128,-1,22
 132 443 132 443 109.5 476.5 c 128,-1,23
 87 510 87 510 87 559 c 0,24,25
 87 609 87 609 112 646 c 128,-1,26
 137 683 137 683 181.5 703.5 c 128,-1,27
 226 724 226 724 283 724 c 0,0,1
283 699 m 0,28,29
 210 699 210 699 162 662.5 c 128,-1,30
 114 626 114 626 114 559 c 0,31,32
 114 495 114 495 161 458 c 128,-1,33
 208 421 208 421 286 394 c 1,34,35
 368 428 368 428 410 465 c 128,-1,36
 452 502 452 502 452 561 c 0,37,38
 452 630 452 630 407 664.5 c 128,-1,39
 362 699 362 699 283 699 c 0,28,29
91 175 m 0,40,41
 91 101 91 101 143 58 c 128,-1,42
 195 15 195 15 279 15 c 0,43,44
 364 15 364 15 420 57 c 128,-1,45
 476 99 476 99 476 181 c 0,46,47
 476 246 476 246 433.5 287.5 c 128,-1,48
 391 329 391 329 309 358 c 2,49,-1
 281 368 l 1,50,51
 228 350 228 350 185 326 c 128,-1,52
 142 302 142 302 116.5 265 c 128,-1,53
 91 228 91 228 91 175 c 0,40,41
EndSplineSet
Substitution2: "'case' Case-Sensitive Forms lookup 35 subtable" eight.lf
Substitution2: "'onum' Oldstyle Figures lookup 32 subtable" eight.tosf
Substitution2: "'pnum' Proportional Numbers lookup 30 subtable" eight.lf
Substitution2: "'frac' Diagonal Fractions lookup 23 subtable" eight.numr
Substitution2: "'dnom' Denominators lookup 21 subtable" eight.dnom
Substitution2: "'numr' Numerators lookup 20 subtable" eight.numr
Substitution2: "'sups' Superscript lookup 19 subtable" uni2078
Substitution2: "'subs' Subscript lookup 18 subtable" uni2088
EndChar

StartChar: nine
Encoding: 57 57 28
Width: 570
Flags: W
LayerCount: 2
Fore
SplineSet
500 413 m 0,0,1
 500 260 500 260 461 166.5 c 128,-1,2
 422 73 422 73 354 30.5 c 128,-1,3
 286 -12 286 -12 201 -12 c 0,4,5
 172 -12 172 -12 142.5 -8.5 c 128,-1,6
 113 -5 113 -5 93 1 c 1,7,-1
 93 29 l 1,8,9
 111 22 111 22 140.5 17.5 c 128,-1,10
 170 13 170 13 201 13 c 0,11,12
 279 13 279 13 339.5 52 c 128,-1,13
 400 91 400 91 436 175 c 128,-1,14
 472 259 472 259 475 394 c 1,15,-1
 473 394 l 1,16,17
 460 366 460 366 432.5 338.5 c 128,-1,18
 405 311 405 311 362.5 293 c 128,-1,19
 320 275 320 275 262 275 c 0,20,21
 163 275 163 275 109 334 c 128,-1,22
 55 393 55 393 55 491 c 0,23,24
 55 560 55 560 80 612.5 c 128,-1,25
 105 665 105 665 153 694.5 c 128,-1,26
 201 724 201 724 269 724 c 0,27,28
 334 724 334 724 378 697.5 c 128,-1,29
 422 671 422 671 449 626.5 c 128,-1,30
 476 582 476 582 488 526.5 c 128,-1,31
 500 471 500 471 500 413 c 0,0,1
269 699 m 0,32,33
 178 699 178 699 130 643.5 c 128,-1,34
 82 588 82 588 82 491 c 0,35,36
 82 402 82 402 127 351 c 128,-1,37
 172 300 172 300 264 300 c 0,38,39
 327 300 327 300 372.5 325.5 c 128,-1,40
 418 351 418 351 443 387.5 c 128,-1,41
 468 424 468 424 468 458 c 0,42,43
 468 487 468 487 459.5 528 c 128,-1,44
 451 569 451 569 429.5 608 c 128,-1,45
 408 647 408 647 369 673 c 128,-1,46
 330 699 330 699 269 699 c 0,32,33
EndSplineSet
Substitution2: "'case' Case-Sensitive Forms lookup 35 subtable" nine.lf
Substitution2: "'onum' Oldstyle Figures lookup 32 subtable" nine.tosf
Substitution2: "'pnum' Proportional Numbers lookup 30 subtable" nine.lf
Substitution2: "'frac' Diagonal Fractions lookup 23 subtable" nine.numr
Substitution2: "'dnom' Denominators lookup 21 subtable" nine.dnom
Substitution2: "'numr' Numerators lookup 20 subtable" nine.numr
Substitution2: "'sups' Superscript lookup 19 subtable" uni2079
Substitution2: "'subs' Subscript lookup 18 subtable" uni2089
EndChar

StartChar: colon
Encoding: 58 58 29
Width: 220
Flags: W
LayerCount: 2
Fore
SplineSet
85 501 m 0,0,1
 85 513 85 513 90 522.5 c 128,-1,2
 95 532 95 532 110 532 c 0,3,4
 128 532 128 532 132.5 522.5 c 128,-1,5
 137 513 137 513 137 501 c 0,6,7
 137 488 137 488 132.5 479 c 128,-1,8
 128 470 128 470 110 470 c 0,9,10
 95 470 95 470 90 479 c 128,-1,11
 85 488 85 488 85 501 c 0,0,1
85 23 m 0,12,13
 85 35 85 35 90 44.5 c 128,-1,14
 95 54 95 54 110 54 c 0,15,16
 128 54 128 54 132.5 44.5 c 128,-1,17
 137 35 137 35 137 23 c 0,18,19
 137 10 137 10 132.5 1 c 128,-1,20
 128 -8 128 -8 110 -8 c 0,21,22
 95 -8 95 -8 90 1 c 128,-1,23
 85 10 85 10 85 23 c 0,12,13
EndSplineSet
EndChar

StartChar: semicolon
Encoding: 59 59 30
Width: 220
Flags: W
LayerCount: 2
Fore
SplineSet
85 501 m 0,0,1
 85 513 85 513 90 522.5 c 128,-1,2
 95 532 95 532 110 532 c 0,3,4
 128 532 128 532 132.5 522.5 c 128,-1,5
 137 513 137 513 137 501 c 0,6,7
 137 488 137 488 132.5 479 c 128,-1,8
 128 470 128 470 110 470 c 0,9,10
 95 470 95 470 90 479 c 128,-1,11
 85 488 85 488 85 501 c 0,0,1
122 116 m 1,12,-1
 125 104 l 1,13,14
 114 48 114 48 97.5 -14.5 c 128,-1,15
 81 -77 81 -77 60 -129 c 1,16,-1
 38 -129 l 1,17,18
 60 -56 60 -56 73 1.5 c 128,-1,19
 86 59 86 59 94 116 c 1,20,-1
 122 116 l 1,12,-1
EndSplineSet
EndChar

StartChar: less
Encoding: 60 60 31
Width: 570
Flags: W
LayerCount: 2
Fore
SplineSet
514 138 m 1,0,-1
 56 353 l 1,1,-1
 56 371 l 1,2,-1
 514 586 l 1,3,-1
 514 560 l 1,4,-1
 91 362 l 1,5,-1
 514 164 l 1,6,-1
 514 138 l 1,0,-1
EndSplineSet
EndChar

StartChar: equal
Encoding: 61 61 32
Width: 570
Flags: W
LayerCount: 2
Fore
SplineSet
55 443 m 1,0,-1
 55 467 l 1,1,-1
 515 467 l 1,2,-1
 515 443 l 1,3,-1
 55 443 l 1,0,-1
55 239 m 1,4,-1
 55 263 l 1,5,-1
 515 263 l 1,6,-1
 515 239 l 1,7,-1
 55 239 l 1,4,-1
EndSplineSet
Substitution2: "'sups' Superscript lookup 19 subtable" uni207C
Substitution2: "'subs' Subscript lookup 18 subtable" uni208C
EndChar

StartChar: greater
Encoding: 62 62 33
Width: 570
Flags: W
LayerCount: 2
Fore
SplineSet
56 164 m 1,0,-1
 479 362 l 1,1,-1
 56 560 l 1,2,-1
 56 586 l 1,3,-1
 514 371 l 1,4,-1
 514 353 l 1,5,-1
 56 138 l 1,6,-1
 56 164 l 1,0,-1
EndSplineSet
EndChar

StartChar: question
Encoding: 63 63 34
Width: 413
Flags: W
LayerCount: 2
Fore
SplineSet
144 174 m 1,0,-1
 144 186 l 2,1,2
 144 236 144 236 151 267.5 c 128,-1,3
 158 299 158 299 176 322.5 c 128,-1,4
 194 346 194 346 229 371 c 0,5,6
 265 396 265 396 291.5 421 c 128,-1,7
 318 446 318 446 332.5 477 c 128,-1,8
 347 508 347 508 347 554 c 0,9,10
 347 629 347 629 302.5 664 c 128,-1,11
 258 699 258 699 188 699 c 0,12,13
 151 699 151 699 117.5 691 c 128,-1,14
 84 683 84 683 48 665 c 1,15,-1
 38 691 l 1,16,17
 82 709 82 709 115 716.5 c 128,-1,18
 148 724 148 724 188 724 c 0,19,20
 272 724 272 724 323 682 c 128,-1,21
 374 640 374 640 374 554 c 0,22,23
 374 504 374 504 357.5 468.5 c 128,-1,24
 341 433 341 433 311.5 405.5 c 128,-1,25
 282 378 282 378 242 350 c 0,26,27
 203 323 203 323 186 288.5 c 128,-1,28
 169 254 169 254 169 186 c 2,29,-1
 169 174 l 1,30,-1
 144 174 l 1,0,-1
133 23 m 0,31,32
 133 35 133 35 138 44.5 c 128,-1,33
 143 54 143 54 158 54 c 0,34,35
 176 54 176 54 180.5 44.5 c 128,-1,36
 185 35 185 35 185 23 c 0,37,38
 185 10 185 10 180.5 1 c 128,-1,39
 176 -8 176 -8 158 -8 c 0,40,41
 143 -8 143 -8 138 1 c 128,-1,42
 133 10 133 10 133 23 c 0,31,32
EndSplineSet
Substitution2: "'smcp' Lowercase to Small Capitals lookup 34 subtable" question.sc
Substitution2: "'c2sc' Capitals to Small Capitals lookup 33 subtable" question.sc
EndChar

StartChar: at
Encoding: 64 64 35
Width: 878
Flags: W
LayerCount: 2
Fore
SplineSet
826 351 m 0,0,1
 826 282 826 282 809 227 c 128,-1,2
 792 172 792 172 757.5 139.5 c 128,-1,3
 723 107 723 107 670 107 c 0,4,5
 625 107 625 107 596.5 134 c 128,-1,6
 568 161 568 161 566 212 c 1,7,8
 543 156 543 156 501 131.5 c 128,-1,9
 459 107 459 107 411 107 c 0,10,11
 338 107 338 107 298 152.5 c 128,-1,12
 258 198 258 198 258 284 c 0,13,14
 258 348 258 348 285 398 c 128,-1,15
 312 448 312 448 359.5 477 c 128,-1,16
 407 506 407 506 470 506 c 0,17,18
 506 506 506 506 538 501 c 128,-1,19
 570 496 570 496 598 486 c 1,20,-1
 591 341 l 2,21,22
 590 323 590 323 588.5 297.5 c 128,-1,23
 587 272 587 272 587 246 c 0,24,25
 587 192 587 192 605.5 162 c 128,-1,26
 624 132 624 132 670 132 c 0,27,28
 714 132 714 132 743 160 c 128,-1,29
 772 188 772 188 785.5 237.5 c 128,-1,30
 799 287 799 287 799 351 c 0,31,32
 799 450 799 450 761 524 c 128,-1,33
 723 598 723 598 649 639.5 c 128,-1,34
 575 681 575 681 467 681 c 0,35,36
 354 681 354 681 266 635 c 128,-1,37
 178 589 178 589 128.5 500.5 c 128,-1,38
 79 412 79 412 79 284 c 0,39,40
 79 173 79 173 119 92.5 c 128,-1,41
 159 12 159 12 234 -31.5 c 128,-1,42
 309 -75 309 -75 414 -75 c 0,43,44
 464 -75 464 -75 516 -64.5 c 128,-1,45
 568 -54 568 -54 616 -34 c 1,46,-1
 616 -62 l 1,47,48
 572 -80 572 -80 521.5 -90 c 128,-1,49
 471 -100 471 -100 414 -100 c 0,50,51
 302 -100 302 -100 221 -53 c 128,-1,52
 140 -6 140 -6 96 80 c 128,-1,53
 52 166 52 166 52 284 c 0,54,55
 52 420 52 420 104.5 514 c 128,-1,56
 157 608 157 608 250.5 657 c 128,-1,57
 344 706 344 706 467 706 c 0,58,59
 578 706 578 706 658.5 662.5 c 128,-1,60
 739 619 739 619 782.5 539.5 c 128,-1,61
 826 460 826 460 826 351 c 0,0,1
285 284 m 0,62,63
 285 212 285 212 316 172 c 128,-1,64
 347 132 347 132 411 132 c 0,65,66
 481 132 481 132 520 176.5 c 128,-1,67
 559 221 559 221 564 316 c 2,68,-1
 572 466 l 1,69,70
 528 481 528 481 470 481 c 0,71,72
 388 481 388 481 336.5 428 c 128,-1,73
 285 375 285 375 285 284 c 0,62,63
EndSplineSet
EndChar

StartChar: A
Encoding: 65 65 36
Width: 577
GlyphClass: 2
Flags: W
AnchorPoint: "Anchor-3" 557 714 basechar 0
AnchorPoint: "Anchor-2" 289 714 basechar 0
AnchorPoint: "Anchor-0" 289 0 basechar 0
LayerCount: 2
Fore
SplineSet
549 0 m 1,0,-1
 445 271 l 1,1,-1
 135 271 l 1,2,-1
 28 0 l 1,3,-1
 0 0 l 1,4,-1
 282 716 l 1,5,-1
 307 716 l 1,6,-1
 577 0 l 1,7,-1
 549 0 l 1,0,-1
435 296 m 1,8,-1
 325 594 l 2,9,10
 319 611 319 611 311 632.5 c 128,-1,11
 303 654 303 654 293 682 c 1,12,13
 286 660 286 660 277 636.5 c 128,-1,14
 268 613 268 613 260 593 c 2,15,-1
 144 296 l 1,16,-1
 435 296 l 1,8,-1
EndSplineSet
Substitution2: "'c2sc' Capitals to Small Capitals lookup 33 subtable" a.sc
Substitution2: "Single Substitution lookup 28 subtable" ordfeminine
EndChar

StartChar: B
Encoding: 66 66 37
Width: 613
GlyphClass: 2
Flags: W
AnchorPoint: "Anchor-3" 593 714 basechar 0
AnchorPoint: "Anchor-2" 307 714 basechar 0
AnchorPoint: "Anchor-0" 307 0 basechar 0
LayerCount: 2
Fore
SplineSet
103 714 m 1,0,-1
 294 714 l 2,1,2
 425 714 425 714 482 671 c 128,-1,3
 539 628 539 628 539 542 c 0,4,5
 539 481 539 481 503 435 c 128,-1,6
 467 389 467 389 398 377 c 1,7,-1
 398 375 l 1,8,9
 486 362 486 362 521.5 316 c 128,-1,10
 557 270 557 270 557 203 c 0,11,12
 557 130 557 130 524 85 c 128,-1,13
 491 40 491 40 433.5 20 c 128,-1,14
 376 0 376 0 303 0 c 2,15,-1
 103 0 l 1,16,-1
 103 714 l 1,0,-1
129 388 m 1,17,-1
 303 388 l 2,18,19
 512 388 512 388 512 541 c 0,20,21
 512 620 512 620 459.5 654.5 c 128,-1,22
 407 689 407 689 291 689 c 2,23,-1
 129 689 l 1,24,-1
 129 388 l 1,17,-1
129 363 m 1,25,-1
 129 25 l 1,26,-1
 311 25 l 2,27,28
 413 25 413 25 471.5 67.5 c 128,-1,29
 530 110 530 110 530 202 c 0,30,31
 530 264 530 264 502.5 299 c 128,-1,32
 475 334 475 334 423.5 348.5 c 128,-1,33
 372 363 372 363 300 363 c 2,34,-1
 129 363 l 1,25,-1
EndSplineSet
Substitution2: "'c2sc' Capitals to Small Capitals lookup 33 subtable" b.sc
EndChar

StartChar: C
Encoding: 67 67 38
Width: 614
GlyphClass: 2
Flags: W
AnchorPoint: "Anchor-3" 594 714 basechar 0
AnchorPoint: "Anchor-2" 387 714 basechar 0
AnchorPoint: "Anchor-0" 367 0 basechar 0
LayerCount: 2
Fore
SplineSet
405 699 m 0,0,1
 304 699 304 699 234 655 c 128,-1,2
 164 611 164 611 127 534.5 c 128,-1,3
 90 458 90 458 90 360 c 0,4,5
 90 256 90 256 123 178.5 c 128,-1,6
 156 101 156 101 222 58 c 128,-1,7
 288 15 288 15 386 15 c 0,8,9
 444 15 444 15 489 23 c 128,-1,10
 534 31 534 31 570 44 c 1,11,-1
 570 21 l 1,12,13
 537 8 537 8 491 -1 c 128,-1,14
 445 -10 445 -10 386 -10 c 0,15,16
 280 -10 280 -10 208 36.5 c 128,-1,17
 136 83 136 83 99.5 166 c 128,-1,18
 63 249 63 249 63 360 c 0,19,20
 63 464 63 464 104 546.5 c 128,-1,21
 145 629 145 629 221.5 676.5 c 128,-1,22
 298 724 298 724 405 724 c 0,23,24
 502 724 502 724 583 687 c 1,25,-1
 573 662 l 1,26,27
 530 684 530 684 488 691.5 c 128,-1,28
 446 699 446 699 405 699 c 0,0,1
EndSplineSet
Substitution2: "'c2sc' Capitals to Small Capitals lookup 33 subtable" c.sc
EndChar

StartChar: D
Encoding: 68 68 39
Width: 692
GlyphClass: 2
Flags: W
AnchorPoint: "Anchor-3" 672 714 basechar 0
AnchorPoint: "Anchor-2" 346 714 basechar 0
AnchorPoint: "Anchor-1" 346 357 basechar 0
AnchorPoint: "Anchor-0" 346 0 basechar 0
LayerCount: 2
Fore
SplineSet
628 364 m 0,0,1
 628 185 628 185 536 92.5 c 128,-1,2
 444 0 444 0 257 0 c 2,3,-1
 103 0 l 1,4,-1
 103 714 l 1,5,-1
 280 714 l 2,6,7
 457 714 457 714 542.5 624 c 128,-1,8
 628 534 628 534 628 364 c 0,0,1
601 363 m 0,9,10
 601 522 601 522 522.5 605.5 c 128,-1,11
 444 689 444 689 270 689 c 2,12,-1
 129 689 l 1,13,-1
 129 25 l 1,14,-1
 260 25 l 2,15,16
 601 25 601 25 601 363 c 0,9,10
EndSplineSet
Substitution2: "'c2sc' Capitals to Small Capitals lookup 33 subtable" d.sc
EndChar

StartChar: E
Encoding: 69 69 40
Width: 550
GlyphClass: 2
Flags: W
AnchorPoint: "Anchor-3" 530 714 basechar 0
AnchorPoint: "Anchor-2" 305 714 basechar 0
AnchorPoint: "Anchor-0" 295 0 basechar 0
LayerCount: 2
Fore
SplineSet
488 0 m 1,0,-1
 103 0 l 1,1,-1
 103 714 l 1,2,-1
 488 714 l 1,3,-1
 488 689 l 1,4,-1
 129 689 l 1,5,-1
 129 389 l 1,6,-1
 468 389 l 1,7,-1
 468 364 l 1,8,-1
 129 364 l 1,9,-1
 129 25 l 1,10,-1
 488 25 l 1,11,-1
 488 0 l 1,0,-1
EndSplineSet
Substitution2: "'c2sc' Capitals to Small Capitals lookup 33 subtable" e.sc
EndChar

StartChar: F
Encoding: 70 70 41
Width: 492
GlyphClass: 2
Flags: W
AnchorPoint: "Anchor-3" 472 714 basechar 0
AnchorPoint: "Anchor-2" 296 714 basechar 0
AnchorPoint: "Anchor-0" 246 0 basechar 0
LayerCount: 2
Fore
SplineSet
129 0 m 1,0,-1
 103 0 l 1,1,-1
 103 714 l 1,2,-1
 489 714 l 1,3,-1
 489 689 l 1,4,-1
 129 689 l 1,5,-1
 129 354 l 1,6,-1
 470 354 l 1,7,-1
 470 329 l 1,8,-1
 129 329 l 1,9,-1
 129 0 l 1,0,-1
EndSplineSet
Substitution2: "'c2sc' Capitals to Small Capitals lookup 33 subtable" f.sc
EndChar

StartChar: G
Encoding: 71 71 42
Width: 720
GlyphClass: 2
Flags: W
AnchorPoint: "Anchor-3" 700 714 basechar 0
AnchorPoint: "Anchor-2" 410 714 basechar 0
AnchorPoint: "Anchor-0" 400 0 basechar 0
LayerCount: 2
Fore
SplineSet
367 350 m 1,0,-1
 639 350 l 1,1,-1
 639 36 l 1,2,3
 591 13 591 13 533.5 1.5 c 128,-1,4
 476 -10 476 -10 417 -10 c 0,5,6
 244 -10 244 -10 153.5 85 c 128,-1,7
 63 180 63 180 63 355 c 0,8,9
 63 460 63 460 106.5 544 c 128,-1,10
 150 628 150 628 231 677 c 128,-1,11
 312 726 312 726 424 726 c 0,12,13
 481 726 481 726 532.5 715.5 c 128,-1,14
 584 705 584 705 631 682 c 1,15,-1
 619 657 l 1,16,17
 568 682 568 682 519.5 691.5 c 128,-1,18
 471 701 471 701 423 701 c 0,19,20
 320 701 320 701 245 656 c 128,-1,21
 170 611 170 611 130 533 c 128,-1,22
 90 455 90 455 90 356 c 0,23,24
 90 235 90 235 130.5 160 c 128,-1,25
 171 85 171 85 245 50 c 128,-1,26
 319 15 319 15 419 15 c 0,27,28
 477 15 477 15 525.5 24.5 c 128,-1,29
 574 34 574 34 613 50 c 1,30,-1
 613 325 l 1,31,-1
 367 325 l 1,32,-1
 367 350 l 1,0,-1
EndSplineSet
Substitution2: "'c2sc' Capitals to Small Capitals lookup 33 subtable" g.sc
EndChar

StartChar: H
Encoding: 72 72 43
Width: 706
GlyphClass: 2
Flags: W
AnchorPoint: "Anchor-3" 686 714 basechar 0
AnchorPoint: "Anchor-2" 353 714 basechar 0
AnchorPoint: "Anchor-1" 353 357 basechar 0
AnchorPoint: "Anchor-0" 353 0 basechar 0
LayerCount: 2
Fore
SplineSet
603 0 m 1,0,-1
 577 0 l 1,1,-1
 577 363 l 1,2,-1
 129 363 l 1,3,-1
 129 0 l 1,4,-1
 103 0 l 1,5,-1
 103 714 l 1,6,-1
 129 714 l 1,7,-1
 129 388 l 1,8,-1
 577 388 l 1,9,-1
 577 714 l 1,10,-1
 603 714 l 1,11,-1
 603 0 l 1,0,-1
EndSplineSet
Substitution2: "'c2sc' Capitals to Small Capitals lookup 33 subtable" h.sc
EndChar

StartChar: I
Encoding: 73 73 44
Width: 283
GlyphClass: 2
Flags: W
AnchorPoint: "Anchor-3" 263 714 basechar 0
AnchorPoint: "Anchor-2" 142 714 basechar 0
AnchorPoint: "Anchor-0" 142 0 basechar 0
LayerCount: 2
Fore
SplineSet
223 0 m 1,0,-1
 61 0 l 1,1,-1
 61 20 l 1,2,-1
 129 23 l 1,3,-1
 129 690 l 1,4,-1
 61 694 l 1,5,-1
 61 714 l 1,6,-1
 223 714 l 1,7,-1
 223 694 l 1,8,-1
 155 690 l 1,9,-1
 155 23 l 1,10,-1
 223 20 l 1,11,-1
 223 0 l 1,0,-1
EndSplineSet
Substitution2: "'c2sc' Capitals to Small Capitals lookup 33 subtable" i.sc
EndChar

StartChar: J
Encoding: 74 74 45
Width: 231
GlyphClass: 2
Flags: W
AnchorPoint: "Anchor-3" 211 714 basechar 0
AnchorPoint: "Anchor-2" 119 714 basechar 0
AnchorPoint: "Anchor-0" -19 -164 basechar 0
LayerCount: 2
Fore
SplineSet
-19 -174 m 0,0,1
 -47 -174 -47 -174 -66 -170 c 128,-1,2
 -85 -166 -85 -166 -98 -162 c 1,3,-1
 -98 -134 l 1,4,5
 -84 -140 -84 -140 -63 -144 c 128,-1,6
 -42 -148 -42 -148 -19 -148 c 0,7,8
 53 -148 53 -148 79.5 -105.5 c 128,-1,9
 106 -63 106 -63 106 5 c 2,10,-1
 106 714 l 1,11,-1
 132 714 l 1,12,-1
 132 2 l 2,13,14
 132 -48 132 -48 117.5 -87.5 c 128,-1,15
 103 -127 103 -127 70 -150.5 c 128,-1,16
 37 -174 37 -174 -19 -174 c 0,0,1
EndSplineSet
Substitution2: "'c2sc' Capitals to Small Capitals lookup 33 subtable" j.sc
EndChar

StartChar: K
Encoding: 75 75 46
Width: 558
GlyphClass: 2
Flags: W
AnchorPoint: "Anchor-3" 538 714 basechar 0
AnchorPoint: "Anchor-2" 279 714 basechar 0
AnchorPoint: "Anchor-0" 279 0 basechar 0
LayerCount: 2
Fore
SplineSet
558 0 m 1,0,-1
 524 0 l 1,1,-1
 234 398 l 1,2,-1
 129 293 l 1,3,-1
 129 0 l 1,4,-1
 103 0 l 1,5,-1
 103 714 l 1,6,-1
 129 714 l 1,7,-1
 129 324 l 1,8,9
 140 337 140 337 153 349.5 c 128,-1,10
 166 362 166 362 179 376 c 2,11,-1
 514 714 l 1,12,-1
 552 714 l 1,13,-1
 254 417 l 1,14,-1
 558 0 l 1,0,-1
EndSplineSet
Substitution2: "'c2sc' Capitals to Small Capitals lookup 33 subtable" k.sc
EndChar

StartChar: L
Encoding: 76 76 47
Width: 506
GlyphClass: 2
Flags: W
AnchorPoint: "Anchor-3" 446 714 basechar 0
AnchorPoint: "Anchor-2" 116 714 basechar 0
AnchorPoint: "Anchor-1" 253 357 basechar 0
AnchorPoint: "Anchor-0" 283 0 basechar 0
LayerCount: 2
Fore
SplineSet
103 0 m 1,0,-1
 103 714 l 1,1,-1
 129 714 l 1,2,-1
 129 25 l 1,3,-1
 486 25 l 1,4,-1
 486 0 l 1,5,-1
 103 0 l 1,0,-1
EndSplineSet
Substitution2: "'c2sc' Capitals to Small Capitals lookup 33 subtable" l.sc
EndChar

StartChar: M
Encoding: 77 77 48
Width: 837
GlyphClass: 2
Flags: W
AnchorPoint: "Anchor-3" 817 714 basechar 0
AnchorPoint: "Anchor-2" 419 714 basechar 0
AnchorPoint: "Anchor-0" 419 0 basechar 0
LayerCount: 2
Fore
SplineSet
408 0 m 1,0,-1
 130 679 l 1,1,-1
 128 679 l 1,2,3
 129 654 129 654 129 636 c 128,-1,4
 129 618 129 618 129 596 c 2,5,-1
 129 0 l 1,6,-1
 103 0 l 1,7,-1
 103 714 l 1,8,-1
 145 714 l 1,9,-1
 417 48 l 1,10,-1
 420 48 l 1,11,-1
 693 714 l 1,12,-1
 733 714 l 1,13,-1
 733 0 l 1,14,-1
 707 0 l 1,15,-1
 707 602 l 2,16,17
 707 617 707 617 707 635 c 128,-1,18
 707 653 707 653 708 678 c 1,19,-1
 706 678 l 1,20,-1
 428 0 l 1,21,-1
 408 0 l 1,0,-1
EndSplineSet
Substitution2: "'c2sc' Capitals to Small Capitals lookup 33 subtable" m.sc
EndChar

StartChar: N
Encoding: 78 78 49
Width: 698
GlyphClass: 2
Flags: W
AnchorPoint: "Anchor-3" 678 714 basechar 0
AnchorPoint: "Anchor-2" 349 714 basechar 0
AnchorPoint: "Anchor-0" 349 0 basechar 0
LayerCount: 2
Fore
SplineSet
594 0 m 1,0,-1
 575 0 l 1,1,-1
 130 655 l 1,2,-1
 128 655 l 1,3,4
 129 612 129 612 129 577 c 128,-1,5
 129 542 129 542 129 502 c 2,6,-1
 129 0 l 1,7,-1
 103 0 l 1,8,-1
 103 714 l 1,9,-1
 123 714 l 1,10,-1
 567 61 l 1,11,-1
 569 61 l 1,12,13
 568 98 568 98 568 137 c 128,-1,14
 568 176 568 176 568 211 c 2,15,-1
 568 714 l 1,16,-1
 594 714 l 1,17,-1
 594 0 l 1,0,-1
EndSplineSet
Substitution2: "'c2sc' Capitals to Small Capitals lookup 33 subtable" n.sc
EndChar

StartChar: O
Encoding: 79 79 50
Width: 754
GlyphClass: 2
Flags: W
AnchorPoint: "Anchor-3" 734 714 basechar 0
AnchorPoint: "Anchor-2" 377 714 basechar 0
AnchorPoint: "Anchor-1" 377 357 basechar 0
AnchorPoint: "Anchor-0" 377 0 basechar 0
LayerCount: 2
Fore
SplineSet
690 358 m 0,0,1
 690 250 690 250 655.5 167 c 128,-1,2
 621 84 621 84 551.5 37 c 128,-1,3
 482 -10 482 -10 376 -10 c 0,4,5
 272 -10 272 -10 202.5 37 c 128,-1,6
 133 84 133 84 98 167.5 c 128,-1,7
 63 251 63 251 63 359 c 0,8,9
 63 466 63 466 100 549 c 128,-1,10
 137 632 137 632 208.5 678.5 c 128,-1,11
 280 725 280 725 382 725 c 0,12,13
 530 725 530 725 610 628.5 c 128,-1,14
 690 532 690 532 690 358 c 0,0,1
90 359 m 0,15,16
 90 259 90 259 121 181.5 c 128,-1,17
 152 104 152 104 216 59.5 c 128,-1,18
 280 15 280 15 377 15 c 0,19,20
 475 15 475 15 538.5 58.5 c 128,-1,21
 602 102 602 102 632.5 179.5 c 128,-1,22
 663 257 663 257 663 358 c 0,23,24
 663 521 663 521 590 610.5 c 128,-1,25
 517 700 517 700 382 700 c 0,26,27
 284 700 284 700 219 656 c 128,-1,28
 154 612 154 612 122 535 c 128,-1,29
 90 458 90 458 90 359 c 0,15,16
EndSplineSet
Substitution2: "'c2sc' Capitals to Small Capitals lookup 33 subtable" o.sc
Substitution2: "Single Substitution lookup 28 subtable" ordmasculine
EndChar

StartChar: P
Encoding: 80 80 51
Width: 573
GlyphClass: 2
Flags: W
AnchorPoint: "Anchor-3" 553 714 basechar 0
AnchorPoint: "Anchor-2" 287 714 basechar 0
AnchorPoint: "Anchor-0" 287 0 basechar 0
LayerCount: 2
Fore
SplineSet
270 714 m 2,0,1
 389 714 389 714 452.5 668.5 c 128,-1,2
 516 623 516 623 516 519 c 0,3,4
 516 442 516 442 484 394.5 c 128,-1,5
 452 347 452 347 393.5 326 c 128,-1,6
 335 305 335 305 256 305 c 2,7,-1
 129 305 l 1,8,-1
 129 0 l 1,9,-1
 103 0 l 1,10,-1
 103 714 l 1,11,-1
 270 714 l 2,0,1
266 689 m 2,12,-1
 129 689 l 1,13,-1
 129 330 l 1,14,-1
 254 330 l 2,15,16
 324 330 324 330 377 346.5 c 128,-1,17
 430 363 430 363 459.5 404 c 128,-1,18
 489 445 489 445 489 518 c 0,19,20
 489 609 489 609 434.5 649 c 128,-1,21
 380 689 380 689 266 689 c 2,12,-1
EndSplineSet
Substitution2: "'c2sc' Capitals to Small Capitals lookup 33 subtable" p.sc
EndChar

StartChar: Q
Encoding: 81 81 52
Width: 754
GlyphClass: 2
Flags: W
AnchorPoint: "Anchor-3" 734 714 basechar 0
AnchorPoint: "Anchor-2" 377 714 basechar 0
AnchorPoint: "Anchor-0" 377 -170 basechar 0
LayerCount: 2
Fore
SplineSet
690 358 m 0,0,1
 690 263 690 263 662.5 186 c 128,-1,2
 635 109 635 109 580.5 59.5 c 128,-1,3
 526 10 526 10 443 -4 c 1,4,-1
 585 -170 l 1,5,-1
 549 -170 l 1,6,-1
 413 -8 l 1,7,8
 404 -9 404 -9 395 -9.5 c 128,-1,9
 386 -10 386 -10 376 -10 c 0,10,11
 272 -10 272 -10 202.5 37 c 128,-1,12
 133 84 133 84 98 167.5 c 128,-1,13
 63 251 63 251 63 359 c 0,14,15
 63 466 63 466 100 549 c 128,-1,16
 137 632 137 632 208.5 678.5 c 128,-1,17
 280 725 280 725 382 725 c 0,18,19
 530 725 530 725 610 628.5 c 128,-1,20
 690 532 690 532 690 358 c 0,0,1
90 359 m 0,21,22
 90 259 90 259 121 181.5 c 128,-1,23
 152 104 152 104 216 59.5 c 128,-1,24
 280 15 280 15 377 15 c 0,25,26
 475 15 475 15 538.5 58.5 c 128,-1,27
 602 102 602 102 632.5 179.5 c 128,-1,28
 663 257 663 257 663 358 c 0,29,30
 663 521 663 521 590 610.5 c 128,-1,31
 517 700 517 700 382 700 c 0,32,33
 284 700 284 700 219 656 c 128,-1,34
 154 612 154 612 122 535 c 128,-1,35
 90 458 90 458 90 359 c 0,21,22
EndSplineSet
Substitution2: "'c2sc' Capitals to Small Capitals lookup 33 subtable" q.sc
EndChar

StartChar: R
Encoding: 82 82 53
Width: 577
GlyphClass: 2
Flags: W
AnchorPoint: "Anchor-3" 557 714 basechar 0
AnchorPoint: "Anchor-2" 289 714 basechar 0
AnchorPoint: "Anchor-0" 297 0 basechar 0
LayerCount: 2
Fore
SplineSet
262 714 m 2,0,1
 344 714 344 714 401 697.5 c 128,-1,2
 458 681 458 681 487 640 c 128,-1,3
 516 599 516 599 516 525 c 0,4,5
 516 446 516 446 473.5 396.5 c 128,-1,6
 431 347 431 347 355 327 c 1,7,-1
 551 0 l 1,8,-1
 518 0 l 1,9,-1
 327 320 l 1,10,-1
 129 320 l 1,11,-1
 129 0 l 1,12,-1
 103 0 l 1,13,-1
 103 714 l 1,14,-1
 262 714 l 2,0,1
257 689 m 2,15,-1
 129 689 l 1,16,-1
 129 345 l 1,17,-1
 292 345 l 2,18,19
 379 345 379 345 434 391.5 c 128,-1,20
 489 438 489 438 489 524 c 0,21,22
 489 588 489 588 463.5 624 c 128,-1,23
 438 660 438 660 386.5 674.5 c 128,-1,24
 335 689 335 689 257 689 c 2,15,-1
EndSplineSet
Substitution2: "'c2sc' Capitals to Small Capitals lookup 33 subtable" r.sc
EndChar

StartChar: S
Encoding: 83 83 54
Width: 543
GlyphClass: 2
Flags: W
AnchorPoint: "Anchor-3" 523 714 basechar 0
AnchorPoint: "Anchor-2" 272 714 basechar 0
AnchorPoint: "Anchor-0" 272 0 basechar 0
LayerCount: 2
Fore
SplineSet
489 180 m 0,0,1
 489 116 489 116 456.5 73.5 c 128,-1,2
 424 31 424 31 369.5 10.5 c 128,-1,3
 315 -10 315 -10 250 -10 c 0,4,5
 181 -10 181 -10 136.5 -1 c 128,-1,6
 92 8 92 8 56 19 c 1,7,-1
 56 48 l 1,8,9
 96 34 96 34 143.5 24.5 c 128,-1,10
 191 15 191 15 252 15 c 0,11,12
 308 15 308 15 356 32.5 c 128,-1,13
 404 50 404 50 433 86.5 c 128,-1,14
 462 123 462 123 462 181 c 0,15,16
 462 230 462 230 438 261 c 128,-1,17
 414 292 414 292 369 312 c 128,-1,18
 324 332 324 332 263 352 c 0,19,20
 205 370 205 370 160 392 c 128,-1,21
 115 414 115 414 89.5 449 c 128,-1,22
 64 484 64 484 64 544 c 256,23,24
 64 604 64 604 94.5 644 c 128,-1,25
 125 684 125 684 176.5 704 c 128,-1,26
 228 724 228 724 291 724 c 0,27,28
 338 724 338 724 382.5 715 c 128,-1,29
 427 706 427 706 471 687 c 1,30,-1
 460 664 l 1,31,32
 414 684 414 684 371.5 691.5 c 128,-1,33
 329 699 329 699 289 699 c 0,34,35
 236 699 236 699 191 683 c 128,-1,36
 146 667 146 667 118.5 633.5 c 128,-1,37
 91 600 91 600 91 546 c 256,38,39
 91 492 91 492 116 460 c 128,-1,40
 141 428 141 428 183.5 409.5 c 128,-1,41
 226 391 226 391 277 375 c 0,42,43
 340 355 340 355 388 332.5 c 128,-1,44
 436 310 436 310 462.5 274.5 c 128,-1,45
 489 239 489 239 489 180 c 0,0,1
EndSplineSet
Substitution2: "'c2sc' Capitals to Small Capitals lookup 33 subtable" s.sc
EndChar

StartChar: T
Encoding: 84 84 55
Width: 505
GlyphClass: 2
Flags: W
AnchorPoint: "Anchor-3" 485 714 basechar 0
AnchorPoint: "Anchor-2" 253 714 basechar 0
AnchorPoint: "Anchor-1" 253 357 basechar 0
AnchorPoint: "Anchor-0" 253 0 basechar 0
LayerCount: 2
Fore
SplineSet
265 0 m 1,0,-1
 239 0 l 1,1,-1
 239 689 l 1,2,-1
 2 689 l 1,3,-1
 2 714 l 1,4,-1
 503 714 l 1,5,-1
 503 689 l 1,6,-1
 265 689 l 1,7,-1
 265 0 l 1,0,-1
EndSplineSet
Substitution2: "'c2sc' Capitals to Small Capitals lookup 33 subtable" t.sc
EndChar

StartChar: U
Encoding: 85 85 56
Width: 712
GlyphClass: 2
Flags: W
AnchorPoint: "Anchor-3" 692 714 basechar 0
AnchorPoint: "Anchor-2" 356 714 basechar 0
AnchorPoint: "Anchor-0" 356 0 basechar 0
LayerCount: 2
Fore
SplineSet
618 714 m 1,0,-1
 618 252 l 2,1,2
 618 163 618 163 584.5 105 c 128,-1,3
 551 47 551 47 491.5 18.5 c 128,-1,4
 432 -10 432 -10 355 -10 c 0,5,6
 231 -10 231 -10 163 57 c 128,-1,7
 95 124 95 124 95 254 c 2,8,-1
 95 714 l 1,9,-1
 121 714 l 1,10,-1
 121 256 l 2,11,12
 121 136 121 136 182.5 75.5 c 128,-1,13
 244 15 244 15 356 15 c 0,14,15
 462 15 462 15 527 72.5 c 128,-1,16
 592 130 592 130 592 244 c 2,17,-1
 592 714 l 1,18,-1
 618 714 l 1,0,-1
EndSplineSet
Substitution2: "'c2sc' Capitals to Small Capitals lookup 33 subtable" u.sc
EndChar

StartChar: V
Encoding: 86 86 57
Width: 563
GlyphClass: 2
Flags: W
AnchorPoint: "Anchor-3" 543 714 basechar 0
AnchorPoint: "Anchor-2" 282 714 basechar 0
AnchorPoint: "Anchor-0" 282 0 basechar 0
LayerCount: 2
Fore
SplineSet
563 714 m 1,0,-1
 294 0 l 1,1,-1
 269 0 l 1,2,-1
 0 714 l 1,3,-1
 28 714 l 1,4,-1
 244 143 l 2,5,6
 254 114 254 114 264 87 c 128,-1,7
 274 60 274 60 282 37 c 1,8,9
 290 60 290 60 298.5 84.5 c 128,-1,10
 307 109 307 109 320 143 c 2,11,-1
 535 714 l 1,12,-1
 563 714 l 1,0,-1
EndSplineSet
Substitution2: "'c2sc' Capitals to Small Capitals lookup 33 subtable" v.sc
EndChar

StartChar: W
Encoding: 87 87 58
Width: 869
GlyphClass: 2
Flags: W
AnchorPoint: "Anchor-3" 849 714 basechar 0
AnchorPoint: "Anchor-2" 435 714 basechar 0
AnchorPoint: "Anchor-0" 435 0 basechar 0
LayerCount: 2
Fore
SplineSet
839 714 m 1,0,-1
 641 0 l 1,1,-1
 617 0 l 1,2,-1
 456 582 l 2,3,4
 448 610 448 610 442.5 629 c 128,-1,5
 437 648 437 648 431 675 c 1,6,7
 426 650 426 650 423 635.5 c 128,-1,8
 420 621 420 621 415 604 c 2,9,-1
 252 0 l 1,10,-1
 228 0 l 1,11,-1
 33 714 l 1,12,-1
 60 714 l 1,13,-1
 208 170 l 2,14,15
 218 133 218 133 225.5 106.5 c 128,-1,16
 233 80 233 80 240 52 c 1,17,18
 247 80 247 80 253.5 107 c 128,-1,19
 260 134 260 134 271 171 c 2,20,-1
 420 714 l 1,21,-1
 445 714 l 1,22,-1
 598 168 l 2,23,24
 609 129 609 129 615.5 103.5 c 128,-1,25
 622 78 622 78 629 48 c 1,26,27
 635 78 635 78 641 103.5 c 128,-1,28
 647 129 647 129 658 168 c 2,29,-1
 812 714 l 1,30,-1
 839 714 l 1,0,-1
EndSplineSet
Substitution2: "'c2sc' Capitals to Small Capitals lookup 33 subtable" w.sc
EndChar

StartChar: X
Encoding: 88 88 59
Width: 509
GlyphClass: 2
Flags: W
AnchorPoint: "Anchor-3" 489 714 basechar 0
AnchorPoint: "Anchor-2" 255 714 basechar 0
AnchorPoint: "Anchor-0" 255 0 basechar 0
LayerCount: 2
Fore
SplineSet
512 0 m 1,0,-1
 481 0 l 1,1,-1
 256 350 l 1,2,-1
 28 0 l 1,3,-1
 -3 0 l 1,4,-1
 239 370 l 1,5,-1
 22 714 l 1,6,-1
 53 714 l 1,7,-1
 257 390 l 1,8,-1
 463 714 l 1,9,-1
 494 714 l 1,10,-1
 274 370 l 1,11,-1
 512 0 l 1,0,-1
EndSplineSet
Substitution2: "'c2sc' Capitals to Small Capitals lookup 33 subtable" x.sc
EndChar

StartChar: Y
Encoding: 89 89 60
Width: 505
GlyphClass: 2
Flags: W
AnchorPoint: "Anchor-3" 485 714 basechar 0
AnchorPoint: "Anchor-2" 253 714 basechar 0
AnchorPoint: "Anchor-0" 253 0 basechar 0
LayerCount: 2
Fore
SplineSet
253 301 m 1,0,-1
 475 714 l 1,1,-1
 505 714 l 1,2,-1
 267 275 l 1,3,-1
 267 0 l 1,4,-1
 241 0 l 1,5,-1
 241 271 l 1,6,-1
 0 714 l 1,7,-1
 30 714 l 1,8,-1
 253 301 l 1,0,-1
EndSplineSet
Substitution2: "'c2sc' Capitals to Small Capitals lookup 33 subtable" y.sc
EndChar

StartChar: Z
Encoding: 90 90 61
Width: 578
GlyphClass: 2
Flags: W
AnchorPoint: "Anchor-3" 558 714 basechar 0
AnchorPoint: "Anchor-2" 289 714 basechar 0
AnchorPoint: "Anchor-0" 289 0 basechar 0
LayerCount: 2
Fore
SplineSet
538 0 m 1,0,-1
 36 0 l 1,1,-1
 36 18 l 1,2,-1
 489 689 l 1,3,-1
 64 689 l 1,4,-1
 64 714 l 1,5,-1
 526 714 l 1,6,-1
 526 696 l 1,7,-1
 73 25 l 1,8,-1
 538 25 l 1,9,-1
 538 0 l 1,0,-1
EndSplineSet
Substitution2: "'c2sc' Capitals to Small Capitals lookup 33 subtable" z.sc
EndChar

StartChar: bracketleft
Encoding: 91 91 62
Width: 313
Flags: W
LayerCount: 2
Fore
SplineSet
288 -158 m 1,0,-1
 88 -158 l 1,1,-1
 88 714 l 1,2,-1
 288 714 l 1,3,-1
 288 689 l 1,4,-1
 113 689 l 1,5,-1
 113 -133 l 1,6,-1
 288 -133 l 1,7,-1
 288 -158 l 1,0,-1
EndSplineSet
Substitution2: "'smcp' Lowercase to Small Capitals lookup 34 subtable" bracketleft.sc
Substitution2: "'c2sc' Capitals to Small Capitals lookup 33 subtable" bracketleft.sc
EndChar

StartChar: backslash
Encoding: 92 92 63
Width: 322
Flags: W
LayerCount: 2
Fore
SplineSet
41 714 m 1,0,-1
 309 0 l 1,1,-1
 281 0 l 1,2,-1
 13 714 l 1,3,-1
 41 714 l 1,0,-1
EndSplineSet
EndChar

StartChar: bracketright
Encoding: 93 93 64
Width: 313
Flags: W
LayerCount: 2
Fore
SplineSet
25 -133 m 1,0,-1
 200 -133 l 1,1,-1
 200 689 l 1,2,-1
 25 689 l 1,3,-1
 25 714 l 1,4,-1
 225 714 l 1,5,-1
 225 -158 l 1,6,-1
 25 -158 l 1,7,-1
 25 -133 l 1,0,-1
EndSplineSet
Substitution2: "'smcp' Lowercase to Small Capitals lookup 34 subtable" bracketright.sc
Substitution2: "'c2sc' Capitals to Small Capitals lookup 33 subtable" bracketright.sc
EndChar

StartChar: asciicircum
Encoding: 94 94 65
Width: 570
Flags: W
LayerCount: 2
Fore
SplineSet
46 278 m 1,0,-1
 282 719 l 1,1,-1
 305 719 l 1,2,-1
 524 278 l 1,3,-1
 495 278 l 1,4,-1
 292 686 l 1,5,-1
 75 278 l 1,6,-1
 46 278 l 1,0,-1
EndSplineSet
EndChar

StartChar: underscore
Encoding: 95 95 66
Width: 391
Flags: W
LayerCount: 2
Fore
SplineSet
393 -116 m 1,0,-1
 -2 -116 l 1,1,-1
 -2 -91 l 1,2,-1
 393 -91 l 1,3,-1
 393 -116 l 1,0,-1
EndSplineSet
EndChar

StartChar: grave
Encoding: 96 96 67
Width: 249
Flags: W
LayerCount: 2
Fore
SplineSet
70 766 m 1,0,1
 84 744 84 744 108.5 716 c 128,-1,2
 133 688 133 688 159.5 660 c 128,-1,3
 186 632 186 632 209 612 c 1,4,-1
 209 606 l 1,5,-1
 188 606 l 1,6,7
 148 639 148 639 107 682 c 128,-1,8
 66 725 66 725 40 759 c 1,9,-1
 40 766 l 1,10,-1
 70 766 l 1,0,1
EndSplineSet
EndChar

StartChar: a
Encoding: 97 97 68
Width: 511
GlyphClass: 2
Flags: W
AnchorPoint: "Anchor-3" 491 528 basechar 0
AnchorPoint: "Anchor-2" 256 528 basechar 0
AnchorPoint: "Anchor-0" 256 0 basechar 0
LayerCount: 2
Fore
SplineSet
264 537 m 0,0,1
 346 537 346 537 387 492.5 c 128,-1,2
 428 448 428 448 428 350 c 2,3,-1
 428 0 l 1,4,-1
 406 0 l 1,5,-1
 402 103 l 1,6,-1
 400 103 l 1,7,8
 379 57 379 57 334 23.5 c 128,-1,9
 289 -10 289 -10 208 -10 c 0,10,11
 128 -10 128 -10 88 28 c 128,-1,12
 48 66 48 66 48 129 c 0,13,14
 48 208 48 208 114.5 247.5 c 128,-1,15
 181 287 181 287 299 294 c 2,16,-1
 402 300 l 1,17,-1
 402 343 l 2,18,19
 402 433 402 433 368 472.5 c 128,-1,20
 334 512 334 512 264 512 c 0,21,22
 224 512 224 512 186.5 503 c 128,-1,23
 149 494 149 494 106 472 c 1,24,-1
 97 498 l 1,25,26
 137 516 137 516 178.5 526.5 c 128,-1,27
 220 537 220 537 264 537 c 0,0,1
402 275 m 1,28,-1
 301 270 l 2,29,30
 199 265 199 265 137.5 232 c 128,-1,31
 76 199 76 199 76 129 c 0,32,33
 76 76 76 76 110 45.5 c 128,-1,34
 144 15 144 15 208 15 c 0,35,36
 308 15 308 15 354 72 c 128,-1,37
 400 129 400 129 402 220 c 2,38,-1
 402 275 l 1,28,-1
EndSplineSet
Substitution2: "'smcp' Lowercase to Small Capitals lookup 34 subtable" a.sc
Substitution2: "Single Substitution lookup 28 subtable" ordfeminine
EndChar

StartChar: b
Encoding: 98 98 69
Width: 583
GlyphClass: 2
Flags: W
AnchorPoint: "Anchor-3" 533 760 basechar 0
AnchorPoint: "Anchor-2" 292 760 basechar 0
AnchorPoint: "Anchor-0" 292 0 basechar 0
LayerCount: 2
Fore
SplineSet
115 760 m 1,0,-1
 115 525 l 2,1,2
 115 501 115 501 114.5 466 c 128,-1,3
 114 431 114 431 113 406 c 1,4,-1
 115 406 l 1,5,6
 132 464 132 464 183.5 501.5 c 128,-1,7
 235 539 235 539 311 539 c 0,8,9
 416 539 416 539 470 469.5 c 128,-1,10
 524 400 524 400 524 266 c 0,11,12
 524 190 524 190 500.5 127.5 c 128,-1,13
 477 65 477 65 426.5 27.5 c 128,-1,14
 376 -10 376 -10 295 -10 c 0,15,16
 224 -10 224 -10 179.5 22 c 128,-1,17
 135 54 135 54 117 104 c 1,18,-1
 115 104 l 1,19,-1
 111 0 l 1,20,-1
 89 0 l 1,21,-1
 89 760 l 1,22,-1
 115 760 l 1,0,-1
311 514 m 0,23,24
 211 514 211 514 163 447 c 128,-1,25
 115 380 115 380 115 263 c 2,26,-1
 115 253 l 2,27,28
 115 137 115 137 159.5 76 c 128,-1,29
 204 15 204 15 295 15 c 0,30,31
 394 15 394 15 445.5 80.5 c 128,-1,32
 497 146 497 146 497 266 c 0,33,34
 497 514 497 514 311 514 c 0,23,24
EndSplineSet
Substitution2: "'smcp' Lowercase to Small Capitals lookup 34 subtable" b.sc
EndChar

StartChar: c
Encoding: 99 99 70
Width: 472
GlyphClass: 2
Flags: W
AnchorPoint: "Anchor-3" 452 528 basechar 0
AnchorPoint: "Anchor-2" 306 528 basechar 0
AnchorPoint: "Anchor-0" 296 0 basechar 0
LayerCount: 2
Fore
SplineSet
302 -10 m 0,0,1
 218 -10 218 -10 164 25.5 c 128,-1,2
 110 61 110 61 84.5 122.5 c 128,-1,3
 59 184 59 184 59 261 c 0,4,5
 59 342 59 342 90.5 404.5 c 128,-1,6
 122 467 122 467 180 502.5 c 128,-1,7
 238 538 238 538 319 538 c 0,8,9
 355 538 355 538 384.5 532 c 128,-1,10
 414 526 414 526 442 514 c 1,11,-1
 437 489 l 1,12,13
 407 502 407 502 377.5 507.5 c 128,-1,14
 348 513 348 513 319 513 c 0,15,16
 247 513 247 513 194.5 481 c 128,-1,17
 142 449 142 449 114 392 c 128,-1,18
 86 335 86 335 86 261 c 0,19,20
 86 193 86 193 108.5 137 c 128,-1,21
 131 81 131 81 178.5 48 c 128,-1,22
 226 15 226 15 302 15 c 0,23,24
 338 15 338 15 373.5 22 c 128,-1,25
 409 29 409 29 438 41 c 1,26,-1
 438 16 l 1,27,28
 413 6 413 6 378 -2 c 128,-1,29
 343 -10 343 -10 302 -10 c 0,0,1
EndSplineSet
Substitution2: "'smcp' Lowercase to Small Capitals lookup 34 subtable" c.sc
EndChar

StartChar: d
Encoding: 100 100 71
Width: 583
GlyphClass: 2
Flags: W
AnchorPoint: "Anchor-3" 563 760 basechar 0
AnchorPoint: "Anchor-2" 292 760 basechar 0
AnchorPoint: "Anchor-1" 292 264 basechar 0
AnchorPoint: "Anchor-0" 292 0 basechar 0
LayerCount: 2
Fore
SplineSet
283 -10 m 0,0,1
 169 -10 169 -10 114 58 c 128,-1,2
 59 126 59 126 59 254 c 0,3,4
 59 391 59 391 118.5 464.5 c 128,-1,5
 178 538 178 538 291 538 c 0,6,7
 363 538 363 538 407.5 502 c 128,-1,8
 452 466 452 466 468 414 c 1,9,-1
 470 414 l 1,10,11
 468 448 468 448 468 480 c 128,-1,12
 468 512 468 512 468 543 c 2,13,-1
 468 760 l 1,14,-1
 494 760 l 1,15,-1
 494 0 l 1,16,-1
 472 0 l 1,17,-1
 470 113 l 1,18,-1
 468 113 l 1,19,20
 450 63 450 63 406 26.5 c 128,-1,21
 362 -10 362 -10 283 -10 c 0,0,1
283 15 m 0,22,23
 383 15 383 15 425.5 80.5 c 128,-1,24
 468 146 468 146 468 263 c 2,25,-1
 468 266 l 2,26,27
 468 386 468 386 424 449.5 c 128,-1,28
 380 513 380 513 291 513 c 0,29,30
 192 513 192 513 139 448.5 c 128,-1,31
 86 384 86 384 86 254 c 0,32,33
 86 134 86 134 134 74.5 c 128,-1,34
 182 15 182 15 283 15 c 0,22,23
EndSplineSet
Substitution2: "'smcp' Lowercase to Small Capitals lookup 34 subtable" d.sc
EndChar

StartChar: e
Encoding: 101 101 72
Width: 540
GlyphClass: 2
Flags: W
AnchorPoint: "Anchor-3" 520 528 basechar 0
AnchorPoint: "Anchor-2" 270 528 basechar 0
AnchorPoint: "Anchor-0" 270 0 basechar 0
LayerCount: 2
Fore
SplineSet
287 538 m 0,0,1
 354 538 354 538 396.5 505 c 128,-1,2
 439 472 439 472 459 416 c 128,-1,3
 479 360 479 360 479 291 c 2,4,-1
 479 266 l 1,5,-1
 86 266 l 1,6,7
 84 145 84 145 138.5 80 c 128,-1,8
 193 15 193 15 296 15 c 0,9,10
 344 15 344 15 378 22 c 128,-1,11
 412 29 412 29 459 50 c 1,12,-1
 459 23 l 1,13,14
 421 6 421 6 382.5 -2 c 128,-1,15
 344 -10 344 -10 296 -10 c 0,16,17
 213 -10 213 -10 160.5 25 c 128,-1,18
 108 60 108 60 83.5 121 c 128,-1,19
 59 182 59 182 59 259 c 0,20,21
 59 334 59 334 84 397.5 c 128,-1,22
 109 461 109 461 159.5 499.5 c 128,-1,23
 210 538 210 538 287 538 c 0,0,1
287 513 m 256,24,25
 203 513 203 513 149.5 456.5 c 128,-1,26
 96 400 96 400 87 291 c 1,27,-1
 452 291 l 1,28,29
 453 390 453 390 412 451.5 c 128,-1,30
 371 513 371 513 287 513 c 256,24,25
EndSplineSet
Substitution2: "'smcp' Lowercase to Small Capitals lookup 34 subtable" e.sc
EndChar

StartChar: f
Encoding: 102 102 73
Width: 274
GlyphClass: 2
Flags: W
AnchorPoint: "Anchor-3" 324 765 basechar 0
AnchorPoint: "Anchor-2" 217 765 basechar 0
AnchorPoint: "Anchor-0" 126 0 basechar 0
LayerCount: 2
Fore
SplineSet
258 503 m 1,0,-1
 139 503 l 1,1,-1
 139 0 l 1,2,-1
 113 0 l 1,3,-1
 113 503 l 1,4,-1
 11 503 l 1,5,-1
 11 525 l 1,6,-1
 113 528 l 1,7,-1
 113 603 l 2,8,9
 113 681 113 681 146.5 723 c 128,-1,10
 180 765 180 765 257 765 c 0,11,12
 282 765 282 765 301 761.5 c 128,-1,13
 320 758 320 758 339 753 c 1,14,-1
 335 727 l 1,15,16
 317 734 317 734 296.5 737 c 128,-1,17
 276 740 276 740 257 740 c 0,18,19
 193 740 193 740 166 708 c 128,-1,20
 139 676 139 676 139 603 c 2,21,-1
 139 528 l 1,22,-1
 258 528 l 1,23,-1
 258 503 l 1,0,-1
EndSplineSet
Substitution2: "'smcp' Lowercase to Small Capitals lookup 34 subtable" f.sc
EndChar

StartChar: g
Encoding: 103 103 74
Width: 583
GlyphClass: 2
Flags: W
AnchorPoint: "Anchor-3" 563 528 basechar 0
AnchorPoint: "Anchor-2" 292 528 basechar 0
AnchorPoint: "Anchor-0" 292 -240 basechar 0
LayerCount: 2
Fore
SplineSet
290 538 m 0,0,1
 363 538 363 538 402.5 509 c 128,-1,2
 442 480 442 480 463 437 c 1,3,-1
 465 437 l 1,4,-1
 470 528 l 1,5,-1
 492 528 l 1,6,-1
 492 -25 l 2,7,8
 492 -88 492 -88 470.5 -136.5 c 128,-1,9
 449 -185 449 -185 401 -212.5 c 128,-1,10
 353 -240 353 -240 273 -240 c 0,11,12
 212 -240 212 -240 167.5 -229 c 128,-1,13
 123 -218 123 -218 87 -203 c 1,14,-1
 87 -173 l 1,15,16
 123 -190 123 -190 170 -202.5 c 128,-1,17
 217 -215 217 -215 273 -215 c 0,18,19
 379 -215 379 -215 422.5 -163 c 128,-1,20
 466 -111 466 -111 466 -25 c 2,21,-1
 466 17 l 2,22,23
 466 46 466 46 466 67 c 128,-1,24
 466 88 466 88 468 117 c 1,25,-1
 466 117 l 1,26,27
 448 55 448 55 399 22.5 c 128,-1,28
 350 -10 350 -10 276 -10 c 0,29,30
 174 -10 174 -10 116.5 57.5 c 128,-1,31
 59 125 59 125 59 256 c 0,32,33
 59 386 59 386 116.5 462 c 128,-1,34
 174 538 174 538 290 538 c 0,0,1
290 513 m 0,35,36
 185 513 185 513 135.5 445 c 128,-1,37
 86 377 86 377 86 256 c 0,38,39
 86 138 86 138 135 76.5 c 128,-1,40
 184 15 184 15 276 15 c 0,41,42
 334 15 334 15 371.5 35.5 c 128,-1,43
 409 56 409 56 429.5 89.5 c 128,-1,44
 450 123 450 123 458 164 c 128,-1,45
 466 205 466 205 466 246 c 2,46,-1
 466 294 l 2,47,48
 466 356 466 356 450 406 c 128,-1,49
 434 456 434 456 396 484.5 c 128,-1,50
 358 513 358 513 290 513 c 0,35,36
EndSplineSet
Substitution2: "'smcp' Lowercase to Small Capitals lookup 34 subtable" g.sc
EndChar

StartChar: h
Encoding: 104 104 75
Width: 573
GlyphClass: 2
Flags: W
AnchorPoint: "Anchor-3" 553 760 basechar 0
AnchorPoint: "Anchor-2" 103 760 basechar 0
AnchorPoint: "Anchor-1" 287 264 basechar 0
AnchorPoint: "Anchor-0" 287 0 basechar 0
LayerCount: 2
Fore
SplineSet
116 760 m 1,0,-1
 116 496 l 2,1,2
 116 474 116 474 115.5 456.5 c 128,-1,3
 115 439 115 439 114 417 c 1,4,-1
 116 417 l 1,5,6
 126 448 126 448 150.5 476 c 128,-1,7
 175 504 175 504 214 521 c 128,-1,8
 253 538 253 538 309 538 c 0,9,10
 394 538 394 538 441.5 491 c 128,-1,11
 489 444 489 444 489 346 c 2,12,-1
 489 0 l 1,13,-1
 463 0 l 1,14,-1
 463 345 l 2,15,16
 463 433 463 433 422.5 473 c 128,-1,17
 382 513 382 513 309 513 c 0,18,19
 223 513 223 513 169.5 461.5 c 128,-1,20
 116 410 116 410 116 302 c 2,21,-1
 116 0 l 1,22,-1
 90 0 l 1,23,-1
 90 760 l 1,24,-1
 116 760 l 1,0,-1
EndSplineSet
Substitution2: "'smcp' Lowercase to Small Capitals lookup 34 subtable" h.sc
Substitution2: "'subs' Subscript lookup 18 subtable" uni2095
EndChar

StartChar: i
Encoding: 105 105 76
Width: 207
GlyphClass: 2
Flags: W
AnchorPoint: "Anchor-3" 187 721 basechar 0
AnchorPoint: "Anchor-2" 104 721 basechar 0
AnchorPoint: "Anchor-0" 104 0 basechar 0
LayerCount: 2
Fore
SplineSet
103 721 m 0,0,1
 121 721 121 721 125.5 711.5 c 128,-1,2
 130 702 130 702 130 690 c 0,3,4
 130 677 130 677 125.5 668 c 128,-1,5
 121 659 121 659 103 659 c 0,6,7
 88 659 88 659 83 668 c 128,-1,8
 78 677 78 677 78 690 c 0,9,10
 78 702 78 702 83 711.5 c 128,-1,11
 88 721 88 721 103 721 c 0,0,1
116 528 m 1,12,-1
 116 0 l 1,13,-1
 90 0 l 1,14,-1
 90 528 l 1,15,-1
 116 528 l 1,12,-1
EndSplineSet
Substitution2: "'smcp' Lowercase to Small Capitals lookup 34 subtable" i.sc
Substitution2: "Single Substitution lookup 5 subtable" dotlessi
Substitution2: "Single Substitution lookup 4 subtable" dotlessi
EndChar

StartChar: j
Encoding: 106 106 77
Width: 207
GlyphClass: 2
Flags: W
AnchorPoint: "Anchor-3" 187 721 basechar 0
AnchorPoint: "Anchor-2" 104 721 basechar 0
AnchorPoint: "Anchor-0" 11 -240 basechar 0
LayerCount: 2
Fore
SplineSet
78 690 m 0,0,1
 78 702 78 702 83 711.5 c 128,-1,2
 88 721 88 721 103 721 c 0,3,4
 121 721 121 721 125.5 711.5 c 128,-1,5
 130 702 130 702 130 690 c 0,6,7
 130 677 130 677 125.5 668 c 128,-1,8
 121 659 121 659 103 659 c 0,9,10
 88 659 88 659 83 668 c 128,-1,11
 78 677 78 677 78 690 c 0,0,1
11 -240 m 0,12,13
 -8 -240 -8 -240 -23 -237 c 128,-1,14
 -38 -234 -38 -234 -50 -230 c 1,15,-1
 -50 -204 l 1,16,17
 -35 -211 -35 -211 -19.5 -213 c 128,-1,18
 -4 -215 -4 -215 11 -215 c 0,19,20
 51 -215 51 -215 70.5 -188.5 c 128,-1,21
 90 -162 90 -162 90 -116 c 2,22,-1
 90 528 l 1,23,-1
 116 528 l 1,24,-1
 116 -120 l 2,25,26
 116 -181 116 -181 85 -210.5 c 128,-1,27
 54 -240 54 -240 11 -240 c 0,12,13
EndSplineSet
Substitution2: "'smcp' Lowercase to Small Capitals lookup 34 subtable" j.sc
Substitution2: "Single Substitution lookup 5 subtable" uni0237
Substitution2: "Single Substitution lookup 4 subtable" uni0237
EndChar

StartChar: k
Encoding: 107 107 78
Width: 454
GlyphClass: 2
Flags: W
AnchorPoint: "Anchor-3" 434 760 basechar 0
AnchorPoint: "Anchor-2" 104 760 basechar 0
AnchorPoint: "Anchor-0" 227 0 basechar 0
LayerCount: 2
Fore
SplineSet
116 760 m 1,0,-1
 116 385 l 2,1,2
 116 337 116 337 116 294 c 128,-1,3
 116 251 116 251 115 204 c 1,4,5
 132 223 132 223 144 236.5 c 128,-1,6
 156 250 156 250 172 268 c 2,7,-1
 405 528 l 1,8,-1
 439 528 l 1,9,-1
 234 301 l 1,10,-1
 459 0 l 1,11,-1
 428 0 l 1,12,-1
 216 283 l 1,13,-1
 116 172 l 1,14,-1
 116 0 l 1,15,-1
 90 0 l 1,16,-1
 90 760 l 1,17,-1
 116 760 l 1,0,-1
EndSplineSet
Substitution2: "'smcp' Lowercase to Small Capitals lookup 34 subtable" k.sc
Substitution2: "'subs' Subscript lookup 18 subtable" uni2096
EndChar

StartChar: l
Encoding: 108 108 79
Width: 281
GlyphClass: 2
Flags: W
AnchorPoint: "Anchor-0" 104 -4 basechar 0
AnchorPoint: "Anchor-2" 104 760 basechar 0
LayerCount: 2
Fore
SplineSet
195 -4 m 0,0,1
 91 -4 91 -4 91 122 c 2,2,-1
 91 760 l 1,3,-1
 117 760 l 1,4,-1
 117 131 l 2,5,6
 117 70 117 70 135 45.5 c 128,-1,7
 153 21 153 21 197 21 c 0,8,9
 201 21 201 21 214 23.5 c 128,-1,10
 227 26 227 26 236 29 c 1,11,-1
 236 3 l 1,12,13
 228 1 228 1 215 -1.5 c 128,-1,14
 202 -4 202 -4 195 -4 c 0,0,1
EndSplineSet
Substitution2: "'smcp' Lowercase to Small Capitals lookup 34 subtable" l.sc
Substitution2: "'subs' Subscript lookup 18 subtable" uni2097
EndChar

StartChar: m
Encoding: 109 109 80
Width: 852
GlyphClass: 2
Flags: W
AnchorPoint: "Anchor-3" 832 528 basechar 0
AnchorPoint: "Anchor-2" 426 528 basechar 0
AnchorPoint: "Anchor-0" 430 0 basechar 0
LayerCount: 2
Fore
SplineSet
614 538 m 0,0,1
 682 538 682 538 726 495 c 128,-1,2
 770 452 770 452 770 361 c 2,3,-1
 770 0 l 1,4,-1
 744 0 l 1,5,-1
 744 360 l 2,6,7
 744 440 744 440 706.5 476.5 c 128,-1,8
 669 513 669 513 614 513 c 0,9,10
 539 513 539 513 491 469.5 c 128,-1,11
 443 426 443 426 443 325 c 2,12,-1
 443 0 l 1,13,-1
 417 0 l 1,14,-1
 417 360 l 2,15,16
 417 440 417 440 379.5 476.5 c 128,-1,17
 342 513 342 513 287 513 c 0,18,19
 240 513 240 513 201.5 494 c 128,-1,20
 163 475 163 475 139.5 433.5 c 128,-1,21
 116 392 116 392 116 325 c 2,22,-1
 116 0 l 1,23,-1
 90 0 l 1,24,-1
 90 528 l 1,25,-1
 111 528 l 1,26,-1
 115 432 l 1,27,-1
 117 432 l 1,28,29
 128 456 128 456 148 480.5 c 128,-1,30
 168 505 168 505 202 521.5 c 128,-1,31
 236 538 236 538 287 538 c 0,32,33
 342 538 342 538 381 510 c 128,-1,34
 420 482 420 482 433 429 c 1,35,-1
 435 429 l 1,36,37
 454 478 454 478 498.5 508 c 128,-1,38
 543 538 543 538 614 538 c 0,0,1
EndSplineSet
Substitution2: "'smcp' Lowercase to Small Capitals lookup 34 subtable" m.sc
Substitution2: "'subs' Subscript lookup 18 subtable" uni2098
EndChar

StartChar: n
Encoding: 110 110 81
Width: 573
GlyphClass: 2
Flags: W
AnchorPoint: "Anchor-3" 553 528 basechar 0
AnchorPoint: "Anchor-2" 287 528 basechar 0
AnchorPoint: "Anchor-0" 287 0 basechar 0
LayerCount: 2
Fore
SplineSet
309 538 m 0,0,1
 394 538 394 538 441.5 491 c 128,-1,2
 489 444 489 444 489 346 c 2,3,-1
 489 0 l 1,4,-1
 463 0 l 1,5,-1
 463 345 l 2,6,7
 463 433 463 433 422.5 473 c 128,-1,8
 382 513 382 513 309 513 c 0,9,10
 223 513 223 513 169.5 461.5 c 128,-1,11
 116 410 116 410 116 302 c 2,12,-1
 116 0 l 1,13,-1
 90 0 l 1,14,-1
 90 528 l 1,15,-1
 111 528 l 1,16,-1
 115 417 l 1,17,-1
 117 417 l 1,18,19
 128 448 128 448 152 475.5 c 128,-1,20
 176 503 176 503 214.5 520.5 c 128,-1,21
 253 538 253 538 309 538 c 0,0,1
EndSplineSet
Substitution2: "'smcp' Lowercase to Small Capitals lookup 34 subtable" n.sc
Substitution2: "'sups' Superscript lookup 19 subtable" nsuperior
Substitution2: "'subs' Subscript lookup 18 subtable" uni2099
EndChar

StartChar: o
Encoding: 111 111 82
Width: 575
GlyphClass: 2
Flags: W
AnchorPoint: "Anchor-3" 555 528 basechar 0
AnchorPoint: "Anchor-2" 288 528 basechar 0
AnchorPoint: "Anchor-1" 288 264 basechar 0
AnchorPoint: "Anchor-0" 288 0 basechar 0
LayerCount: 2
Fore
SplineSet
515 264 m 0,0,1
 515 186 515 186 490.5 124 c 128,-1,2
 466 62 466 62 415 26 c 128,-1,3
 364 -10 364 -10 286 -10 c 0,4,5
 210 -10 210 -10 159.5 26 c 128,-1,6
 109 62 109 62 84 124 c 128,-1,7
 59 186 59 186 59 264 c 0,8,9
 59 390 59 390 120.5 464 c 128,-1,10
 182 538 182 538 292 538 c 0,11,12
 372 538 372 538 421 501.5 c 128,-1,13
 470 465 470 465 492.5 402.5 c 128,-1,14
 515 340 515 340 515 264 c 0,0,1
86 264 m 0,15,16
 86 190 86 190 108 134 c 128,-1,17
 130 78 130 78 174 46.5 c 128,-1,18
 218 15 218 15 286 15 c 0,19,20
 356 15 356 15 400.5 47 c 128,-1,21
 445 79 445 79 466.5 135.5 c 128,-1,22
 488 192 488 192 488 264 c 0,23,24
 488 333 488 333 468.5 389.5 c 128,-1,25
 449 446 449 446 405.5 479.5 c 128,-1,26
 362 513 362 513 292 513 c 0,27,28
 193 513 193 513 139.5 447 c 128,-1,29
 86 381 86 381 86 264 c 0,15,16
EndSplineSet
Substitution2: "'smcp' Lowercase to Small Capitals lookup 34 subtable" o.sc
Substitution2: "Single Substitution lookup 28 subtable" ordmasculine
EndChar

StartChar: p
Encoding: 112 112 83
Width: 583
GlyphClass: 2
Flags: W
AnchorPoint: "Anchor-3" 563 528 basechar 0
AnchorPoint: "Anchor-2" 292 528 basechar 0
AnchorPoint: "Anchor-0" 104 -232 basechar 0
LayerCount: 2
Fore
SplineSet
313 538 m 0,0,1
 418 538 418 538 472 469.5 c 128,-1,2
 526 401 526 401 526 269 c 0,3,4
 526 136 526 136 467.5 63 c 128,-1,5
 409 -10 409 -10 303 -10 c 0,6,7
 224 -10 224 -10 179 27 c 128,-1,8
 134 64 134 64 117 116 c 1,9,-1
 115 116 l 1,10,11
 116 82 116 82 116.5 49 c 128,-1,12
 117 16 117 16 117 -15 c 2,13,-1
 117 -232 l 1,14,-1
 91 -232 l 1,15,-1
 91 528 l 1,16,-1
 113 528 l 1,17,-1
 115 402 l 1,18,-1
 117 402 l 1,19,20
 128 437 128 437 153 468 c 128,-1,21
 178 499 178 499 218 518.5 c 128,-1,22
 258 538 258 538 313 538 c 0,0,1
313 513 m 0,23,24
 217 513 217 513 167 447.5 c 128,-1,25
 117 382 117 382 117 265 c 2,26,-1
 117 262 l 2,27,28
 117 134 117 134 167.5 74.5 c 128,-1,29
 218 15 218 15 303 15 c 0,30,31
 395 15 395 15 447 79 c 128,-1,32
 499 143 499 143 499 269 c 0,33,34
 499 393 499 393 451.5 453 c 128,-1,35
 404 513 404 513 313 513 c 0,23,24
EndSplineSet
Substitution2: "'smcp' Lowercase to Small Capitals lookup 34 subtable" p.sc
Substitution2: "'subs' Subscript lookup 18 subtable" uni209A
EndChar

StartChar: q
Encoding: 113 113 84
Width: 583
GlyphClass: 2
Flags: W
AnchorPoint: "Anchor-3" 563 528 basechar 0
AnchorPoint: "Anchor-2" 292 528 basechar 0
AnchorPoint: "Anchor-0" 478 -232 basechar 0
LayerCount: 2
Fore
SplineSet
465 -232 m 1,0,-1
 465 3 l 2,1,2
 465 27 465 27 465.5 62 c 128,-1,3
 466 97 466 97 467 122 c 1,4,-1
 465 122 l 1,5,6
 448 64 448 64 396.5 26.5 c 128,-1,7
 345 -11 345 -11 269 -11 c 0,8,9
 164 -11 164 -11 110 58.5 c 128,-1,10
 56 128 56 128 56 262 c 0,11,12
 56 338 56 338 79.5 400.5 c 128,-1,13
 103 463 103 463 153.5 500.5 c 128,-1,14
 204 538 204 538 285 538 c 0,15,16
 356 538 356 538 401 504.5 c 128,-1,17
 446 471 446 471 463 424 c 1,18,-1
 465 424 l 1,19,-1
 469 528 l 1,20,-1
 491 528 l 1,21,-1
 491 -232 l 1,22,-1
 465 -232 l 1,0,-1
269 14 m 0,23,24
 370 14 370 14 417.5 81 c 128,-1,25
 465 148 465 148 465 265 c 2,26,-1
 465 275 l 2,27,28
 465 391 465 391 420.5 452 c 128,-1,29
 376 513 376 513 285 513 c 0,30,31
 186 513 186 513 134.5 447.5 c 128,-1,32
 83 382 83 382 83 262 c 0,33,34
 83 14 83 14 269 14 c 0,23,24
EndSplineSet
Substitution2: "'smcp' Lowercase to Small Capitals lookup 34 subtable" q.sc
EndChar

StartChar: r
Encoding: 114 114 85
Width: 375
GlyphClass: 2
Flags: W
AnchorPoint: "Anchor-3" 355 528 basechar 0
AnchorPoint: "Anchor-2" 188 528 basechar 0
AnchorPoint: "Anchor-0" 104 0 basechar 0
LayerCount: 2
Fore
SplineSet
278 536 m 0,0,1
 302 536 302 536 321.5 533 c 128,-1,2
 341 530 341 530 359 525 c 1,3,-1
 353 501 l 1,4,5
 334 506 334 506 317 508.5 c 128,-1,6
 300 511 300 511 278 511 c 0,7,8
 195 511 195 511 156 453 c 128,-1,9
 117 395 117 395 117 297 c 2,10,-1
 117 0 l 1,11,-1
 91 0 l 1,12,-1
 91 528 l 1,13,-1
 115 528 l 1,14,-1
 117 427 l 1,15,-1
 119 427 l 1,16,17
 133 473 133 473 173.5 504.5 c 128,-1,18
 214 536 214 536 278 536 c 0,0,1
EndSplineSet
Substitution2: "'smcp' Lowercase to Small Capitals lookup 34 subtable" r.sc
EndChar

StartChar: s
Encoding: 115 115 86
Width: 458
GlyphClass: 2
Flags: W
AnchorPoint: "Anchor-3" 438 528 basechar 0
AnchorPoint: "Anchor-2" 229 528 basechar 0
AnchorPoint: "Anchor-0" 229 0 basechar 0
LayerCount: 2
Fore
SplineSet
411 134 m 0,0,1
 411 67 411 67 361.5 28.5 c 128,-1,2
 312 -10 312 -10 213 -10 c 0,3,4
 158 -10 158 -10 113 0.5 c 128,-1,5
 68 11 68 11 39 24 c 1,6,-1
 39 54 l 1,7,8
 118 15 118 15 213 15 c 0,9,10
 304 15 304 15 344 46.5 c 128,-1,11
 384 78 384 78 384 134 c 0,12,13
 384 173 384 173 362.5 196.5 c 128,-1,14
 341 220 341 220 304.5 234.5 c 128,-1,15
 268 249 268 249 224 262 c 0,16,17
 178 276 178 276 139.5 290.5 c 128,-1,18
 101 305 101 305 78.5 331.5 c 128,-1,19
 56 358 56 358 56 407 c 0,20,21
 56 468 56 468 105 503 c 128,-1,22
 154 538 154 538 238 538 c 0,23,24
 285 538 285 538 325.5 529.5 c 128,-1,25
 366 521 366 521 398 508 c 1,26,-1
 387 483 l 1,27,28
 359 496 359 496 318.5 504.5 c 128,-1,29
 278 513 278 513 238 513 c 0,30,31
 166 513 166 513 124.5 486.5 c 128,-1,32
 83 460 83 460 83 407 c 0,33,34
 83 366 83 366 103.5 344.5 c 128,-1,35
 124 323 124 323 158 311 c 128,-1,36
 192 299 192 299 233 286 c 0,37,38
 277 272 277 272 318 256 c 128,-1,39
 359 240 359 240 385 212 c 128,-1,40
 411 184 411 184 411 134 c 0,0,1
EndSplineSet
Substitution2: "'smcp' Lowercase to Small Capitals lookup 34 subtable" s.sc
Substitution2: "'subs' Subscript lookup 18 subtable" uni209B
EndChar

StartChar: t
Encoding: 116 116 87
Width: 319
GlyphClass: 2
Flags: W
AnchorPoint: "Anchor-3" 299 659 basechar 0
AnchorPoint: "Anchor-2" 109 659 basechar 0
AnchorPoint: "Anchor-1" 160 264 basechar 0
AnchorPoint: "Anchor-0" 191 0 basechar 0
LayerCount: 2
Fore
SplineSet
212 15 m 0,0,1
 237 15 237 15 255.5 18.5 c 128,-1,2
 274 22 274 22 291 28 c 1,3,-1
 291 3 l 1,4,5
 274 -2 274 -2 256 -6 c 128,-1,6
 238 -10 238 -10 212 -10 c 0,7,8
 142 -10 142 -10 116.5 30 c 128,-1,9
 91 70 91 70 91 140 c 2,10,-1
 91 503 l 1,11,-1
 10 503 l 1,12,-1
 10 525 l 1,13,-1
 90 528 l 1,14,-1
 96 659 l 1,15,-1
 117 659 l 1,16,-1
 117 528 l 1,17,-1
 289 528 l 1,18,-1
 289 503 l 1,19,-1
 117 503 l 1,20,-1
 117 143 l 2,21,22
 117 82 117 82 136.5 48.5 c 128,-1,23
 156 15 156 15 212 15 c 0,0,1
EndSplineSet
Substitution2: "'smcp' Lowercase to Small Capitals lookup 34 subtable" t.sc
Substitution2: "'subs' Subscript lookup 18 subtable" uni209C
EndChar

StartChar: u
Encoding: 117 117 88
Width: 573
GlyphClass: 2
Flags: W
AnchorPoint: "Anchor-3" 553 528 basechar 0
AnchorPoint: "Anchor-2" 287 528 basechar 0
AnchorPoint: "Anchor-0" 287 0 basechar 0
LayerCount: 2
Fore
SplineSet
481 528 m 1,0,-1
 481 0 l 1,1,-1
 460 0 l 1,2,-1
 456 111 l 1,3,-1
 454 111 l 1,4,5
 442 80 442 80 418.5 52.5 c 128,-1,6
 395 25 395 25 356.5 7.5 c 128,-1,7
 318 -10 318 -10 262 -10 c 0,8,9
 174 -10 174 -10 128 39 c 128,-1,10
 82 88 82 88 82 182 c 2,11,-1
 82 528 l 1,12,-1
 108 528 l 1,13,-1
 108 186 l 2,14,15
 108 98 108 98 148 56.5 c 128,-1,16
 188 15 188 15 262 15 c 0,17,18
 348 15 348 15 401.5 66.5 c 128,-1,19
 455 118 455 118 455 226 c 2,20,-1
 455 528 l 1,21,-1
 481 528 l 1,0,-1
EndSplineSet
Substitution2: "'smcp' Lowercase to Small Capitals lookup 34 subtable" u.sc
EndChar

StartChar: v
Encoding: 118 118 89
Width: 430
GlyphClass: 2
Flags: W
AnchorPoint: "Anchor-3" 410 528 basechar 0
AnchorPoint: "Anchor-2" 215 528 basechar 0
AnchorPoint: "Anchor-0" 215 0 basechar 0
LayerCount: 2
Fore
SplineSet
204 0 m 1,0,-1
 0 528 l 1,1,-1
 27 528 l 1,2,-1
 177 138 l 2,3,4
 190 106 190 106 198 83.5 c 128,-1,5
 206 61 206 61 214 36 c 1,6,-1
 216 36 l 1,7,8
 225 61 225 61 232.5 83.5 c 128,-1,9
 240 106 240 106 253 138 c 2,10,-1
 403 528 l 1,11,-1
 430 528 l 1,12,-1
 226 0 l 1,13,-1
 204 0 l 1,0,-1
EndSplineSet
Substitution2: "'smcp' Lowercase to Small Capitals lookup 34 subtable" v.sc
EndChar

StartChar: w
Encoding: 119 119 90
Width: 685
GlyphClass: 2
Flags: W
AnchorPoint: "Anchor-3" 665 528 basechar 0
AnchorPoint: "Anchor-2" 343 528 basechar 0
AnchorPoint: "Anchor-0" 343 0 basechar 0
LayerCount: 2
Fore
SplineSet
506 -1 m 1,0,-1
 380 388 l 2,1,2
 372 414 372 414 365 434.5 c 128,-1,3
 358 455 358 455 351 482 c 1,4,-1
 349 482 l 1,5,6
 335 432 335 432 320 388 c 2,7,-1
 191 -1 l 1,8,-1
 169 -1 l 1,9,-1
 16 527 l 1,10,-1
 45 527 l 1,11,-1
 150 156 l 2,12,13
 163 110 163 110 169 87 c 128,-1,14
 175 64 175 64 180 41 c 1,15,-1
 182 41 l 1,16,17
 188 64 188 64 194.5 87 c 128,-1,18
 201 110 201 110 216 156 c 2,19,-1
 341 527 l 1,20,-1
 362 527 l 1,21,-1
 481 157 l 2,22,23
 504 84 504 84 515 41 c 1,24,-1
 517 41 l 1,25,26
 520 64 520 64 526.5 88.5 c 128,-1,27
 533 113 533 113 544 156 c 2,28,-1
 643 527 l 1,29,-1
 669 527 l 1,30,-1
 528 -1 l 1,31,-1
 506 -1 l 1,0,-1
EndSplineSet
Substitution2: "'smcp' Lowercase to Small Capitals lookup 34 subtable" w.sc
EndChar

StartChar: x
Encoding: 120 120 91
Width: 479
GlyphClass: 2
Flags: W
AnchorPoint: "Anchor-3" 459 528 basechar 0
AnchorPoint: "Anchor-2" 240 528 basechar 0
AnchorPoint: "Anchor-0" 240 0 basechar 0
LayerCount: 2
Fore
SplineSet
219 272 m 1,0,-1
 34 528 l 1,1,-1
 67 528 l 1,2,-1
 236 290 l 1,3,-1
 405 528 l 1,4,-1
 437 528 l 1,5,-1
 254 272 l 1,6,-1
 449 0 l 1,7,-1
 417 0 l 1,8,-1
 236 253 l 1,9,-1
 57 0 l 1,10,-1
 26 0 l 1,11,-1
 219 272 l 1,0,-1
EndSplineSet
Substitution2: "'smcp' Lowercase to Small Capitals lookup 34 subtable" x.sc
EndChar

StartChar: y
Encoding: 121 121 92
Width: 428
GlyphClass: 2
Flags: W
AnchorPoint: "Anchor-3" 408 528 basechar 0
AnchorPoint: "Anchor-2" 214 528 basechar 0
AnchorPoint: "Anchor-0" 50 -243 basechar 0
LayerCount: 2
Fore
SplineSet
0 528 m 1,0,-1
 27 528 l 1,1,-1
 164 172 l 2,2,3
 182 124 182 124 194 91 c 128,-1,4
 206 58 206 58 214 37 c 1,5,-1
 216 37 l 1,6,7
 224 59 224 59 235.5 91 c 128,-1,8
 247 123 247 123 264 168 c 2,9,-1
 403 528 l 1,10,-1
 430 528 l 1,11,-1
 181 -115 l 2,12,13
 156 -180 156 -180 126.5 -211.5 c 128,-1,14
 97 -243 97 -243 48 -243 c 0,15,16
 21 -243 21 -243 -6 -233 c 1,17,-1
 -6 -207 l 1,18,19
 8 -212 8 -212 20 -215 c 128,-1,20
 32 -218 32 -218 48 -218 c 0,21,22
 86 -218 86 -218 110.5 -192 c 128,-1,23
 135 -166 135 -166 160 -102 c 2,24,-1
 201 6 l 1,25,-1
 0 528 l 1,0,-1
EndSplineSet
Substitution2: "'smcp' Lowercase to Small Capitals lookup 34 subtable" y.sc
EndChar

StartChar: z
Encoding: 122 122 93
Width: 456
GlyphClass: 2
Flags: W
AnchorPoint: "Anchor-3" 436 528 basechar 0
AnchorPoint: "Anchor-2" 228 528 basechar 0
AnchorPoint: "Anchor-0" 228 0 basechar 0
LayerCount: 2
Fore
SplineSet
412 0 m 1,0,-1
 41 0 l 1,1,-1
 41 17 l 1,2,-1
 377 503 l 1,3,-1
 68 503 l 1,4,-1
 68 528 l 1,5,-1
 415 528 l 1,6,-1
 415 513 l 1,7,-1
 77 25 l 1,8,-1
 412 25 l 1,9,-1
 412 0 l 1,0,-1
EndSplineSet
Substitution2: "'smcp' Lowercase to Small Capitals lookup 34 subtable" z.sc
EndChar

StartChar: braceleft
Encoding: 123 123 94
Width: 337
Flags: W
LayerCount: 2
Fore
SplineSet
300 -158 m 1,0,1
 218 -158 218 -158 177 -123 c 128,-1,2
 136 -88 136 -88 136 -23 c 2,3,-1
 136 148 l 2,4,5
 136 210 136 210 111 238 c 128,-1,6
 86 266 86 266 26 266 c 1,7,-1
 26 290 l 1,8,9
 86 290 86 290 111 317 c 128,-1,10
 136 344 136 344 136 408 c 2,11,-1
 136 579 l 2,12,13
 136 644 136 644 177 679 c 128,-1,14
 218 714 218 714 300 714 c 1,15,-1
 300 689 l 1,16,17
 229 689 229 689 196 661.5 c 128,-1,18
 163 634 163 634 163 573 c 2,19,-1
 163 404 l 2,20,21
 163 353 163 353 145.5 320 c 128,-1,22
 128 287 128 287 84 279 c 1,23,-1
 84 277 l 1,24,25
 128 269 128 269 145.5 236 c 128,-1,26
 163 203 163 203 163 152 c 2,27,-1
 163 -20 l 2,28,29
 163 -78 163 -78 196 -105.5 c 128,-1,30
 229 -133 229 -133 300 -133 c 1,31,-1
 300 -158 l 1,0,1
EndSplineSet
Substitution2: "'smcp' Lowercase to Small Capitals lookup 34 subtable" braceleft.sc
Substitution2: "'c2sc' Capitals to Small Capitals lookup 33 subtable" braceleft.sc
EndChar

StartChar: bar
Encoding: 124 124 95
Width: 535
Flags: W
LayerCount: 2
Fore
SplineSet
253 763 m 1,0,-1
 278 763 l 1,1,-1
 278 -251 l 1,2,-1
 253 -251 l 1,3,-1
 253 763 l 1,0,-1
EndSplineSet
EndChar

StartChar: braceright
Encoding: 125 125 96
Width: 337
Flags: W
LayerCount: 2
Fore
SplineSet
36 -158 m 1,0,-1
 36 -133 l 1,1,2
 107 -133 107 -133 140 -105.5 c 128,-1,3
 173 -78 173 -78 173 -20 c 2,4,-1
 173 152 l 2,5,6
 173 203 173 203 190.5 236 c 128,-1,7
 208 269 208 269 252 277 c 1,8,-1
 252 279 l 1,9,10
 208 287 208 287 190.5 320 c 128,-1,11
 173 353 173 353 173 404 c 2,12,-1
 173 573 l 2,13,14
 173 634 173 634 140 661.5 c 128,-1,15
 107 689 107 689 36 689 c 1,16,-1
 36 714 l 1,17,18
 118 714 118 714 159 679 c 128,-1,19
 200 644 200 644 200 579 c 2,20,-1
 200 408 l 2,21,22
 200 344 200 344 225 317 c 128,-1,23
 250 290 250 290 310 290 c 1,24,-1
 310 266 l 1,25,26
 250 266 250 266 225 238 c 128,-1,27
 200 210 200 210 200 148 c 2,28,-1
 200 -23 l 2,29,30
 200 -88 200 -88 159 -123 c 128,-1,31
 118 -158 118 -158 36 -158 c 1,0,-1
EndSplineSet
Substitution2: "'smcp' Lowercase to Small Capitals lookup 34 subtable" braceright.sc
Substitution2: "'c2sc' Capitals to Small Capitals lookup 33 subtable" braceright.sc
EndChar

StartChar: asciitilde
Encoding: 126 126 97
Width: 570
Flags: W
LayerCount: 2
Fore
SplineSet
282 342 m 0,0,1
 255 356 255 356 231.5 364.5 c 128,-1,2
 208 373 208 373 173 373 c 0,3,4
 144 373 144 373 114 360.5 c 128,-1,5
 84 348 84 348 56 318 c 1,6,-1
 56 349 l 1,7,8
 78 371 78 371 109 384 c 128,-1,9
 140 397 140 397 173 397 c 0,10,11
 215 397 215 397 240.5 387.5 c 128,-1,12
 266 378 266 378 295 364 c 0,13,14
 322 350 322 350 345.5 341.5 c 128,-1,15
 369 333 369 333 400 333 c 0,16,17
 427 333 427 333 455.5 344.5 c 128,-1,18
 484 356 484 356 514 387 c 1,19,-1
 514 358 l 1,20,21
 495 338 495 338 465.5 323.5 c 128,-1,22
 436 309 436 309 400 309 c 256,23,24
 364 309 364 309 338 318 c 128,-1,25
 312 327 312 327 282 342 c 0,0,1
EndSplineSet
EndChar

StartChar: exclamdown
Encoding: 161 161 99
Width: 223
Flags: W
LayerCount: 2
Fore
SplineSet
137 505 m 0,0,1
 137 493 137 493 132 483.5 c 128,-1,2
 127 474 127 474 112 474 c 0,3,4
 94 474 94 474 89.5 483.5 c 128,-1,5
 85 493 85 493 85 505 c 0,6,7
 85 518 85 518 89.5 527 c 128,-1,8
 94 536 94 536 112 536 c 0,9,10
 127 536 127 536 132 527 c 128,-1,11
 137 518 137 518 137 505 c 0,0,1
98 354 m 1,12,-1
 122 354 l 1,13,-1
 124 -186 l 1,14,-1
 96 -186 l 1,15,-1
 98 354 l 1,12,-1
EndSplineSet
Substitution2: "'smcp' Lowercase to Small Capitals lookup 34 subtable" exclamdown.sc
Substitution2: "'c2sc' Capitals to Small Capitals lookup 33 subtable" exclamdown.sc
EndChar

StartChar: cent
Encoding: 162 162 100
Width: 570
Flags: W
LayerCount: 2
Fore
SplineSet
338 724 m 1,0,-1
 338 638 l 1,1,2
 378 638 378 638 408 632.5 c 128,-1,3
 438 627 438 627 468 614 c 1,4,-1
 463 589 l 1,5,6
 433 602 433 602 403.5 607.5 c 128,-1,7
 374 613 374 613 345 613 c 0,8,9
 273 613 273 613 220.5 581 c 128,-1,10
 168 549 168 549 140 492 c 128,-1,11
 112 435 112 435 112 361 c 0,12,13
 112 293 112 293 134.5 237 c 128,-1,14
 157 181 157 181 204.5 148 c 128,-1,15
 252 115 252 115 328 115 c 0,16,17
 364 115 364 115 399.5 122 c 128,-1,18
 435 129 435 129 464 141 c 1,19,-1
 464 116 l 1,20,21
 441 106 441 106 408.5 98.5 c 128,-1,22
 376 91 376 91 338 90 c 1,23,-1
 338 -10 l 1,24,-1
 313 -10 l 1,25,-1
 313 90 l 1,26,27
 234 94 234 94 183.5 130 c 128,-1,28
 133 166 133 166 109 226 c 128,-1,29
 85 286 85 286 85 361 c 256,30,31
 85 436 85 436 112 495.5 c 128,-1,32
 139 555 139 555 190 592 c 128,-1,33
 241 629 241 629 313 636 c 1,34,-1
 313 724 l 1,35,-1
 338 724 l 1,0,-1
EndSplineSet
EndChar

StartChar: sterling
Encoding: 163 163 101
Width: 570
Flags: W
LayerCount: 2
Fore
SplineSet
344 723 m 0,0,1
 391 723 391 723 426.5 714.5 c 128,-1,2
 462 706 462 706 491 694 c 1,3,-1
 482 669 l 1,4,5
 449 682 449 682 417.5 690 c 128,-1,6
 386 698 386 698 344 698 c 0,7,8
 267 698 267 698 229 652.5 c 128,-1,9
 191 607 191 607 191 512 c 2,10,-1
 191 360 l 1,11,-1
 390 360 l 1,12,-1
 390 335 l 1,13,-1
 191 335 l 1,14,-1
 191 188 l 2,15,16
 191 118 191 118 168.5 80 c 128,-1,17
 146 42 146 42 111 25 c 1,18,-1
 518 25 l 1,19,-1
 518 0 l 1,20,-1
 42 0 l 1,21,-1
 42 23 l 1,22,23
 103 34 103 34 134 74 c 128,-1,24
 165 114 165 114 165 187 c 2,25,-1
 165 335 l 1,26,-1
 58 335 l 1,27,-1
 58 360 l 1,28,-1
 165 360 l 1,29,-1
 165 516 l 2,30,31
 165 620 165 620 211 671.5 c 128,-1,32
 257 723 257 723 344 723 c 0,0,1
EndSplineSet
EndChar

StartChar: currency
Encoding: 164 164 102
Width: 570
Flags: W
LayerCount: 2
Fore
SplineSet
84 354 m 256,0,1
 84 390 84 390 96.5 425 c 128,-1,2
 109 460 109 460 134 488 c 1,3,-1
 57 566 l 1,4,-1
 72 582 l 1,5,-1
 150 504 l 1,6,7
 178 530 178 530 213 542.5 c 128,-1,8
 248 555 248 555 284 555 c 256,9,10
 320 555 320 555 355 542.5 c 128,-1,11
 390 530 390 530 419 504 c 1,12,-1
 496 581 l 1,13,-1
 511 565 l 1,14,-1
 434 488 l 1,15,16
 460 460 460 460 472.5 425 c 128,-1,17
 485 390 485 390 485 354 c 256,18,19
 485 318 485 318 472.5 283 c 128,-1,20
 460 248 460 248 434 220 c 1,21,-1
 512 142 l 1,22,-1
 496 126 l 1,23,-1
 419 204 l 1,24,25
 390 178 390 178 355 165.5 c 128,-1,26
 320 153 320 153 284 153 c 256,27,28
 248 153 248 153 213 165.5 c 128,-1,29
 178 178 178 178 150 204 c 1,30,-1
 72 126 l 1,31,-1
 57 142 l 1,32,-1
 134 220 l 1,33,34
 109 248 109 248 96.5 283 c 128,-1,35
 84 318 84 318 84 354 c 256,0,1
106 354 m 0,36,37
 106 303 106 303 130.5 262.5 c 128,-1,38
 155 222 155 222 195.5 198.5 c 128,-1,39
 236 175 236 175 283 175 c 0,40,41
 332 175 332 175 373 199.5 c 128,-1,42
 414 224 414 224 438.5 265 c 128,-1,43
 463 306 463 306 463 355 c 256,44,45
 463 404 463 404 438.5 444 c 128,-1,46
 414 484 414 484 374 508.5 c 128,-1,47
 334 533 334 533 285 533 c 256,48,49
 236 533 236 533 195.5 509 c 128,-1,50
 155 485 155 485 130.5 444.5 c 128,-1,51
 106 404 106 404 106 354 c 0,36,37
EndSplineSet
EndChar

StartChar: yen
Encoding: 165 165 103
Width: 570
Flags: W
LayerCount: 2
Fore
SplineSet
286 336 m 1,0,-1
 514 714 l 1,1,-1
 545 714 l 1,2,-1
 306 323 l 1,3,-1
 474 323 l 1,4,-1
 474 298 l 1,5,-1
 299 298 l 1,6,-1
 299 187 l 1,7,-1
 474 187 l 1,8,-1
 474 162 l 1,9,-1
 299 162 l 1,10,-1
 299 0 l 1,11,-1
 273 0 l 1,12,-1
 273 162 l 1,13,-1
 97 162 l 1,14,-1
 97 187 l 1,15,-1
 273 187 l 1,16,-1
 273 298 l 1,17,-1
 97 298 l 1,18,-1
 97 323 l 1,19,-1
 264 323 l 1,20,-1
 25 714 l 1,21,-1
 56 714 l 1,22,-1
 286 336 l 1,0,-1
EndSplineSet
EndChar

StartChar: brokenbar
Encoding: 166 166 104
Width: 535
Flags: W
LayerCount: 2
Fore
SplineSet
253 763 m 1,0,-1
 278 763 l 1,1,-1
 278 395 l 1,2,-1
 253 395 l 1,3,-1
 253 763 l 1,0,-1
253 118 m 1,4,-1
 278 118 l 1,5,-1
 278 -251 l 1,6,-1
 253 -251 l 1,7,-1
 253 118 l 1,4,-1
EndSplineSet
EndChar

StartChar: section
Encoding: 167 167 105
Width: 518
Flags: W
LayerCount: 2
Fore
SplineSet
82 395 m 0,0,1
 82 444 82 444 112 475 c 128,-1,2
 142 506 142 506 190 522 c 1,3,4
 146 538 146 538 117 561.5 c 128,-1,5
 88 585 88 585 88 633 c 0,6,7
 88 692 88 692 135 725.5 c 128,-1,8
 182 759 182 759 263 759 c 0,9,10
 308 759 308 759 347 751 c 128,-1,11
 386 743 386 743 417 730 c 1,12,-1
 406 706 l 1,13,14
 379 720 379 720 340 727.5 c 128,-1,15
 301 735 301 735 263 735 c 0,16,17
 193 735 193 735 153.5 709.5 c 128,-1,18
 114 684 114 684 114 633 c 0,19,20
 114 598 114 598 134 580 c 128,-1,21
 154 562 154 562 186.5 551 c 128,-1,22
 219 540 219 540 258 527 c 0,23,24
 300 514 300 514 339.5 498.5 c 128,-1,25
 379 483 379 483 404 456.5 c 128,-1,26
 429 430 429 430 429 381 c 0,27,28
 429 333 429 333 403 298.5 c 128,-1,29
 377 264 377 264 337 244 c 1,30,31
 374 228 374 228 398.5 203 c 128,-1,32
 423 178 423 178 423 133 c 0,33,34
 423 72 423 72 375.5 35.5 c 128,-1,35
 328 -1 328 -1 233 -1 c 0,36,37
 180 -1 180 -1 136.5 9.5 c 128,-1,38
 93 20 93 20 65 32 c 1,39,-1
 65 61 l 1,40,41
 143 23 143 23 233 23 c 0,42,43
 320 23 320 23 358.5 53.5 c 128,-1,44
 397 84 397 84 397 133 c 0,45,46
 397 168 397 168 376 189.5 c 128,-1,47
 355 211 355 211 320.5 224.5 c 128,-1,48
 286 238 286 238 243 251 c 0,49,50
 198 264 198 264 161.5 279.5 c 128,-1,51
 125 295 125 295 103.5 321.5 c 128,-1,52
 82 348 82 348 82 395 c 0,0,1
108 395 m 0,53,54
 108 356 108 356 127.5 334 c 128,-1,55
 147 312 147 312 179.5 299 c 128,-1,56
 212 286 212 286 251 274 c 2,57,-1
 311 255 l 1,58,59
 353 272 353 272 378 305 c 128,-1,60
 403 338 403 338 403 381 c 0,61,62
 403 436 403 436 356.5 463 c 128,-1,63
 310 490 310 490 225 511 c 1,64,65
 176 498 176 498 142 471 c 128,-1,66
 108 444 108 444 108 395 c 0,53,54
EndSplineSet
EndChar

StartChar: dieresis
Encoding: 168 168 106
Width: 575
Flags: W
LayerCount: 2
Fore
SplineSet
170 678 m 0,0,1
 170 690 170 690 175 699.5 c 128,-1,2
 180 709 180 709 193 709 c 0,3,4
 210 709 210 709 214 699.5 c 128,-1,5
 218 690 218 690 218 678 c 0,6,7
 218 665 218 665 214 656 c 128,-1,8
 210 647 210 647 193 647 c 0,9,10
 180 647 180 647 175 656 c 128,-1,11
 170 665 170 665 170 678 c 0,0,1
355 678 m 0,12,13
 355 690 355 690 359.5 699.5 c 128,-1,14
 364 709 364 709 378 709 c 0,15,16
 394 709 394 709 398.5 699.5 c 128,-1,17
 403 690 403 690 403 678 c 0,18,19
 403 665 403 665 398.5 656 c 128,-1,20
 394 647 394 647 378 647 c 0,21,22
 364 647 364 647 359.5 656 c 128,-1,23
 355 665 355 665 355 678 c 0,12,13
EndSplineSet
EndChar

StartChar: copyright
Encoding: 169 169 107
Width: 832
Flags: W
LayerCount: 2
Fore
SplineSet
416 -8 m 0,0,1
 336 -8 336 -8 269 20.5 c 128,-1,2
 202 49 202 49 153 99.5 c 128,-1,3
 104 150 104 150 77 216 c 128,-1,4
 50 282 50 282 50 357 c 0,5,6
 50 435 50 435 79 501.5 c 128,-1,7
 108 568 108 568 158.5 617.5 c 128,-1,8
 209 667 209 667 275 694.5 c 128,-1,9
 341 722 341 722 416 722 c 0,10,11
 496 722 496 722 563 692 c 128,-1,12
 630 662 630 662 679 610.5 c 128,-1,13
 728 559 728 559 755 493.5 c 128,-1,14
 782 428 782 428 782 357 c 0,15,16
 782 282 782 282 753.5 215.5 c 128,-1,17
 725 149 725 149 674.5 99 c 128,-1,18
 624 49 624 49 557.5 20.5 c 128,-1,19
 491 -8 491 -8 416 -8 c 0,0,1
416 17 m 0,20,21
 489 17 489 17 551 44.5 c 128,-1,22
 613 72 613 72 659 119.5 c 128,-1,23
 705 167 705 167 730.5 228 c 128,-1,24
 756 289 756 289 756 357 c 0,25,26
 756 426 756 426 730.5 487 c 128,-1,27
 705 548 705 548 659 595.5 c 128,-1,28
 613 643 613 643 551 670 c 128,-1,29
 489 697 489 697 416 697 c 0,30,31
 344 697 344 697 282.5 670.5 c 128,-1,32
 221 644 221 644 174.5 597.5 c 128,-1,33
 128 551 128 551 102 489.5 c 128,-1,34
 76 428 76 428 76 357 c 0,35,36
 76 288 76 288 100.5 226.5 c 128,-1,37
 125 165 125 165 170 118 c 128,-1,38
 215 71 215 71 277.5 44 c 128,-1,39
 340 17 340 17 416 17 c 0,20,21
435 143 m 0,40,41
 343 143 343 143 286.5 196 c 128,-1,42
 230 249 230 249 230 356 c 0,43,44
 230 422 230 422 256.5 470.5 c 128,-1,45
 283 519 283 519 330.5 545.5 c 128,-1,46
 378 572 378 572 439 572 c 0,47,48
 482 572 482 572 511 565 c 128,-1,49
 540 558 540 558 565 546 c 1,50,-1
 554 523 l 1,51,52
 531 534 531 534 503.5 540 c 128,-1,53
 476 546 476 546 439 546 c 0,54,55
 359 546 359 546 308 495 c 128,-1,56
 257 444 257 444 257 356 c 0,57,58
 257 262 257 262 307.5 215 c 128,-1,59
 358 168 358 168 435 168 c 0,60,61
 470 168 470 168 495 172.5 c 128,-1,62
 520 177 520 177 550 188 c 1,63,-1
 550 164 l 1,64,65
 524 154 524 154 496.5 148.5 c 128,-1,66
 469 143 469 143 435 143 c 0,40,41
EndSplineSet
EndChar

StartChar: ordfeminine
Encoding: 170 170 108
Width: 322
Flags: W
LayerCount: 2
Fore
SplineSet
169 722 m 0,0,1
 219 722 219 722 243.5 696 c 128,-1,2
 268 670 268 670 268 622 c 2,3,-1
 268 402 l 1,4,-1
 245 402 l 1,5,-1
 241 449 l 1,6,7
 230 427 230 427 205 412.5 c 128,-1,8
 180 398 180 398 143 398 c 0,9,10
 96 398 96 398 68.5 420 c 128,-1,11
 41 442 41 442 41 486 c 0,12,13
 41 533 41 533 79 557 c 128,-1,14
 117 581 117 581 197 585 c 2,15,-1
 242 587 l 1,16,-1
 242 618 l 2,17,18
 242 659 242 659 222.5 678 c 128,-1,19
 203 697 203 697 168 697 c 0,20,21
 120 697 120 697 74 672 c 1,22,-1
 64 696 l 1,23,24
 87 707 87 707 113.5 714.5 c 128,-1,25
 140 722 140 722 169 722 c 0,0,1
242 562 m 1,26,-1
 196 560 l 2,27,28
 131 557 131 557 99.5 541 c 128,-1,29
 68 525 68 525 68 486 c 0,30,31
 68 423 68 423 144 423 c 0,32,33
 193 423 193 423 217.5 450.5 c 128,-1,34
 242 478 242 478 242 527 c 2,35,-1
 242 562 l 1,26,-1
EndSplineSet
EndChar

StartChar: guillemotleft
Encoding: 171 171 109
Width: 389
Flags: W
LayerCount: 2
Fore
SplineSet
26 285 m 1,0,-1
 178 472 l 1,1,-1
 194 460 l 1,2,-1
 57 279 l 1,3,-1
 194 98 l 1,4,-1
 178 87 l 1,5,-1
 26 272 l 1,6,-1
 26 285 l 1,0,-1
195 285 m 1,7,-1
 347 472 l 1,8,-1
 363 460 l 1,9,-1
 226 279 l 1,10,-1
 363 98 l 1,11,-1
 347 87 l 1,12,-1
 195 272 l 1,13,-1
 195 285 l 1,7,-1
EndSplineSet
EndChar

StartChar: logicalnot
Encoding: 172 172 110
Width: 570
Flags: W
LayerCount: 2
Fore
SplineSet
498 365 m 1,0,-1
 498 132 l 1,1,-1
 474 132 l 1,2,-1
 474 341 l 1,3,-1
 55 341 l 1,4,-1
 55 365 l 1,5,-1
 498 365 l 1,0,-1
EndSplineSet
EndChar

StartChar: registered
Encoding: 174 174 112
Width: 832
Flags: W
LayerCount: 2
Fore
SplineSet
416 -8 m 0,0,1
 336 -8 336 -8 269 20.5 c 128,-1,2
 202 49 202 49 153 99.5 c 128,-1,3
 104 150 104 150 77 216 c 128,-1,4
 50 282 50 282 50 357 c 0,5,6
 50 435 50 435 79 501.5 c 128,-1,7
 108 568 108 568 158.5 617.5 c 128,-1,8
 209 667 209 667 275 694.5 c 128,-1,9
 341 722 341 722 416 722 c 0,10,11
 496 722 496 722 563 692 c 128,-1,12
 630 662 630 662 679 610.5 c 128,-1,13
 728 559 728 559 755 493.5 c 128,-1,14
 782 428 782 428 782 357 c 0,15,16
 782 282 782 282 753.5 215.5 c 128,-1,17
 725 149 725 149 674.5 99 c 128,-1,18
 624 49 624 49 557.5 20.5 c 128,-1,19
 491 -8 491 -8 416 -8 c 0,0,1
416 17 m 0,20,21
 489 17 489 17 551 44.5 c 128,-1,22
 613 72 613 72 659 119.5 c 128,-1,23
 705 167 705 167 730.5 228 c 128,-1,24
 756 289 756 289 756 357 c 0,25,26
 756 426 756 426 730.5 487 c 128,-1,27
 705 548 705 548 659 595.5 c 128,-1,28
 613 643 613 643 551 670 c 128,-1,29
 489 697 489 697 416 697 c 0,30,31
 344 697 344 697 282.5 670.5 c 128,-1,32
 221 644 221 644 174.5 597.5 c 128,-1,33
 128 551 128 551 102 489.5 c 128,-1,34
 76 428 76 428 76 357 c 0,35,36
 76 288 76 288 100.5 226.5 c 128,-1,37
 125 165 125 165 170 118 c 128,-1,38
 215 71 215 71 277.5 44 c 128,-1,39
 340 17 340 17 416 17 c 0,20,21
298 143 m 1,40,-1
 298 569 l 1,41,-1
 416 569 l 2,42,43
 478 569 478 569 517 540.5 c 128,-1,44
 556 512 556 512 556 449 c 0,45,46
 556 400 556 400 529.5 370.5 c 128,-1,47
 503 341 503 341 463 329 c 1,48,-1
 577 143 l 1,49,-1
 545 143 l 1,50,-1
 436 324 l 1,51,-1
 323 324 l 1,52,-1
 323 143 l 1,53,-1
 298 143 l 1,40,-1
322 346 m 1,54,-1
 412 346 l 2,55,56
 462 346 462 346 497 370.5 c 128,-1,57
 532 395 532 395 532 449 c 0,58,59
 532 500 532 500 499 522.5 c 128,-1,60
 466 545 466 545 414 545 c 2,61,-1
 322 545 l 1,62,-1
 322 346 l 1,54,-1
EndSplineSet
EndChar

StartChar: overscore
Encoding: 175 175 113
Width: 500
Flags: W
LayerCount: 2
Fore
SplineSet
503 760 m 1,0,-1
 -3 760 l 1,1,-1
 -3 785 l 1,2,-1
 503 785 l 1,3,-1
 503 760 l 1,0,-1
EndSplineSet
Substitution2: "'smcp' Lowercase to Small Capitals lookup 34 subtable" overscore.sc
Substitution2: "'c2sc' Capitals to Small Capitals lookup 33 subtable" overscore.sc
EndChar

StartChar: degree
Encoding: 176 176 114
Width: 428
Flags: W
LayerCount: 2
Fore
SplineSet
214 441 m 0,0,1
 154 441 154 441 112.5 479.5 c 128,-1,2
 71 518 71 518 71 583 c 0,3,4
 71 647 71 647 112 685.5 c 128,-1,5
 153 724 153 724 214 724 c 0,6,7
 276 724 276 724 316.5 684.5 c 128,-1,8
 357 645 357 645 357 583 c 0,9,10
 357 518 357 518 316.5 479.5 c 128,-1,11
 276 441 276 441 214 441 c 0,0,1
213 466 m 0,12,13
 264 466 264 466 297 499 c 128,-1,14
 330 532 330 532 330 583 c 0,15,16
 330 636 330 636 297 667.5 c 128,-1,17
 264 699 264 699 213 699 c 0,18,19
 160 699 160 699 129 667.5 c 128,-1,20
 98 636 98 636 98 583 c 0,21,22
 98 532 98 532 129 499 c 128,-1,23
 160 466 160 466 213 466 c 0,12,13
EndSplineSet
EndChar

StartChar: plusminus
Encoding: 177 177 115
Width: 570
Flags: W
LayerCount: 2
Fore
SplineSet
297 365 m 1,0,-1
 515 365 l 1,1,-1
 515 341 l 1,2,-1
 297 341 l 1,3,-1
 297 123 l 1,4,-1
 273 123 l 1,5,-1
 273 341 l 1,6,-1
 55 341 l 1,7,-1
 55 365 l 1,8,-1
 273 365 l 1,9,-1
 273 583 l 1,10,-1
 297 583 l 1,11,-1
 297 365 l 1,0,-1
55 0 m 1,12,-1
 55 24 l 1,13,-1
 515 24 l 1,14,-1
 515 0 l 1,15,-1
 55 0 l 1,12,-1
EndSplineSet
EndChar

StartChar: uni00B2
Encoding: 178 178 116
Width: 328
Flags: W
LayerCount: 2
Fore
SplineSet
307 416 m 1,0,-1
 27 416 l 1,1,-1
 27 437 l 1,2,-1
 150 563 l 2,3,4
 204 618 204 618 236 657 c 128,-1,5
 268 696 268 696 268 741 c 0,6,7
 268 780 268 780 243 805 c 128,-1,8
 218 830 218 830 169 830 c 0,9,10
 138 830 138 830 111 820 c 128,-1,11
 84 810 84 810 56 789 c 1,12,-1
 43 809 l 1,13,14
 98 855 98 855 169 855 c 0,15,16
 229 855 229 855 262 822.5 c 128,-1,17
 295 790 295 790 295 741 c 0,18,19
 295 706 295 706 279.5 677 c 128,-1,20
 264 648 264 648 235 617 c 128,-1,21
 206 586 206 586 167 546 c 2,22,-1
 64 441 l 1,23,-1
 307 441 l 1,24,-1
 307 416 l 1,0,-1
EndSplineSet
EndChar

StartChar: uni00B3
Encoding: 179 179 117
Width: 328
Flags: W
LayerCount: 2
Fore
SplineSet
170 851 m 0,0,1
 226 851 226 851 260 823.5 c 128,-1,2
 294 796 294 796 294 747 c 0,3,4
 294 705 294 705 272.5 678.5 c 128,-1,5
 251 652 251 652 218 644 c 1,6,-1
 218 642 l 1,7,8
 259 633 259 633 281.5 607.5 c 128,-1,9
 304 582 304 582 304 539 c 0,10,11
 304 478 304 478 263.5 445 c 128,-1,12
 223 412 223 412 151 412 c 0,13,14
 116 412 116 412 84 419 c 128,-1,15
 52 426 52 426 26 437 c 1,16,-1
 26 465 l 1,17,18
 56 452 56 452 86 444.5 c 128,-1,19
 116 437 116 437 151 437 c 0,20,21
 212 437 212 437 244.5 464 c 128,-1,22
 277 491 277 491 277 539 c 0,23,24
 277 628 277 628 156 628 c 2,25,-1
 89 628 l 1,26,-1
 89 653 l 1,27,-1
 156 653 l 2,28,29
 209 653 209 653 238 677.5 c 128,-1,30
 267 702 267 702 267 747 c 0,31,32
 267 783 267 783 241.5 804.5 c 128,-1,33
 216 826 216 826 170 826 c 0,34,35
 132 826 132 826 103 815.5 c 128,-1,36
 74 805 74 805 45 788 c 1,37,-1
 35 810 l 1,38,39
 63 829 63 829 96.5 840 c 128,-1,40
 130 851 130 851 170 851 c 0,0,1
EndSplineSet
EndChar

StartChar: acute
Encoding: 180 180 118
Width: 249
Flags: W
LayerCount: 2
Fore
SplineSet
209 766 m 1,0,-1
 209 759 l 1,1,2
 183 725 183 725 142 682 c 128,-1,3
 101 639 101 639 61 606 c 1,4,-1
 40 606 l 1,5,-1
 40 612 l 1,6,7
 62 632 62 632 89 660 c 128,-1,8
 116 688 116 688 140 716 c 128,-1,9
 164 744 164 744 179 766 c 1,10,-1
 209 766 l 1,0,-1
EndSplineSet
EndChar

StartChar: uni00B5
Encoding: 181 181 119
Width: 580
Flags: W
LayerCount: 2
Fore
SplineSet
489 528 m 1,0,-1
 489 0 l 1,1,-1
 466 0 l 1,2,-1
 463 94 l 1,3,-1
 461 94 l 1,4,5
 448 66 448 66 428 42.5 c 128,-1,6
 408 19 408 19 373 4.5 c 128,-1,7
 338 -10 338 -10 282 -10 c 0,8,9
 216 -10 216 -10 175.5 12 c 128,-1,10
 135 34 135 34 117 71 c 1,11,-1
 115 71 l 1,12,-1
 115 -240 l 1,13,-1
 90 -240 l 1,14,-1
 90 528 l 1,15,-1
 115 528 l 1,16,-1
 115 185 l 2,17,18
 115 15 115 15 282 15 c 0,19,20
 382 15 382 15 423 70.5 c 128,-1,21
 464 126 464 126 464 227 c 2,22,-1
 464 528 l 1,23,-1
 489 528 l 1,0,-1
EndSplineSet
EndChar

StartChar: paragraph
Encoding: 182 182 120
Width: 655
Flags: W
LayerCount: 2
Fore
SplineSet
517 -127 m 1,0,-1
 491 -127 l 1,1,-1
 491 735 l 1,2,-1
 357 735 l 1,3,-1
 357 -127 l 1,4,-1
 331 -127 l 1,5,-1
 331 355 l 1,6,7
 314 350 314 350 298 348 c 128,-1,8
 282 346 282 346 260 346 c 0,9,10
 204 346 204 346 167.5 374 c 128,-1,11
 131 402 131 402 113 450 c 128,-1,12
 95 498 95 498 95 557 c 0,13,14
 95 653 95 653 139 706.5 c 128,-1,15
 183 760 183 760 275 760 c 2,16,-1
 517 760 l 1,17,-1
 517 -127 l 1,0,-1
EndSplineSet
EndChar

StartChar: cedilla
Encoding: 184 184 122
Width: 193
Flags: W
LayerCount: 2
Fore
SplineSet
180 -145 m 0,0,1
 180 -188 180 -188 148 -214 c 128,-1,2
 116 -240 116 -240 67 -240 c 0,3,4
 32 -240 32 -240 10 -234 c 1,5,-1
 10 -210 l 1,6,7
 23 -214 23 -214 35.5 -215 c 128,-1,8
 48 -216 48 -216 67 -216 c 0,9,10
 105 -216 105 -216 130 -198 c 128,-1,11
 155 -180 155 -180 155 -146 c 0,12,13
 155 -114 155 -114 130 -99.5 c 128,-1,14
 105 -85 105 -85 52 -85 c 1,15,-1
 96 0 l 1,16,-1
 121 0 l 1,17,-1
 88 -65 l 1,18,19
 132 -67 132 -67 156 -88 c 128,-1,20
 180 -109 180 -109 180 -145 c 0,0,1
EndSplineSet
EndChar

StartChar: uni00B9
Encoding: 185 185 123
Width: 328
Flags: W
LayerCount: 2
Fore
SplineSet
193 844 m 1,0,-1
 193 416 l 1,1,-1
 167 416 l 1,2,-1
 167 696 l 2,3,4
 167 724 167 724 167 756 c 128,-1,5
 167 788 167 788 168 815 c 1,6,7
 151 804 151 804 135 795.5 c 128,-1,8
 119 787 119 787 95 774 c 2,9,-1
 48 749 l 1,10,-1
 37 771 l 1,11,-1
 173 844 l 1,12,-1
 193 844 l 1,0,-1
EndSplineSet
EndChar

StartChar: ordmasculine
Encoding: 186 186 124
Width: 352
Flags: W
LayerCount: 2
Fore
SplineSet
318 560 m 0,0,1
 318 490 318 490 283 442.5 c 128,-1,2
 248 395 248 395 177 395 c 0,3,4
 108 395 108 395 72.5 442.5 c 128,-1,5
 37 490 37 490 37 560 c 0,6,7
 37 636 37 636 75.5 680.5 c 128,-1,8
 114 725 114 725 180 725 c 0,9,10
 228 725 228 725 258.5 703 c 128,-1,11
 289 681 289 681 303.5 643.5 c 128,-1,12
 318 606 318 606 318 560 c 0,0,1
64 560 m 0,13,14
 64 499 64 499 92.5 459.5 c 128,-1,15
 121 420 121 420 177 420 c 0,16,17
 236 420 236 420 263.5 460 c 128,-1,18
 291 500 291 500 291 560 c 0,19,20
 291 617 291 617 264.5 658.5 c 128,-1,21
 238 700 238 700 180 700 c 0,22,23
 125 700 125 700 94.5 662.5 c 128,-1,24
 64 625 64 625 64 560 c 0,13,14
EndSplineSet
EndChar

StartChar: guillemotright
Encoding: 187 187 125
Width: 389
Flags: W
LayerCount: 2
Fore
SplineSet
363 274 m 1,0,-1
 211 87 l 1,1,-1
 195 99 l 1,2,-1
 332 280 l 1,3,-1
 195 461 l 1,4,-1
 211 472 l 1,5,-1
 363 287 l 1,6,-1
 363 274 l 1,0,-1
194 274 m 1,7,-1
 42 87 l 1,8,-1
 26 99 l 1,9,-1
 163 280 l 1,10,-1
 26 461 l 1,11,-1
 42 472 l 1,12,-1
 194 287 l 1,13,-1
 194 274 l 1,7,-1
EndSplineSet
EndChar

StartChar: onequarter
Encoding: 188 188 126
Width: 698
Flags: W
LayerCount: 2
Fore
SplineSet
147 0 m 1,0,-1
 519 714 l 1,1,-1
 547 714 l 1,2,-1
 175 0 l 1,3,-1
 147 0 l 1,0,-1
146 286 m 1,4,-1
 146 566 l 2,5,6
 146 594 146 594 146 626 c 128,-1,7
 146 658 146 658 147 685 c 1,8,9
 130 674 130 674 114 665.5 c 128,-1,10
 98 657 98 657 74 644 c 2,11,-1
 27 619 l 1,12,-1
 16 641 l 1,13,-1
 152 714 l 1,14,-1
 172 714 l 1,15,-1
 172 286 l 1,16,-1
 146 286 l 1,4,-1
590 0 m 1,17,-1
 590 131 l 1,18,-1
 386 131 l 1,19,-1
 386 149 l 1,20,-1
 587 431 l 1,21,-1
 615 431 l 1,22,-1
 615 155 l 1,23,-1
 689 155 l 1,24,-1
 689 131 l 1,25,-1
 615 131 l 1,26,-1
 615 0 l 1,27,-1
 590 0 l 1,17,-1
418 155 m 1,28,-1
 590 155 l 1,29,-1
 590 319 l 2,30,31
 590 343 590 343 590 362.5 c 128,-1,32
 590 382 590 382 591 402 c 1,33,34
 581 386 581 386 574.5 375.5 c 128,-1,35
 568 365 568 365 557 350 c 2,36,-1
 418 155 l 1,28,-1
EndSplineSet
EndChar

StartChar: onehalf
Encoding: 189 189 127
Width: 744
Flags: W
LayerCount: 2
Fore
SplineSet
147 0 m 1,0,-1
 519 714 l 1,1,-1
 547 714 l 1,2,-1
 175 0 l 1,3,-1
 147 0 l 1,0,-1
146 286 m 1,4,-1
 146 566 l 2,5,6
 146 594 146 594 146 626 c 128,-1,7
 146 658 146 658 147 685 c 1,8,9
 130 674 130 674 114 665.5 c 128,-1,10
 98 657 98 657 74 644 c 2,11,-1
 27 619 l 1,12,-1
 16 641 l 1,13,-1
 152 714 l 1,14,-1
 172 714 l 1,15,-1
 172 286 l 1,16,-1
 146 286 l 1,4,-1
443 0 m 1,17,-1
 443 21 l 1,18,-1
 566 147 l 2,19,20
 620 202 620 202 652 241 c 128,-1,21
 684 280 684 280 684 325 c 0,22,23
 684 364 684 364 659 389 c 128,-1,24
 634 414 634 414 585 414 c 0,25,26
 554 414 554 414 527 404 c 128,-1,27
 500 394 500 394 472 373 c 1,28,-1
 459 393 l 1,29,30
 514 439 514 439 585 439 c 0,31,32
 645 439 645 439 678 406.5 c 128,-1,33
 711 374 711 374 711 325 c 0,34,35
 711 290 711 290 695.5 261 c 128,-1,36
 680 232 680 232 651 201 c 128,-1,37
 622 170 622 170 583 130 c 2,38,-1
 480 25 l 1,39,-1
 723 25 l 1,40,-1
 723 0 l 1,41,-1
 443 0 l 1,17,-1
EndSplineSet
EndChar

StartChar: threequarters
Encoding: 190 190 128
Width: 758
Flags: W
LayerCount: 2
Fore
SplineSet
151 282 m 0,0,1
 116 282 116 282 84 289 c 128,-1,2
 52 296 52 296 26 307 c 1,3,-1
 26 335 l 1,4,5
 56 322 56 322 86 314.5 c 128,-1,6
 116 307 116 307 151 307 c 0,7,8
 212 307 212 307 244.5 334 c 128,-1,9
 277 361 277 361 277 409 c 0,10,11
 277 498 277 498 156 498 c 2,12,-1
 89 498 l 1,13,-1
 89 523 l 1,14,-1
 156 523 l 2,15,16
 209 523 209 523 238 547.5 c 128,-1,17
 267 572 267 572 267 617 c 0,18,19
 267 653 267 653 241.5 674.5 c 128,-1,20
 216 696 216 696 170 696 c 0,21,22
 132 696 132 696 103 685.5 c 128,-1,23
 74 675 74 675 45 658 c 1,24,-1
 35 680 l 1,25,26
 63 699 63 699 96.5 710 c 128,-1,27
 130 721 130 721 170 721 c 0,28,29
 226 721 226 721 260 693.5 c 128,-1,30
 294 666 294 666 294 617 c 0,31,32
 294 575 294 575 272.5 548.5 c 128,-1,33
 251 522 251 522 218 514 c 1,34,-1
 218 512 l 1,35,36
 259 503 259 503 281.5 477.5 c 128,-1,37
 304 452 304 452 304 409 c 0,38,39
 304 348 304 348 263.5 315 c 128,-1,40
 223 282 223 282 151 282 c 0,0,1
207 0 m 1,41,-1
 579 714 l 1,42,-1
 607 714 l 1,43,-1
 235 0 l 1,44,-1
 207 0 l 1,41,-1
650 0 m 1,45,-1
 650 131 l 1,46,-1
 446 131 l 1,47,-1
 446 149 l 1,48,-1
 647 431 l 1,49,-1
 675 431 l 1,50,-1
 675 155 l 1,51,-1
 749 155 l 1,52,-1
 749 131 l 1,53,-1
 675 131 l 1,54,-1
 675 0 l 1,55,-1
 650 0 l 1,45,-1
478 155 m 1,56,-1
 650 155 l 1,57,-1
 650 319 l 2,58,59
 650 343 650 343 650 362.5 c 128,-1,60
 650 382 650 382 651 402 c 1,61,62
 641 386 641 386 634.5 375.5 c 128,-1,63
 628 365 628 365 617 350 c 2,64,-1
 478 155 l 1,56,-1
EndSplineSet
EndChar

StartChar: AE
Encoding: 198 198 136
Width: 763
GlyphClass: 2
Flags: W
AnchorPoint: "Anchor-2" 382 714 basechar 0
AnchorPoint: "Anchor-0" 382 0 basechar 0
LayerCount: 2
Fore
SplineSet
750 0 m 1,0,-1
 365 0 l 1,1,-1
 365 270 l 1,2,-1
 144 270 l 1,3,-1
 30 0 l 1,4,-1
 -1 0 l 1,5,-1
 306 714 l 1,6,-1
 750 714 l 1,7,-1
 750 689 l 1,8,-1
 391 689 l 1,9,-1
 391 389 l 1,10,-1
 730 389 l 1,11,-1
 730 364 l 1,12,-1
 391 364 l 1,13,-1
 391 25 l 1,14,-1
 750 25 l 1,15,-1
 750 0 l 1,0,-1
156 295 m 1,16,-1
 365 295 l 1,17,-1
 365 689 l 1,18,-1
 323 689 l 1,19,-1
 156 295 l 1,16,-1
EndSplineSet
Substitution2: "'c2sc' Capitals to Small Capitals lookup 33 subtable" ae.sc
EndChar

StartChar: Eth
Encoding: 208 208 146
Width: 692
GlyphClass: 2
Flags: W
AnchorPoint: "Anchor-2" 346 714 basechar 0
AnchorPoint: "Anchor-0" 346 0 basechar 0
LayerCount: 2
Fore
SplineSet
280 714 m 2,0,1
 457 714 457 714 542.5 624 c 128,-1,2
 628 534 628 534 628 364 c 0,3,4
 628 185 628 185 536 92.5 c 128,-1,5
 444 0 444 0 257 0 c 2,6,-1
 103 0 l 1,7,-1
 103 343 l 1,8,-1
 17 343 l 1,9,-1
 17 368 l 1,10,-1
 103 368 l 1,11,-1
 103 714 l 1,12,-1
 280 714 l 2,0,1
270 689 m 2,13,-1
 129 689 l 1,14,-1
 129 368 l 1,15,-1
 335 368 l 1,16,-1
 335 343 l 1,17,-1
 129 343 l 1,18,-1
 129 25 l 1,19,-1
 260 25 l 2,20,21
 601 25 601 25 601 363 c 0,22,23
 601 522 601 522 522.5 605.5 c 128,-1,24
 444 689 444 689 270 689 c 2,13,-1
EndSplineSet
Substitution2: "'c2sc' Capitals to Small Capitals lookup 33 subtable" eth.sc
EndChar

StartChar: multiply
Encoding: 215 215 153
Width: 570
Flags: W
LayerCount: 2
Fore
SplineSet
482 567 m 1,0,-1
 499 550 l 1,1,-1
 302 353 l 1,2,-1
 499 156 l 1,3,-1
 482 139 l 1,4,-1
 285 336 l 1,5,-1
 88 139 l 1,6,-1
 71 156 l 1,7,-1
 268 353 l 1,8,-1
 71 550 l 1,9,-1
 88 567 l 1,10,-1
 285 370 l 1,11,-1
 482 567 l 1,0,-1
EndSplineSet
EndChar

StartChar: Oslash
Encoding: 216 216 154
Width: 754
GlyphClass: 2
Flags: W
AnchorPoint: "Anchor-2" 377 714 basechar 0
AnchorPoint: "Anchor-0" 377 0 basechar 0
LayerCount: 2
Fore
SplineSet
690 358 m 0,0,1
 690 250 690 250 655.5 167 c 128,-1,2
 621 84 621 84 551.5 37 c 128,-1,3
 482 -10 482 -10 376 -10 c 0,4,5
 312 -10 312 -10 260 9 c 128,-1,6
 208 28 208 28 171 63 c 1,7,-1
 105 -26 l 1,8,-1
 85 -11 l 1,9,-1
 153 81 l 1,10,11
 109 130 109 130 86 201.5 c 128,-1,12
 63 273 63 273 63 359 c 0,13,14
 63 466 63 466 100 549 c 128,-1,15
 137 632 137 632 208.5 678.5 c 128,-1,16
 280 725 280 725 382 725 c 0,17,18
 502 725 502 725 579 659 c 1,19,-1
 639 740 l 1,20,-1
 659 725 l 1,21,-1
 598 642 l 1,22,23
 642 595 642 595 666 523 c 128,-1,24
 690 451 690 451 690 358 c 0,0,1
90 359 m 0,25,26
 90 280 90 280 109.5 214 c 128,-1,27
 129 148 129 148 168 102 c 1,28,-1
 564 638 l 1,29,30
 530 668 530 668 484 684 c 128,-1,31
 438 700 438 700 382 700 c 0,32,33
 284 700 284 700 219 656 c 128,-1,34
 154 612 154 612 122 535 c 128,-1,35
 90 458 90 458 90 359 c 0,25,26
663 358 m 0,36,37
 663 531 663 531 582 620 c 1,38,-1
 186 84 l 1,39,40
 220 51 220 51 268 33 c 128,-1,41
 316 15 316 15 377 15 c 0,42,43
 475 15 475 15 538.5 58.5 c 128,-1,44
 602 102 602 102 632.5 179.5 c 128,-1,45
 663 257 663 257 663 358 c 0,36,37
EndSplineSet
Substitution2: "'c2sc' Capitals to Small Capitals lookup 33 subtable" oslash.sc
EndChar

StartChar: Thorn
Encoding: 222 222 160
Width: 573
GlyphClass: 2
Flags: W
AnchorPoint: "Anchor-2" 287 714 basechar 0
AnchorPoint: "Anchor-0" 287 0 basechar 0
LayerCount: 2
Fore
SplineSet
518 382 m 0,0,1
 518 272 518 272 448 222.5 c 128,-1,2
 378 173 378 173 256 173 c 2,3,-1
 129 173 l 1,4,-1
 129 0 l 1,5,-1
 103 0 l 1,6,-1
 103 714 l 1,7,-1
 129 714 l 1,8,-1
 129 582 l 1,9,-1
 281 582 l 2,10,11
 399 582 399 582 458.5 534.5 c 128,-1,12
 518 487 518 487 518 382 c 0,0,1
129 198 m 1,13,-1
 252 198 l 2,14,15
 324 198 324 198 378 215 c 128,-1,16
 432 232 432 232 461.5 272 c 128,-1,17
 491 312 491 312 491 382 c 0,18,19
 491 475 491 475 438.5 516 c 128,-1,20
 386 557 386 557 274 557 c 2,21,-1
 129 557 l 1,22,-1
 129 198 l 1,13,-1
EndSplineSet
Substitution2: "'c2sc' Capitals to Small Capitals lookup 33 subtable" thorn.sc
EndChar

StartChar: germandbls
Encoding: 223 223 161
Width: 554
GlyphClass: 2
Flags: W
AnchorPoint: "Anchor-2" 277 765 basechar 0
AnchorPoint: "Anchor-0" 277 0 basechar 0
LayerCount: 2
Fore
SplineSet
439 636 m 0,0,1
 439 598 439 598 425 575 c 128,-1,2
 411 552 411 552 390.5 536.5 c 128,-1,3
 370 521 370 521 350 506 c 128,-1,4
 330 491 330 491 316 471.5 c 128,-1,5
 302 452 302 452 302 420 c 0,6,7
 302 380 302 380 327 355.5 c 128,-1,8
 352 331 352 331 396 302 c 0,9,10
 424 282 424 282 448.5 261 c 128,-1,11
 473 240 473 240 488 210 c 128,-1,12
 503 180 503 180 503 134 c 0,13,14
 503 96 503 96 485 63 c 128,-1,15
 467 30 467 30 430 10 c 128,-1,16
 393 -10 393 -10 337 -10 c 0,17,18
 290 -10 290 -10 259.5 -2 c 128,-1,19
 229 6 229 6 203 17 c 1,20,-1
 203 45 l 1,21,22
 236 30 236 30 268 22.5 c 128,-1,23
 300 15 300 15 337 15 c 0,24,25
 405 15 405 15 440.5 47.5 c 128,-1,26
 476 80 476 80 476 134 c 0,27,28
 476 172 476 172 463.5 198.5 c 128,-1,29
 451 225 451 225 429.5 244.5 c 128,-1,30
 408 264 408 264 382 282 c 0,31,32
 353 302 353 302 328.5 321 c 128,-1,33
 304 340 304 340 289.5 363 c 128,-1,34
 275 386 275 386 275 420 c 0,35,36
 275 456 275 456 289 478 c 128,-1,37
 303 500 303 500 323.5 515.5 c 128,-1,38
 344 531 344 531 364 545.5 c 128,-1,39
 384 560 384 560 398 581 c 128,-1,40
 412 602 412 602 412 636 c 0,41,42
 412 684 412 684 379 712 c 128,-1,43
 346 740 346 740 282 740 c 0,44,45
 196 740 196 740 155.5 694 c 128,-1,46
 115 648 115 648 115 563 c 2,47,-1
 115 0 l 1,48,-1
 89 0 l 1,49,-1
 89 563 l 2,50,51
 89 660 89 660 138.5 712.5 c 128,-1,52
 188 765 188 765 282 765 c 0,53,54
 358 765 358 765 398.5 729.5 c 128,-1,55
 439 694 439 694 439 636 c 0,0,1
EndSplineSet
Substitution2: "'smcp' Lowercase to Small Capitals lookup 34 subtable" germandbls.sc
EndChar

StartChar: ae
Encoding: 230 230 168
Width: 850
GlyphClass: 2
Flags: W
AnchorPoint: "Anchor-2" 425 528 basechar 0
AnchorPoint: "Anchor-0" 425 0 basechar 0
LayerCount: 2
Fore
SplineSet
604 538 m 0,0,1
 668 538 668 538 710 505 c 128,-1,2
 752 472 752 472 772 416 c 128,-1,3
 792 360 792 360 789 291 c 2,4,-1
 789 266 l 1,5,-1
 418 266 l 1,6,7
 416 145 416 145 469 80 c 128,-1,8
 522 15 522 15 613 15 c 0,9,10
 656 15 656 15 689 22 c 128,-1,11
 722 29 722 29 769 50 c 1,12,-1
 769 23 l 1,13,14
 696 -10 696 -10 613 -10 c 0,15,16
 529 -10 529 -10 478 34 c 128,-1,17
 427 78 427 78 408 145 c 1,18,19
 390 75 390 75 342 32.5 c 128,-1,20
 294 -10 294 -10 210 -10 c 0,21,22
 129 -10 129 -10 88.5 28 c 128,-1,23
 48 66 48 66 48 129 c 0,24,25
 48 208 48 208 114 247 c 128,-1,26
 180 286 180 286 296 294 c 2,27,-1
 392 300 l 1,28,-1
 392 343 l 2,29,30
 392 433 392 433 359 472.5 c 128,-1,31
 326 512 326 512 261 512 c 0,32,33
 224 512 224 512 186.5 503 c 128,-1,34
 149 494 149 494 106 472 c 1,35,-1
 97 498 l 1,36,37
 137 516 137 516 178 526.5 c 128,-1,38
 219 537 219 537 261 537 c 0,39,40
 331 537 331 537 369 500.5 c 128,-1,41
 407 464 407 464 414 384 c 1,42,43
 436 452 436 452 483 495 c 128,-1,44
 530 538 530 538 604 538 c 0,0,1
604 513 m 0,45,46
 531 513 531 513 479.5 456.5 c 128,-1,47
 428 400 428 400 419 291 c 1,48,-1
 762 291 l 1,49,50
 763 390 763 390 723 451.5 c 128,-1,51
 683 513 683 513 604 513 c 0,45,46
392 275 m 1,52,-1
 298 270 l 2,53,54
 198 265 198 265 137 232 c 128,-1,55
 76 199 76 199 76 129 c 0,56,57
 76 76 76 76 110.5 45.5 c 128,-1,58
 145 15 145 15 210 15 c 0,59,60
 303 15 303 15 346.5 72 c 128,-1,61
 390 129 390 129 392 220 c 2,62,-1
 392 275 l 1,52,-1
EndSplineSet
Substitution2: "'smcp' Lowercase to Small Capitals lookup 34 subtable" ae.sc
EndChar

StartChar: eth
Encoding: 240 240 178
Width: 554
GlyphClass: 2
Flags: W
AnchorPoint: "Anchor-2" 277 757 basechar 0
AnchorPoint: "Anchor-0" 277 0 basechar 0
LayerCount: 2
Fore
SplineSet
204 757 m 1,0,1
 241 740 241 740 269.5 722 c 128,-1,2
 298 704 298 704 321 685 c 1,3,-1
 430 752 l 1,4,-1
 443 731 l 1,5,-1
 339 669 l 1,6,7
 418 590 418 590 456 489 c 128,-1,8
 494 388 494 388 494 272 c 0,9,10
 494 194 494 194 470 130 c 128,-1,11
 446 66 446 66 397 28 c 128,-1,12
 348 -10 348 -10 274 -10 c 0,13,14
 170 -10 170 -10 113.5 54 c 128,-1,15
 57 118 57 118 57 223 c 0,16,17
 57 298 57 298 86 352 c 128,-1,18
 115 406 115 406 165.5 435.5 c 128,-1,19
 216 465 216 465 279 465 c 0,20,21
 350 465 350 465 390 443.5 c 128,-1,22
 430 422 430 422 455 391 c 1,23,-1
 457 391 l 1,24,25
 443 463 443 463 407.5 534 c 128,-1,26
 372 605 372 605 317 656 c 1,27,-1
 188 578 l 1,28,-1
 175 598 l 1,29,-1
 298 672 l 1,30,31
 277 689 277 689 249 706 c 128,-1,32
 221 723 221 723 191 736 c 1,33,-1
 204 757 l 1,0,1
279 440 m 0,34,35
 224 440 224 440 180 414.5 c 128,-1,36
 136 389 136 389 110 340.5 c 128,-1,37
 84 292 84 292 84 223 c 0,38,39
 84 122 84 122 136 68.5 c 128,-1,40
 188 15 188 15 274 15 c 0,41,42
 365 15 365 15 416 84 c 128,-1,43
 467 153 467 153 467 285 c 0,44,45
 467 307 467 307 459 333.5 c 128,-1,46
 451 360 451 360 430.5 384.5 c 128,-1,47
 410 409 410 409 373.5 424.5 c 128,-1,48
 337 440 337 440 279 440 c 0,34,35
EndSplineSet
Substitution2: "'smcp' Lowercase to Small Capitals lookup 34 subtable" eth.sc
EndChar

StartChar: divide
Encoding: 247 247 185
Width: 570
Flags: W
LayerCount: 2
Fore
SplineSet
284 500 m 0,0,1
 269 500 269 500 264 509 c 128,-1,2
 259 518 259 518 259 531 c 0,3,4
 259 543 259 543 264 552.5 c 128,-1,5
 269 562 269 562 284 562 c 0,6,7
 302 562 302 562 306.5 552.5 c 128,-1,8
 311 543 311 543 311 531 c 0,9,10
 311 518 311 518 306.5 509 c 128,-1,11
 302 500 302 500 284 500 c 0,0,1
55 341 m 1,12,-1
 55 365 l 1,13,-1
 515 365 l 1,14,-1
 515 341 l 1,15,-1
 55 341 l 1,12,-1
284 144 m 0,16,17
 269 144 269 144 264 153 c 128,-1,18
 259 162 259 162 259 175 c 0,19,20
 259 187 259 187 264 196.5 c 128,-1,21
 269 206 269 206 284 206 c 0,22,23
 302 206 302 206 306.5 196.5 c 128,-1,24
 311 187 311 187 311 175 c 0,25,26
 311 162 311 162 306.5 153 c 128,-1,27
 302 144 302 144 284 144 c 0,16,17
EndSplineSet
EndChar

StartChar: oslash
Encoding: 248 248 186
Width: 575
GlyphClass: 2
Flags: W
AnchorPoint: "Anchor-2" 288 528 basechar 0
AnchorPoint: "Anchor-0" 288 0 basechar 0
LayerCount: 2
Fore
SplineSet
515 264 m 0,0,1
 515 186 515 186 490.5 124 c 128,-1,2
 466 62 466 62 415 26 c 128,-1,3
 364 -10 364 -10 286 -10 c 0,4,5
 234 -10 234 -10 195 7 c 128,-1,6
 156 24 156 24 128 54 c 1,7,-1
 62 -27 l 1,8,-1
 43 -11 l 1,9,-1
 112 74 l 1,10,11
 59 148 59 148 59 264 c 0,12,13
 59 390 59 390 120.5 464 c 128,-1,14
 182 538 182 538 292 538 c 0,15,16
 341 538 341 538 378 523.5 c 128,-1,17
 415 509 415 509 441 483 c 1,18,-1
 499 555 l 1,19,-1
 518 539 l 1,20,-1
 458 465 l 1,21,22
 487 428 487 428 501 376 c 128,-1,23
 515 324 515 324 515 264 c 0,0,1
86 264 m 0,24,25
 86 160 86 160 128 95 c 1,26,-1
 424 463 l 1,27,28
 401 486 401 486 368.5 499.5 c 128,-1,29
 336 513 336 513 292 513 c 0,30,31
 193 513 193 513 139.5 447 c 128,-1,32
 86 381 86 381 86 264 c 0,24,25
488 264 m 0,33,34
 488 317 488 317 477 363 c 128,-1,35
 466 409 466 409 441 443 c 1,36,-1
 144 74 l 1,37,38
 169 46 169 46 204.5 30.5 c 128,-1,39
 240 15 240 15 286 15 c 0,40,41
 356 15 356 15 400.5 47 c 128,-1,42
 445 79 445 79 466.5 135.5 c 128,-1,43
 488 192 488 192 488 264 c 0,33,34
EndSplineSet
Substitution2: "'smcp' Lowercase to Small Capitals lookup 34 subtable" oslash.sc
EndChar

StartChar: thorn
Encoding: 254 254 192
Width: 583
GlyphClass: 2
Flags: W
AnchorPoint: "Anchor-2" 292 760 basechar 0
AnchorPoint: "Anchor-0" 292 -232 basechar 0
LayerCount: 2
Fore
SplineSet
526 269 m 0,0,1
 526 136 526 136 467.5 63 c 128,-1,2
 409 -10 409 -10 303 -10 c 0,3,4
 224 -10 224 -10 179 27 c 128,-1,5
 134 64 134 64 117 116 c 1,6,-1
 115 116 l 1,7,8
 116 82 116 82 116.5 49 c 128,-1,9
 117 16 117 16 117 -15 c 2,10,-1
 117 -232 l 1,11,-1
 91 -232 l 1,12,-1
 91 760 l 1,13,-1
 117 760 l 1,14,-1
 117 525 l 2,15,16
 117 501 117 501 116.5 466 c 128,-1,17
 116 431 116 431 115 406 c 1,18,-1
 117 406 l 1,19,20
 128 441 128 441 153 471 c 128,-1,21
 178 501 178 501 218 519.5 c 128,-1,22
 258 538 258 538 313 538 c 0,23,24
 418 538 418 538 472 469.5 c 128,-1,25
 526 401 526 401 526 269 c 0,0,1
499 269 m 0,26,27
 499 393 499 393 451.5 453 c 128,-1,28
 404 513 404 513 313 513 c 0,29,30
 217 513 217 513 167.5 447.5 c 128,-1,31
 118 382 118 382 118 265 c 2,32,-1
 118 262 l 2,33,34
 118 134 118 134 168 74.5 c 128,-1,35
 218 15 218 15 303 15 c 0,36,37
 395 15 395 15 447 79 c 128,-1,38
 499 143 499 143 499 269 c 0,26,27
EndSplineSet
Substitution2: "'smcp' Lowercase to Small Capitals lookup 34 subtable" thorn.sc
EndChar

StartChar: dcroat
Encoding: 273 273 211
Width: 582
GlyphClass: 2
Flags: W
AnchorPoint: "Anchor-2" 291 760 basechar 0
AnchorPoint: "Anchor-0" 291 0 basechar 0
LayerCount: 2
Fore
SplineSet
283 -10 m 0,0,1
 169 -10 169 -10 114 58 c 128,-1,2
 59 126 59 126 59 254 c 0,3,4
 59 391 59 391 118.5 464.5 c 128,-1,5
 178 538 178 538 291 538 c 0,6,7
 363 538 363 538 407.5 502 c 128,-1,8
 452 466 452 466 468 414 c 1,9,-1
 470 414 l 1,10,11
 468 448 468 448 468 480 c 128,-1,12
 468 512 468 512 468 543 c 2,13,-1
 468 630 l 1,14,-1
 226 630 l 1,15,-1
 226 655 l 1,16,-1
 468 655 l 1,17,-1
 468 760 l 1,18,-1
 494 760 l 1,19,-1
 494 655 l 1,20,-1
 568 655 l 1,21,-1
 568 630 l 1,22,-1
 494 630 l 1,23,-1
 494 0 l 1,24,-1
 472 0 l 1,25,-1
 470 113 l 1,26,-1
 468 113 l 1,27,28
 450 63 450 63 406 26.5 c 128,-1,29
 362 -10 362 -10 283 -10 c 0,0,1
283 15 m 0,30,31
 383 15 383 15 425 80.5 c 128,-1,32
 467 146 467 146 467 263 c 2,33,-1
 467 266 l 2,34,35
 467 386 467 386 423.5 449.5 c 128,-1,36
 380 513 380 513 291 513 c 0,37,38
 192 513 192 513 139 448.5 c 128,-1,39
 86 384 86 384 86 254 c 0,40,41
 86 134 86 134 134 74.5 c 128,-1,42
 182 15 182 15 283 15 c 0,30,31
EndSplineSet
Substitution2: "'smcp' Lowercase to Small Capitals lookup 34 subtable" dcroat.sc
EndChar

StartChar: eogonek
Encoding: 281 281 219
Width: 540
GlyphClass: 2
Flags: W
AnchorPoint: "Anchor-3" 520 528 basechar 0
AnchorPoint: "Anchor-2" 270 528 basechar 0
AnchorPoint: "Anchor-0" 270 -217 basechar 0
LayerCount: 2
Fore
SplineSet
350 -131 m 0,0,1
 350 -192 350 -192 408 -192 c 0,2,3
 437 -192 437 -192 456 -185 c 1,4,-1
 456 -209 l 1,5,6
 448 -212 448 -212 435 -214.5 c 128,-1,7
 422 -217 422 -217 406 -217 c 0,8,9
 372 -217 372 -217 348 -196.5 c 128,-1,10
 324 -176 324 -176 324 -135 c 0,11,12
 324 -103 324 -103 342 -69.5 c 128,-1,13
 360 -36 360 -36 402 2 c 1,14,15
 355 -10 355 -10 296 -10 c 0,16,17
 213 -10 213 -10 160.5 25 c 128,-1,18
 108 60 108 60 83.5 121 c 128,-1,19
 59 182 59 182 59 259 c 0,20,21
 59 334 59 334 84 397.5 c 128,-1,22
 109 461 109 461 159.5 499.5 c 128,-1,23
 210 538 210 538 287 538 c 0,24,25
 354 538 354 538 396.5 505 c 128,-1,26
 439 472 439 472 459 416 c 128,-1,27
 479 360 479 360 479 291 c 2,28,-1
 479 266 l 1,29,-1
 86 266 l 1,30,31
 84 145 84 145 138.5 80 c 128,-1,32
 193 15 193 15 296 15 c 0,33,34
 344 15 344 15 378 22 c 128,-1,35
 412 29 412 29 459 50 c 1,36,-1
 459 23 l 1,37,38
 453 20 453 20 446 18 c 0,39,40
 405 -21 405 -21 377.5 -57 c 128,-1,41
 350 -93 350 -93 350 -131 c 0,0,1
287 513 m 256,42,43
 203 513 203 513 149.5 456.5 c 128,-1,44
 96 400 96 400 87 291 c 1,45,-1
 452 291 l 1,46,47
 453 390 453 390 412 451.5 c 128,-1,48
 371 513 371 513 287 513 c 256,42,43
EndSplineSet
Substitution2: "'smcp' Lowercase to Small Capitals lookup 34 subtable" eogonek.sc
Substitution2: "'locl' Localized Forms in Latin lookup 9 subtable" eogonek.loclNAV
Ligature2: "'ccmp' Glyph Composition/Decomposition lookup 6 subtable" e uni0328
EndChar

StartChar: Hbar
Encoding: 294 294 232
Width: 706
GlyphClass: 2
Flags: W
AnchorPoint: "Anchor-2" 353 714 basechar 0
AnchorPoint: "Anchor-0" 353 0 basechar 0
LayerCount: 2
Fore
SplineSet
103 0 m 1,0,-1
 103 549 l 1,1,-1
 0 549 l 1,2,-1
 0 574 l 1,3,-1
 103 574 l 1,4,-1
 103 714 l 1,5,-1
 129 714 l 1,6,-1
 129 574 l 1,7,-1
 577 574 l 1,8,-1
 577 714 l 1,9,-1
 603 714 l 1,10,-1
 603 574 l 1,11,-1
 706 574 l 1,12,-1
 706 549 l 1,13,-1
 603 549 l 1,14,-1
 603 0 l 1,15,-1
 577 0 l 1,16,-1
 577 363 l 1,17,-1
 129 363 l 1,18,-1
 129 0 l 1,19,-1
 103 0 l 1,0,-1
129 388 m 1,20,-1
 577 388 l 1,21,-1
 577 549 l 1,22,-1
 129 549 l 1,23,-1
 129 388 l 1,20,-1
EndSplineSet
Substitution2: "'c2sc' Capitals to Small Capitals lookup 33 subtable" hbar.sc
EndChar

StartChar: hbar
Encoding: 295 295 233
Width: 573
GlyphClass: 2
Flags: W
AnchorPoint: "Anchor-2" 287 760 basechar 0
AnchorPoint: "Anchor-0" 287 0 basechar 0
LayerCount: 2
Fore
SplineSet
116 760 m 1,0,-1
 116 655 l 1,1,-1
 358 655 l 1,2,-1
 358 630 l 1,3,-1
 116 630 l 1,4,-1
 116 496 l 2,5,6
 116 474 116 474 115.5 456.5 c 128,-1,7
 115 439 115 439 114 417 c 1,8,-1
 116 417 l 1,9,10
 126 448 126 448 150.5 476 c 128,-1,11
 175 504 175 504 214 521 c 128,-1,12
 253 538 253 538 309 538 c 0,13,14
 394 538 394 538 441.5 491 c 128,-1,15
 489 444 489 444 489 346 c 2,16,-1
 489 0 l 1,17,-1
 463 0 l 1,18,-1
 463 345 l 2,19,20
 463 433 463 433 422.5 473 c 128,-1,21
 382 513 382 513 309 513 c 0,22,23
 223 513 223 513 169.5 461.5 c 128,-1,24
 116 410 116 410 116 302 c 2,25,-1
 116 0 l 1,26,-1
 90 0 l 1,27,-1
 90 630 l 1,28,-1
 16 630 l 1,29,-1
 16 655 l 1,30,-1
 90 655 l 1,31,-1
 90 760 l 1,32,-1
 116 760 l 1,0,-1
EndSplineSet
Substitution2: "'smcp' Lowercase to Small Capitals lookup 34 subtable" hbar.sc
EndChar

StartChar: kgreenlandic
Encoding: 312 312 249
Width: 454
GlyphClass: 2
Flags: W
AnchorPoint: "Anchor-2" 227 528 basechar 0
AnchorPoint: "Anchor-0" 227 0 basechar 0
LayerCount: 2
Fore
SplineSet
439 528 m 1,0,-1
 234 301 l 1,1,-1
 459 0 l 1,2,-1
 428 0 l 1,3,-1
 216 283 l 1,4,-1
 116 172 l 1,5,-1
 116 0 l 1,6,-1
 90 0 l 1,7,-1
 90 528 l 1,8,-1
 116 528 l 1,9,-1
 116 385 l 2,10,11
 116 337 116 337 116 294 c 128,-1,12
 116 251 116 251 115 204 c 1,13,14
 132 223 132 223 144 236.5 c 128,-1,15
 156 250 156 250 172 268 c 2,16,-1
 405 528 l 1,17,-1
 439 528 l 1,0,-1
EndSplineSet
EndChar

StartChar: Lslash
Encoding: 321 321 258
Width: 506
GlyphClass: 2
Flags: W
AnchorPoint: "Anchor-2" 116 714 basechar 0
AnchorPoint: "Anchor-0" 283 0 basechar 0
LayerCount: 2
Fore
SplineSet
103 0 m 1,0,-1
 103 283 l 1,1,-1
 25 233 l 1,2,-1
 10 254 l 1,3,-1
 103 314 l 1,4,-1
 103 714 l 1,5,-1
 129 714 l 1,6,-1
 129 331 l 1,7,-1
 300 441 l 1,8,-1
 315 420 l 1,9,-1
 129 300 l 1,10,-1
 129 25 l 1,11,-1
 486 25 l 1,12,-1
 486 0 l 1,13,-1
 103 0 l 1,0,-1
EndSplineSet
Substitution2: "'c2sc' Capitals to Small Capitals lookup 33 subtable" lslash.sc
EndChar

StartChar: lslash
Encoding: 322 322 259
Width: 207
GlyphClass: 2
Flags: W
AnchorPoint: "Anchor-2" 104 760 basechar 0
AnchorPoint: "Anchor-0" 104 0 basechar 0
LayerCount: 2
Fore
SplineSet
94 0 m 1,0,-1
 94 339 l 1,1,-1
 24 291 l 1,2,-1
 10 312 l 1,3,-1
 94 368 l 1,4,-1
 94 760 l 1,5,-1
 120 760 l 1,6,-1
 120 383 l 1,7,-1
 201 437 l 1,8,-1
 213 418 l 1,9,-1
 120 356 l 1,10,-1
 120 0 l 1,11,-1
 94 0 l 1,0,-1
EndSplineSet
Substitution2: "'smcp' Lowercase to Small Capitals lookup 34 subtable" lslash.sc
EndChar

StartChar: Eng
Encoding: 330 330 267
Width: 698
GlyphClass: 2
Flags: W
AnchorPoint: "Anchor-2" 349 714 basechar 0
AnchorPoint: "Anchor-0" 349 -174 basechar 0
LayerCount: 2
Fore
SplineSet
445 -174 m 0,0,1
 422 -174 422 -174 399 -170 c 128,-1,2
 376 -166 376 -166 365 -161 c 1,3,-1
 365 -136 l 1,4,5
 381 -141 381 -141 401.5 -144.5 c 128,-1,6
 422 -148 422 -148 444 -148 c 0,7,8
 507 -148 507 -148 537.5 -110 c 128,-1,9
 568 -72 568 -72 568 10 c 1,10,-1
 130 655 l 1,11,-1
 128 655 l 1,12,13
 129 612 129 612 129 577 c 128,-1,14
 129 542 129 542 129 502 c 2,15,-1
 129 0 l 1,16,-1
 103 0 l 1,17,-1
 103 714 l 1,18,-1
 123 714 l 1,19,-1
 567 61 l 1,20,-1
 569 61 l 1,21,22
 568 98 568 98 568 137 c 128,-1,23
 568 176 568 176 568 211 c 2,24,-1
 568 714 l 1,25,-1
 594 714 l 1,26,-1
 594 3 l 2,27,28
 594 -80 594 -80 556 -127 c 128,-1,29
 518 -174 518 -174 445 -174 c 0,0,1
EndSplineSet
Substitution2: "'c2sc' Capitals to Small Capitals lookup 33 subtable" eng.sc
AlternateSubs2: "'aalt' Access All Alternates lookup 1 subtable" Eng.alt1 Eng.alt2 Eng.alt3
EndChar

StartChar: eng
Encoding: 331 331 268
Width: 573
GlyphClass: 2
Flags: W
AnchorPoint: "Anchor-2" 287 528 basechar 0
AnchorPoint: "Anchor-0" 287 -240 basechar 0
LayerCount: 2
Fore
SplineSet
384 -240 m 0,0,1
 365 -240 365 -240 350 -237 c 128,-1,2
 335 -234 335 -234 323 -230 c 1,3,-1
 323 -204 l 1,4,5
 338 -211 338 -211 353.5 -213 c 128,-1,6
 369 -215 369 -215 384 -215 c 0,7,8
 424 -215 424 -215 443.5 -188.5 c 128,-1,9
 463 -162 463 -162 463 -116 c 2,10,-1
 463 345 l 2,11,12
 463 433 463 433 422.5 473 c 128,-1,13
 382 513 382 513 309 513 c 0,14,15
 223 513 223 513 169.5 461.5 c 128,-1,16
 116 410 116 410 116 302 c 2,17,-1
 116 0 l 1,18,-1
 90 0 l 1,19,-1
 90 528 l 1,20,-1
 111 528 l 1,21,-1
 115 417 l 1,22,-1
 117 417 l 1,23,24
 128 448 128 448 152 475.5 c 128,-1,25
 176 503 176 503 214.5 520.5 c 128,-1,26
 253 538 253 538 309 538 c 0,27,28
 394 538 394 538 441.5 491 c 128,-1,29
 489 444 489 444 489 346 c 2,30,-1
 489 -120 l 2,31,32
 489 -181 489 -181 458 -210.5 c 128,-1,33
 427 -240 427 -240 384 -240 c 0,0,1
EndSplineSet
Substitution2: "'smcp' Lowercase to Small Capitals lookup 34 subtable" eng.sc
EndChar

StartChar: OE
Encoding: 338 338 275
Width: 899
GlyphClass: 2
Flags: W
AnchorPoint: "Anchor-2" 450 714 basechar 0
AnchorPoint: "Anchor-0" 450 0 basechar 0
LayerCount: 2
Fore
SplineSet
379 717 m 0,0,1
 404 717 404 717 422 716 c 128,-1,2
 440 715 440 715 466 714 c 2,3,-1
 837 714 l 1,4,-1
 837 689 l 1,5,-1
 478 689 l 1,6,-1
 478 389 l 1,7,-1
 817 389 l 1,8,-1
 817 364 l 1,9,-1
 478 364 l 1,10,-1
 478 25 l 1,11,-1
 837 25 l 1,12,-1
 837 0 l 1,13,-1
 456 0 l 2,14,15
 440 -1 440 -1 420.5 -2 c 128,-1,16
 401 -3 401 -3 376 -3 c 0,17,18
 272 -3 272 -3 202.5 42.5 c 128,-1,19
 133 88 133 88 98 169.5 c 128,-1,20
 63 251 63 251 63 359 c 0,21,22
 63 466 63 466 100 547 c 128,-1,23
 137 628 137 628 207.5 672.5 c 128,-1,24
 278 717 278 717 379 717 c 0,0,1
379 692 m 0,25,26
 282 692 282 692 218 650 c 128,-1,27
 154 608 154 608 122 533 c 128,-1,28
 90 458 90 458 90 359 c 0,29,30
 90 258 90 258 121 182 c 128,-1,31
 152 106 152 106 215.5 64 c 128,-1,32
 279 22 279 22 376 22 c 0,33,34
 401 22 401 22 419.5 23 c 128,-1,35
 438 24 438 24 452 26 c 1,36,-1
 452 688 l 1,37,38
 441 689 441 689 422.5 690.5 c 128,-1,39
 404 692 404 692 379 692 c 0,25,26
EndSplineSet
Substitution2: "'c2sc' Capitals to Small Capitals lookup 33 subtable" oe.sc
EndChar

StartChar: oe
Encoding: 339 339 276
Width: 967
GlyphClass: 2
Flags: W
AnchorPoint: "Anchor-2" 484 528 basechar 0
AnchorPoint: "Anchor-0" 484 0 basechar 0
LayerCount: 2
Fore
SplineSet
714 538 m 0,0,1
 782 538 782 538 824 505 c 128,-1,2
 866 472 866 472 886 416 c 128,-1,3
 906 360 906 360 906 291 c 2,4,-1
 906 266 l 1,5,-1
 513 266 l 1,6,7
 512 145 512 145 566 80 c 128,-1,8
 620 15 620 15 723 15 c 0,9,10
 771 15 771 15 805.5 22 c 128,-1,11
 840 29 840 29 886 50 c 1,12,-1
 886 23 l 1,13,14
 848 6 848 6 809.5 -2 c 128,-1,15
 771 -10 771 -10 723 -10 c 0,16,17
 626 -10 626 -10 572 38 c 128,-1,18
 518 86 518 86 500 164 c 1,19,20
 481 87 481 87 429 38.5 c 128,-1,21
 377 -10 377 -10 286 -10 c 0,22,23
 210 -10 210 -10 159.5 26 c 128,-1,24
 109 62 109 62 84 124 c 128,-1,25
 59 186 59 186 59 264 c 0,26,27
 59 390 59 390 120.5 464 c 128,-1,28
 182 538 182 538 292 538 c 0,29,30
 385 538 385 538 435.5 488 c 128,-1,31
 486 438 486 438 502 360 c 1,32,33
 522 436 522 436 574 487 c 128,-1,34
 626 538 626 538 714 538 c 0,0,1
292 513 m 0,35,36
 193 513 193 513 139.5 447 c 128,-1,37
 86 381 86 381 86 264 c 0,38,39
 86 190 86 190 108 134 c 128,-1,40
 130 78 130 78 174 46.5 c 128,-1,41
 218 15 218 15 286 15 c 0,42,43
 356 15 356 15 400.5 47 c 128,-1,44
 445 79 445 79 466.5 135.5 c 128,-1,45
 488 192 488 192 488 264 c 0,46,47
 488 333 488 333 468.5 389.5 c 128,-1,48
 449 446 449 446 405.5 479.5 c 128,-1,49
 362 513 362 513 292 513 c 0,35,36
714 513 m 256,50,51
 630 513 630 513 576.5 456.5 c 128,-1,52
 523 400 523 400 514 291 c 1,53,-1
 879 291 l 1,54,55
 880 390 880 390 839 451.5 c 128,-1,56
 798 513 798 513 714 513 c 256,50,51
EndSplineSet
Substitution2: "'smcp' Lowercase to Small Capitals lookup 34 subtable" oe.sc
EndChar

StartChar: Tbar
Encoding: 358 358 295
Width: 505
GlyphClass: 2
Flags: W
AnchorPoint: "Anchor-2" 253 714 basechar 0
AnchorPoint: "Anchor-0" 253 0 basechar 0
LayerCount: 2
Fore
SplineSet
239 0 m 1,0,-1
 239 355 l 1,1,-1
 49 355 l 1,2,-1
 49 380 l 1,3,-1
 239 380 l 1,4,-1
 239 689 l 1,5,-1
 2 689 l 1,6,-1
 2 714 l 1,7,-1
 503 714 l 1,8,-1
 503 689 l 1,9,-1
 265 689 l 1,10,-1
 265 380 l 1,11,-1
 454 380 l 1,12,-1
 454 355 l 1,13,-1
 265 355 l 1,14,-1
 265 0 l 1,15,-1
 239 0 l 1,0,-1
EndSplineSet
Substitution2: "'c2sc' Capitals to Small Capitals lookup 33 subtable" tbar.sc
EndChar

StartChar: tbar
Encoding: 359 359 296
Width: 319
GlyphClass: 2
Flags: W
AnchorPoint: "Anchor-3" 299 659 basechar 0
AnchorPoint: "Anchor-2" 109 659 basechar 0
AnchorPoint: "Anchor-1" 160 264 basechar 0
AnchorPoint: "Anchor-0" 191 0 basechar 0
LayerCount: 2
Fore
SplineSet
212 15 m 0,0,1
 237 15 237 15 255.5 18.5 c 128,-1,2
 274 22 274 22 291 28 c 1,3,-1
 291 3 l 1,4,5
 274 -2 274 -2 256 -6 c 128,-1,6
 238 -10 238 -10 212 -10 c 0,7,8
 142 -10 142 -10 116.5 30 c 128,-1,9
 91 70 91 70 91 140 c 2,10,-1
 91 285 l 1,11,-1
 18 285 l 1,12,-1
 18 310 l 1,13,-1
 91 310 l 1,14,-1
 91 503 l 1,15,-1
 10 503 l 1,16,-1
 10 525 l 1,17,-1
 90 528 l 1,18,-1
 96 659 l 1,19,-1
 117 659 l 1,20,-1
 117 528 l 1,21,-1
 289 528 l 1,22,-1
 289 503 l 1,23,-1
 117 503 l 1,24,-1
 117 310 l 1,25,-1
 270 310 l 1,26,-1
 270 285 l 1,27,-1
 117 285 l 1,28,-1
 117 143 l 2,29,30
 117 82 117 82 136.5 48.5 c 128,-1,31
 156 15 156 15 212 15 c 0,0,1
EndSplineSet
Substitution2: "'smcp' Lowercase to Small Capitals lookup 34 subtable" tbar.sc
EndChar

StartChar: Uogonek
Encoding: 370 370 307
Width: 712
GlyphClass: 2
Flags: W
AnchorPoint: "Anchor-3" 692 714 basechar 0
AnchorPoint: "Anchor-2" 356 714 basechar 0
AnchorPoint: "Anchor-0" 356 -217 basechar 0
LayerCount: 2
Fore
SplineSet
431 -122 m 0,0,1
 431 -159 431 -159 445.5 -175.5 c 128,-1,2
 460 -192 460 -192 489 -192 c 256,3,4
 518 -192 518 -192 537 -185 c 1,5,-1
 537 -209 l 1,6,7
 529 -212 529 -212 516 -214.5 c 128,-1,8
 503 -217 503 -217 487 -217 c 0,9,10
 452 -217 452 -217 429 -196 c 128,-1,11
 406 -175 406 -175 406 -126 c 0,12,13
 406 -89 406 -89 422.5 -56 c 128,-1,14
 439 -23 439 -23 466 7 c 1,15,16
 417 -10 417 -10 355 -10 c 0,17,18
 231 -10 231 -10 163 57 c 128,-1,19
 95 124 95 124 95 254 c 2,20,-1
 95 714 l 1,21,-1
 121 714 l 1,22,-1
 121 256 l 2,23,24
 121 136 121 136 182.5 75.5 c 128,-1,25
 244 15 244 15 356 15 c 0,26,27
 462 15 462 15 527 72.5 c 128,-1,28
 592 130 592 130 592 244 c 2,29,-1
 592 714 l 1,30,-1
 618 714 l 1,31,-1
 618 252 l 2,32,33
 618 171 618 171 590 116 c 128,-1,34
 562 61 562 61 513 30 c 1,35,36
 495 12 495 12 476 -11 c 128,-1,37
 457 -34 457 -34 444 -62 c 128,-1,38
 431 -90 431 -90 431 -122 c 0,0,1
EndSplineSet
Substitution2: "'c2sc' Capitals to Small Capitals lookup 33 subtable" uogonek.sc
Substitution2: "'locl' Localized Forms in Latin lookup 9 subtable" Uogonek.loclNAV
Ligature2: "'ccmp' Glyph Composition/Decomposition lookup 6 subtable" U uni0328
EndChar

StartChar: longs
Encoding: 383 383 320
Width: 294
GlyphClass: 2
Flags: W
AnchorPoint: "Anchor-2" 207 765 basechar 0
AnchorPoint: "Anchor-0" 147 0 basechar 0
LayerCount: 2
Fore
SplineSet
240 740 m 0,0,1
 178 740 178 740 147.5 699.5 c 128,-1,2
 117 659 117 659 117 582 c 2,3,-1
 117 0 l 1,4,-1
 91 0 l 1,5,-1
 91 585 l 2,6,7
 91 667 91 667 128.5 716 c 128,-1,8
 166 765 166 765 240 765 c 0,9,10
 260 765 260 765 276.5 762.5 c 128,-1,11
 293 760 293 760 310 756 c 1,12,-1
 307 730 l 1,13,14
 291 735 291 735 276.5 737.5 c 128,-1,15
 262 740 262 740 240 740 c 0,0,1
EndSplineSet
EndChar

StartChar: florin
Encoding: 402 402 321
Width: 570
GlyphClass: 2
Flags: W
AnchorPoint: "Anchor-2" 375 724 basechar 0
AnchorPoint: "Anchor-0" 285 -240 basechar 0
LayerCount: 2
Fore
SplineSet
402 724 m 0,0,1
 423 724 423 724 442.5 721.5 c 128,-1,2
 462 719 462 719 483 713 c 1,3,-1
 477 687 l 1,4,5
 442 699 442 699 399 699 c 0,6,7
 338 699 338 699 308.5 660.5 c 128,-1,8
 279 622 279 622 279 537 c 2,9,-1
 279 449 l 1,10,-1
 418 449 l 1,11,-1
 418 424 l 1,12,-1
 279 424 l 1,13,-1
 279 -98 l 2,14,15
 279 -160 279 -160 249.5 -200 c 128,-1,16
 220 -240 220 -240 161 -240 c 0,17,18
 137 -240 137 -240 120.5 -237 c 128,-1,19
 104 -234 104 -234 93 -231 c 1,20,-1
 93 -205 l 1,21,22
 109 -210 109 -210 125 -212.5 c 128,-1,23
 141 -215 141 -215 160 -215 c 0,24,25
 207 -215 207 -215 230 -183.5 c 128,-1,26
 253 -152 253 -152 253 -93 c 2,27,-1
 253 424 l 1,28,-1
 157 424 l 1,29,-1
 157 446 l 1,30,-1
 253 449 l 1,31,-1
 253 540 l 2,32,33
 253 628 253 628 289 676 c 128,-1,34
 325 724 325 724 402 724 c 0,0,1
EndSplineSet
EndChar

StartChar: Aringacute
Encoding: 506 506 322
Width: 576
GlyphClass: 2
Flags: W
AnchorPoint: "Anchor-2" 288 965 basechar 0
AnchorPoint: "Anchor-0" 288 0 basechar 0
LayerCount: 2
Fore
SplineSet
279 822 m 1,0,-1
 279 828 l 1,1,2
 311 858 311 858 343 894.5 c 128,-1,3
 375 931 375 931 396 965 c 1,4,-1
 426 965 l 1,5,-1
 426 958 l 1,6,7
 400 923 400 923 369 889 c 128,-1,8
 338 855 338 855 300 822 c 1,9,-1
 279 822 l 1,0,-1
-8 0 m 1,10,-1
 278 578 l 1,11,12
 239 583 239 583 214 610 c 128,-1,13
 189 637 189 637 189 684 c 0,14,15
 189 728 189 728 218 756.5 c 128,-1,16
 247 785 247 785 293 785 c 0,17,18
 340 785 340 785 367.5 757 c 128,-1,19
 395 729 395 729 395 683 c 0,20,21
 395 638 395 638 371 611.5 c 128,-1,22
 347 585 347 585 307 577 c 1,23,-1
 582 0 l 1,24,-1
 552 0 l 1,25,-1
 443 233 l 1,26,-1
 136 233 l 1,27,-1
 22 0 l 1,28,-1
 -8 0 l 1,10,-1
292 599 m 0,29,30
 329 599 329 599 351.5 621 c 128,-1,31
 374 643 374 643 374 683 c 0,32,33
 374 720 374 720 352 742 c 128,-1,34
 330 764 330 764 292 764 c 256,35,36
 254 764 254 764 232 742 c 128,-1,37
 210 720 210 720 210 683 c 0,38,39
 210 643 210 643 233.5 621 c 128,-1,40
 257 599 257 599 292 599 c 0,29,30
148 258 m 1,41,-1
 430 258 l 1,42,-1
 318 498 l 2,43,44
 312 511 312 511 305.5 525.5 c 128,-1,45
 299 540 299 540 292 556 c 1,46,47
 285 540 285 540 279 526.5 c 128,-1,48
 273 513 273 513 266 499 c 2,49,-1
 148 258 l 1,41,-1
EndSplineSet
Substitution2: "'c2sc' Capitals to Small Capitals lookup 33 subtable" aringacute.sc
EndChar

StartChar: aringacute
Encoding: 507 507 323
Width: 511
GlyphClass: 2
Flags: W
AnchorPoint: "Anchor-2" 256 950 basechar 0
AnchorPoint: "Anchor-0" 256 0 basechar 0
LayerCount: 2
Fore
SplineSet
373 950 m 1,0,-1
 373 943 l 1,1,2
 348 908 348 908 313.5 873 c 128,-1,3
 279 838 279 838 244 806 c 1,4,-1
 223 806 l 1,5,-1
 223 812 l 1,6,7
 252 840 252 840 287 878.5 c 128,-1,8
 322 917 322 917 343 950 c 1,9,-1
 373 950 l 1,0,-1
266 775 m 256,10,11
 307 775 307 775 336.5 745.5 c 128,-1,12
 366 716 366 716 366 675 c 0,13,14
 366 631 366 631 336.5 603 c 128,-1,15
 307 575 307 575 266 575 c 0,16,17
 226 575 226 575 195.5 602.5 c 128,-1,18
 165 630 165 630 165 675 c 0,19,20
 165 718 165 718 195 746.5 c 128,-1,21
 225 775 225 775 266 775 c 256,10,11
266 751 m 0,22,23
 233 751 233 751 211 728.5 c 128,-1,24
 189 706 189 706 189 675 c 256,25,26
 189 644 189 644 210.5 621.5 c 128,-1,27
 232 599 232 599 266 599 c 256,28,29
 300 599 300 599 321 621.5 c 128,-1,30
 342 644 342 644 342 675 c 256,31,32
 342 706 342 706 319.5 728.5 c 128,-1,33
 297 751 297 751 266 751 c 0,22,23
264 537 m 0,34,35
 346 537 346 537 387 492.5 c 128,-1,36
 428 448 428 448 428 350 c 2,37,-1
 428 0 l 1,38,-1
 406 0 l 1,39,-1
 402 103 l 1,40,-1
 400 103 l 1,41,42
 379 57 379 57 334 23.5 c 128,-1,43
 289 -10 289 -10 208 -10 c 0,44,45
 128 -10 128 -10 88 28 c 128,-1,46
 48 66 48 66 48 129 c 0,47,48
 48 208 48 208 114.5 247.5 c 128,-1,49
 181 287 181 287 299 294 c 2,50,-1
 402 300 l 1,51,-1
 402 343 l 2,52,53
 402 433 402 433 368 472.5 c 128,-1,54
 334 512 334 512 264 512 c 0,55,56
 224 512 224 512 186.5 503 c 128,-1,57
 149 494 149 494 106 472 c 1,58,-1
 97 498 l 1,59,60
 137 516 137 516 178.5 526.5 c 128,-1,61
 220 537 220 537 264 537 c 0,34,35
402 275 m 1,62,-1
 301 270 l 2,63,64
 199 265 199 265 137.5 232 c 128,-1,65
 76 199 76 199 76 129 c 0,66,67
 76 76 76 76 110 45.5 c 128,-1,68
 144 15 144 15 208 15 c 0,69,70
 308 15 308 15 354 72 c 128,-1,71
 400 129 400 129 402 220 c 2,72,-1
 402 275 l 1,62,-1
EndSplineSet
Substitution2: "'smcp' Lowercase to Small Capitals lookup 34 subtable" aringacute.sc
EndChar

StartChar: circumflex
Encoding: 710 710 330
Width: 332
Flags: W
LayerCount: 2
Fore
SplineSet
178 763 m 1,0,1
 190 742 190 742 210 715 c 128,-1,2
 230 688 230 688 252 660 c 128,-1,3
 274 632 274 632 292 612 c 1,4,-1
 292 606 l 1,5,-1
 271 606 l 1,6,7
 243 634 243 634 215.5 668 c 128,-1,8
 188 702 188 702 167 731 c 1,9,10
 146 702 146 702 117.5 668 c 128,-1,11
 89 634 89 634 61 606 c 1,12,-1
 40 606 l 1,13,-1
 40 612 l 1,14,15
 58 632 58 632 80.5 660 c 128,-1,16
 103 688 103 688 123.5 715 c 128,-1,17
 144 742 144 742 156 763 c 1,18,-1
 178 763 l 1,0,1
EndSplineSet
EndChar

StartChar: caron
Encoding: 711 711 331
Width: 332
Flags: W
LayerCount: 2
Fore
SplineSet
154 606 m 1,0,1
 142 626 142 626 122 654 c 128,-1,2
 102 682 102 682 80 709 c 128,-1,3
 58 736 58 736 40 757 c 1,4,-1
 40 763 l 1,5,-1
 61 763 l 1,6,7
 89 735 89 735 116.5 700.5 c 128,-1,8
 144 666 144 666 165 638 c 1,9,10
 186 666 186 666 214.5 700.5 c 128,-1,11
 243 735 243 735 271 763 c 1,12,-1
 292 763 l 1,13,-1
 292 757 l 1,14,15
 274 736 274 736 251.5 709 c 128,-1,16
 229 682 229 682 208.5 654 c 128,-1,17
 188 626 188 626 176 606 c 1,18,-1
 154 606 l 1,0,1
EndSplineSet
EndChar

StartChar: macron
Encoding: 713 713 332
Width: 335
Flags: W
LayerCount: 2
Fore
SplineSet
295 638 m 1,0,-1
 295 614 l 1,1,-1
 40 614 l 1,2,-1
 40 638 l 1,3,-1
 295 638 l 1,0,-1
EndSplineSet
EndChar

StartChar: breve
Encoding: 728 728 333
Width: 325
Flags: W
LayerCount: 2
Fore
SplineSet
285 718 m 1,0,1
 271 606 271 606 162 606 c 0,2,3
 108 606 108 606 76 634.5 c 128,-1,4
 44 663 44 663 40 718 c 1,5,-1
 65 718 l 1,6,7
 69 678 69 678 92.5 654 c 128,-1,8
 116 630 116 630 162 630 c 0,9,10
 211 630 211 630 233.5 654 c 128,-1,11
 256 678 256 678 260 718 c 1,12,-1
 285 718 l 1,0,1
EndSplineSet
EndChar

StartChar: dotaccent
Encoding: 729 729 334
Width: 132
Flags: W
LayerCount: 2
Fore
SplineSet
65 721 m 0,0,1
 83 721 83 721 87.5 711.5 c 128,-1,2
 92 702 92 702 92 690 c 0,3,4
 92 677 92 677 87.5 668 c 128,-1,5
 83 659 83 659 65 659 c 0,6,7
 50 659 50 659 45 668 c 128,-1,8
 40 677 40 677 40 690 c 0,9,10
 40 702 40 702 45 711.5 c 128,-1,11
 50 721 50 721 65 721 c 0,0,1
EndSplineSet
EndChar

StartChar: ring
Encoding: 730 730 335
Width: 281
Flags: W
LayerCount: 2
Fore
SplineSet
141 611 m 256,0,1
 100 611 100 611 70 638.5 c 128,-1,2
 40 666 40 666 40 711 c 0,3,4
 40 754 40 754 70 782.5 c 128,-1,5
 100 811 100 811 141 811 c 256,6,7
 182 811 182 811 211.5 781.5 c 128,-1,8
 241 752 241 752 241 711 c 0,9,10
 241 667 241 667 211.5 639 c 128,-1,11
 182 611 182 611 141 611 c 256,0,1
141 635 m 256,12,13
 175 635 175 635 196 657.5 c 128,-1,14
 217 680 217 680 217 711 c 256,15,16
 217 742 217 742 194.5 764.5 c 128,-1,17
 172 787 172 787 141 787 c 0,18,19
 108 787 108 787 86 764.5 c 128,-1,20
 64 742 64 742 64 711 c 256,21,22
 64 680 64 680 85.5 657.5 c 128,-1,23
 107 635 107 635 141 635 c 256,12,13
EndSplineSet
EndChar

StartChar: ogonek
Encoding: 731 731 336
Width: 212
Flags: W
LayerCount: 2
Fore
SplineSet
66 -131 m 0,0,1
 66 -192 66 -192 124 -192 c 0,2,3
 153 -192 153 -192 172 -185 c 1,4,-1
 172 -209 l 1,5,6
 164 -212 164 -212 151 -214.5 c 128,-1,7
 138 -217 138 -217 122 -217 c 0,8,9
 88 -217 88 -217 64 -196.5 c 128,-1,10
 40 -176 40 -176 40 -135 c 0,11,12
 40 -99 40 -99 64 -63.5 c 128,-1,13
 88 -28 88 -28 140 11 c 1,14,-1
 158 0 l 1,15,16
 124 -27 124 -27 95 -60 c 128,-1,17
 66 -93 66 -93 66 -131 c 0,0,1
EndSplineSet
EndChar

StartChar: tilde
Encoding: 732 732 337
Width: 405
Flags: W
LayerCount: 2
Fore
SplineSet
40 618 m 1,0,1
 44 668 44 668 67.5 692 c 128,-1,2
 91 716 91 716 129 716 c 0,3,4
 154 716 154 716 172.5 704.5 c 128,-1,5
 191 693 191 693 206.5 678.5 c 128,-1,6
 222 664 222 664 238.5 652.5 c 128,-1,7
 255 641 255 641 275 641 c 0,8,9
 297 641 297 641 316.5 655.5 c 128,-1,10
 336 670 336 670 340 716 c 1,11,-1
 365 716 l 1,12,13
 361 667 361 667 336.5 642 c 128,-1,14
 312 617 312 617 274 617 c 0,15,16
 248 617 248 617 230 628.5 c 128,-1,17
 212 640 212 640 196.5 654.5 c 128,-1,18
 181 669 181 669 165 680.5 c 128,-1,19
 149 692 149 692 127 692 c 0,20,21
 107 692 107 692 88.5 677.5 c 128,-1,22
 70 663 70 663 65 618 c 1,23,-1
 40 618 l 1,0,1
EndSplineSet
EndChar

StartChar: hungarumlaut
Encoding: 733 733 338
Width: 379
Flags: W
LayerCount: 2
Fore
SplineSet
339 766 m 1,0,-1
 339 759 l 1,1,2
 317 724 317 724 284.5 681.5 c 128,-1,3
 252 639 252 639 221 606 c 1,4,-1
 200 606 l 1,5,-1
 200 612 l 1,6,7
 218 632 218 632 239 659 c 128,-1,8
 260 686 260 686 279 715 c 128,-1,9
 298 744 298 744 309 766 c 1,10,-1
 339 766 l 1,0,-1
179 766 m 1,11,-1
 179 759 l 1,12,13
 157 724 157 724 124.5 681.5 c 128,-1,14
 92 639 92 639 61 606 c 1,15,-1
 40 606 l 1,16,-1
 40 612 l 1,17,18
 58 632 58 632 79 659 c 128,-1,19
 100 686 100 686 119 715 c 128,-1,20
 138 744 138 744 149 766 c 1,21,-1
 179 766 l 1,11,-1
EndSplineSet
EndChar

StartChar: tonos
Encoding: 900 900 339
Width: 577
Flags: W
AnchorPoint: "Anchor-10" 304 528 mark 0
AnchorPoint: "Anchor-6" 304 528 mark 0
AnchorPoint: "Anchor-2" 304 528 mark 0
LayerCount: 2
Fore
SplineSet
263 606 m 1,0,-1
 263 613 l 1,1,2
 279 651 279 651 295 705 c 128,-1,3
 311 759 311 759 317 807 c 1,4,-1
 345 807 l 1,5,-1
 345 798 l 1,6,7
 340 768 340 768 329.5 733 c 128,-1,8
 319 698 319 698 306.5 665 c 128,-1,9
 294 632 294 632 282 606 c 1,10,-1
 263 606 l 1,0,-1
EndSplineSet
EndChar

StartChar: dieresistonos
Encoding: 901 901 340
Width: 577
Flags: W
AnchorPoint: "Anchor-10" 287 528 mark 0
AnchorPoint: "Anchor-6" 287 528 mark 0
AnchorPoint: "Anchor-2" 287 528 mark 0
LayerCount: 2
Fore
SplineSet
345 839 m 1,0,-1
 345 830 l 1,1,2
 338 796 338 796 320.5 750 c 128,-1,3
 303 704 303 704 286 669 c 1,4,-1
 267 669 l 1,5,-1
 267 676 l 1,6,7
 283 711 283 711 295.5 756.5 c 128,-1,8
 308 802 308 802 314 839 c 1,9,-1
 345 839 l 1,0,-1
183 709 m 0,10,11
 200 709 200 709 204 699.5 c 128,-1,12
 208 690 208 690 208 678 c 0,13,14
 208 665 208 665 204 656 c 128,-1,15
 200 647 200 647 183 647 c 0,16,17
 170 647 170 647 165 656 c 128,-1,18
 160 665 160 665 160 678 c 0,19,20
 160 690 160 690 165 699.5 c 128,-1,21
 170 709 170 709 183 709 c 0,10,11
388 709 m 0,22,23
 404 709 404 709 408.5 699.5 c 128,-1,24
 413 690 413 690 413 678 c 0,25,26
 413 665 413 665 408.5 656 c 128,-1,27
 404 647 404 647 388 647 c 0,28,29
 374 647 374 647 369.5 656 c 128,-1,30
 365 665 365 665 365 678 c 0,31,32
 365 690 365 690 369.5 699.5 c 128,-1,33
 374 709 374 709 388 709 c 0,22,23
EndSplineSet
EndChar

StartChar: Gamma
Encoding: 915 915 352
Width: 489
GlyphClass: 2
Flags: W
AnchorPoint: "Anchor-2" 286 714 basechar 0
AnchorPoint: "Anchor-0" 245 0 basechar 0
LayerCount: 2
Fore
SplineSet
487 714 m 1,0,-1
 487 689 l 1,1,-1
 129 689 l 1,2,-1
 129 0 l 1,3,-1
 103 0 l 1,4,-1
 103 714 l 1,5,-1
 487 714 l 1,0,-1
EndSplineSet
EndChar

StartChar: uni0394
Encoding: 916 916 353
Width: 565
GlyphClass: 2
Flags: W
AnchorPoint: "Anchor-2" 283 714 basechar 0
AnchorPoint: "Anchor-0" 283 0 basechar 0
LayerCount: 2
Fore
SplineSet
295 714 m 1,0,-1
 561 12 l 1,1,-1
 561 0 l 1,2,-1
 4 0 l 1,3,-1
 4 13 l 1,4,-1
 270 714 l 1,5,-1
 295 714 l 1,0,-1
527 25 m 1,6,-1
 324 567 l 2,7,8
 311 600 311 600 299.5 632.5 c 128,-1,9
 288 665 288 665 282 682 c 1,10,11
 275 664 275 664 265.5 635.5 c 128,-1,12
 256 607 256 607 243 573 c 2,13,-1
 37 25 l 1,14,-1
 527 25 l 1,6,-1
EndSplineSet
EndChar

StartChar: Theta
Encoding: 920 920 357
Width: 754
GlyphClass: 2
Flags: W
AnchorPoint: "Anchor-3" 734 714 basechar 0
AnchorPoint: "Anchor-2" 377 714 basechar 0
AnchorPoint: "Anchor-1" 377 357 basechar 0
AnchorPoint: "Anchor-0" 377 0 basechar 0
LayerCount: 2
Fore
SplineSet
690 358 m 0,0,1
 690 250 690 250 655.5 167 c 128,-1,2
 621 84 621 84 551.5 37 c 128,-1,3
 482 -10 482 -10 376 -10 c 0,4,5
 272 -10 272 -10 202.5 37 c 128,-1,6
 133 84 133 84 98 167.5 c 128,-1,7
 63 251 63 251 63 359 c 0,8,9
 63 466 63 466 100 549 c 128,-1,10
 137 632 137 632 208.5 678.5 c 128,-1,11
 280 725 280 725 382 725 c 0,12,13
 530 725 530 725 610 628.5 c 128,-1,14
 690 532 690 532 690 358 c 0,0,1
90 359 m 0,15,16
 90 259 90 259 121 181.5 c 128,-1,17
 152 104 152 104 216 59.5 c 128,-1,18
 280 15 280 15 377 15 c 0,19,20
 475 15 475 15 538.5 58.5 c 128,-1,21
 602 102 602 102 632.5 179.5 c 128,-1,22
 663 257 663 257 663 358 c 0,23,24
 663 521 663 521 590 610.5 c 128,-1,25
 517 700 517 700 382 700 c 0,26,27
 284 700 284 700 219 656 c 128,-1,28
 154 612 154 612 122 535 c 128,-1,29
 90 458 90 458 90 359 c 0,15,16
546 373 m 1,30,-1
 546 348 l 1,31,-1
 207 348 l 1,32,-1
 207 373 l 1,33,-1
 546 373 l 1,30,-1
EndSplineSet
EndChar

StartChar: Lambda
Encoding: 923 923 360
Width: 563
GlyphClass: 2
Flags: W
AnchorPoint: "Anchor-2" 282 714 basechar 0
AnchorPoint: "Anchor-0" 282 0 basechar 0
LayerCount: 2
Fore
SplineSet
294 714 m 1,0,-1
 563 0 l 1,1,-1
 535 0 l 1,2,-1
 319 571 l 2,3,4
 308 600 308 600 298 627 c 128,-1,5
 288 654 288 654 281 677 c 1,6,7
 274 654 274 654 265 629.5 c 128,-1,8
 256 605 256 605 243 571 c 2,9,-1
 28 0 l 1,10,-1
 0 0 l 1,11,-1
 269 714 l 1,12,-1
 294 714 l 1,0,-1
EndSplineSet
EndChar

StartChar: Xi
Encoding: 926 926 363
Width: 517
GlyphClass: 2
Flags: W
AnchorPoint: "Anchor-2" 259 714 basechar 0
AnchorPoint: "Anchor-0" 259 0 basechar 0
LayerCount: 2
Fore
SplineSet
31 689 m 1,0,-1
 31 714 l 1,1,-1
 486 714 l 1,2,-1
 486 689 l 1,3,-1
 31 689 l 1,0,-1
71 363 m 1,4,-1
 71 388 l 1,5,-1
 446 388 l 1,6,-1
 446 363 l 1,7,-1
 71 363 l 1,4,-1
11 0 m 1,8,-1
 11 25 l 1,9,-1
 506 25 l 1,10,-1
 506 0 l 1,11,-1
 11 0 l 1,8,-1
EndSplineSet
EndChar

StartChar: Pi
Encoding: 928 928 365
Width: 704
GlyphClass: 2
Flags: W
AnchorPoint: "Anchor-2" 352 714 basechar 0
AnchorPoint: "Anchor-0" 352 0 basechar 0
LayerCount: 2
Fore
SplineSet
103 0 m 1,0,-1
 103 714 l 1,1,-1
 601 714 l 1,2,-1
 601 0 l 1,3,-1
 575 0 l 1,4,-1
 575 689 l 1,5,-1
 129 689 l 1,6,-1
 129 0 l 1,7,-1
 103 0 l 1,0,-1
EndSplineSet
EndChar

StartChar: Sigma
Encoding: 931 931 367
Width: 540
GlyphClass: 2
Flags: W
AnchorPoint: "Anchor-2" 270 714 basechar 0
AnchorPoint: "Anchor-0" 270 0 basechar 0
LayerCount: 2
Fore
SplineSet
26 0 m 1,0,-1
 26 21 l 1,1,-1
 308 372 l 1,2,-1
 32 695 l 1,3,-1
 32 714 l 1,4,-1
 501 714 l 1,5,-1
 501 688 l 1,6,-1
 72 688 l 1,7,-1
 342 374 l 1,8,-1
 64 26 l 1,9,-1
 530 26 l 1,10,-1
 530 0 l 1,11,-1
 26 0 l 1,0,-1
EndSplineSet
EndChar

StartChar: Phi
Encoding: 934 934 370
Width: 737
GlyphClass: 2
Flags: W
AnchorPoint: "Anchor-2" 369 714 basechar 0
AnchorPoint: "Anchor-0" 369 0 basechar 0
LayerCount: 2
Fore
SplineSet
382 724 m 1,0,-1
 382 637 l 1,1,2
 471 636 471 636 539 610 c 128,-1,3
 607 584 607 584 645 527.5 c 128,-1,4
 683 471 683 471 683 378 c 0,5,6
 683 284 683 284 644 222.5 c 128,-1,7
 605 161 605 161 537.5 130.5 c 128,-1,8
 470 100 470 100 382 99 c 1,9,-1
 382 -10 l 1,10,-1
 356 -10 l 1,11,-1
 356 99 l 1,12,13
 268 100 268 100 200.5 129 c 128,-1,14
 133 158 133 158 94 218 c 128,-1,15
 55 278 55 278 55 372 c 0,16,17
 55 502 55 502 134.5 567.5 c 128,-1,18
 214 633 214 633 356 637 c 1,19,-1
 356 724 l 1,20,-1
 382 724 l 1,0,-1
356 612 m 1,21,22
 228 610 228 610 155 552 c 128,-1,23
 82 494 82 494 82 372 c 0,24,25
 82 244 82 244 155.5 185 c 128,-1,26
 229 126 229 126 356 124 c 1,27,-1
 356 612 l 1,21,22
382 612 m 1,28,-1
 382 124 l 1,29,30
 507 126 507 126 581.5 187 c 128,-1,31
 656 248 656 248 656 378 c 0,32,33
 656 502 656 502 585.5 556 c 128,-1,34
 515 610 515 610 382 612 c 1,28,-1
EndSplineSet
EndChar

StartChar: Psi
Encoding: 936 936 372
Width: 740
GlyphClass: 2
Flags: W
AnchorPoint: "Anchor-2" 370 714 basechar 0
AnchorPoint: "Anchor-0" 370 0 basechar 0
LayerCount: 2
Fore
SplineSet
660 714 m 1,0,-1
 660 477 l 2,1,2
 660 378 660 378 625 323.5 c 128,-1,3
 590 269 590 269 526 247 c 128,-1,4
 462 225 462 225 375 223 c 1,5,-1
 375 0 l 1,6,-1
 349 0 l 1,7,-1
 349 223 l 1,8,9
 262 225 262 225 198 246.5 c 128,-1,10
 134 268 134 268 99 323 c 128,-1,11
 64 378 64 378 64 478 c 2,12,-1
 64 714 l 1,13,-1
 90 714 l 1,14,-1
 90 480 l 2,15,16
 90 396 90 396 117 346 c 128,-1,17
 144 296 144 296 201 273 c 128,-1,18
 258 250 258 250 349 248 c 1,19,-1
 349 714 l 1,20,-1
 375 714 l 1,21,-1
 375 248 l 1,22,23
 464 250 464 250 521.5 272.5 c 128,-1,24
 579 295 579 295 606.5 345.5 c 128,-1,25
 634 396 634 396 634 481 c 2,26,-1
 634 714 l 1,27,-1
 660 714 l 1,0,-1
EndSplineSet
EndChar

StartChar: uni03A9
Encoding: 937 937 373
Width: 771
GlyphClass: 2
Flags: W
AnchorPoint: "Anchor-2" 386 714 basechar 0
AnchorPoint: "Anchor-0" 386 0 basechar 0
LayerCount: 2
Fore
SplineSet
384 700 m 0,0,1
 300 700 300 700 234 661 c 128,-1,2
 168 622 168 622 130.5 551.5 c 128,-1,3
 93 481 93 481 93 385 c 0,4,5
 93 291 93 291 121 225 c 128,-1,6
 149 159 149 159 198.5 111 c 128,-1,7
 248 63 248 63 311 23 c 1,8,-1
 311 0 l 1,9,-1
 41 0 l 1,10,-1
 41 25 l 1,11,-1
 268 25 l 1,12,13
 210 61 210 61 164.5 109.5 c 128,-1,14
 119 158 119 158 92.5 225 c 128,-1,15
 66 292 66 292 66 385 c 0,16,17
 66 486 66 486 106.5 562.5 c 128,-1,18
 147 639 147 639 218.5 682 c 128,-1,19
 290 725 290 725 384 725 c 0,20,21
 479 725 479 725 551 685 c 128,-1,22
 623 645 623 645 663.5 569 c 128,-1,23
 704 493 704 493 704 385 c 0,24,25
 704 292 704 292 678.5 224.5 c 128,-1,26
 653 157 653 157 607.5 108.5 c 128,-1,27
 562 60 562 60 503 25 c 1,28,-1
 729 25 l 1,29,-1
 729 0 l 1,30,-1
 458 0 l 1,31,-1
 458 23 l 1,32,33
 528 62 528 62 577 111.5 c 128,-1,34
 626 161 626 161 651.5 227.5 c 128,-1,35
 677 294 677 294 677 385 c 0,36,37
 677 485 677 485 639.5 555.5 c 128,-1,38
 602 626 602 626 536 663 c 128,-1,39
 470 700 470 700 384 700 c 0,0,1
EndSplineSet
EndChar

StartChar: alpha
Encoding: 945 945 381
Width: 575
GlyphClass: 2
Flags: W
AnchorPoint: "Anchor-2" 288 528 basechar 0
AnchorPoint: "Anchor-0" 288 0 basechar 0
LayerCount: 2
Fore
SplineSet
279 -10 m 0,0,1
 169 -10 169 -10 114 60 c 128,-1,2
 59 130 59 130 59 262 c 0,3,4
 59 395 59 395 119.5 466.5 c 128,-1,5
 180 538 180 538 286 538 c 0,6,7
 353 538 353 538 397 510 c 128,-1,8
 441 482 441 482 458 427 c 1,9,-1
 460 427 l 1,10,11
 459 454 459 454 465.5 480 c 128,-1,12
 472 506 472 506 479 528 c 1,13,-1
 503 528 l 1,14,15
 495 495 495 495 490.5 455.5 c 128,-1,16
 486 416 486 416 486 348 c 2,17,-1
 486 119 l 2,18,19
 486 59 486 59 498.5 37 c 128,-1,20
 511 15 511 15 537 15 c 0,21,22
 558 15 558 15 574 21 c 1,23,-1
 574 -3 l 1,24,25
 558 -10 558 -10 536 -10 c 0,26,27
 492 -10 492 -10 476 18 c 128,-1,28
 460 46 460 46 460 111 c 1,29,-1
 458 111 l 1,30,31
 440 62 440 62 397 26 c 128,-1,32
 354 -10 354 -10 279 -10 c 0,0,1
279 15 m 0,33,34
 374 15 374 15 417 81.5 c 128,-1,35
 460 148 460 148 460 258 c 2,36,-1
 460 281 l 2,37,38
 460 406 460 406 414.5 459.5 c 128,-1,39
 369 513 369 513 286 513 c 0,40,41
 191 513 191 513 138.5 447.5 c 128,-1,42
 86 382 86 382 86 262 c 256,43,44
 86 142 86 142 134 78.5 c 128,-1,45
 182 15 182 15 279 15 c 0,33,34
EndSplineSet
EndChar

StartChar: beta
Encoding: 946 946 382
Width: 594
GlyphClass: 2
Flags: W
AnchorPoint: "Anchor-3" 528 765 basechar 0
AnchorPoint: "Anchor-2" 307 765 basechar 0
AnchorPoint: "Anchor-0" 307 0 basechar 0
LayerCount: 2
Fore
SplineSet
316 765 m 0,0,1
 410 765 410 765 462.5 717 c 128,-1,2
 515 669 515 669 515 581 c 0,3,4
 515 514 515 514 480.5 465 c 128,-1,5
 446 416 446 416 384 404 c 1,6,-1
 384 402 l 1,7,8
 458 391 458 391 500 343 c 128,-1,9
 542 295 542 295 542 209 c 0,10,11
 542 113 542 113 479.5 54.5 c 128,-1,12
 417 -4 417 -4 307 -4 c 0,13,14
 208 -4 208 -4 117 54 c 1,15,-1
 117 -240 l 1,16,-1
 91 -240 l 1,17,-1
 91 540 l 2,18,19
 91 641 91 641 149 703 c 128,-1,20
 207 765 207 765 316 765 c 0,0,1
316 740 m 0,21,22
 219 740 219 740 168 686 c 128,-1,23
 117 632 117 632 117 536 c 2,24,-1
 117 81 l 1,25,26
 161 51 161 51 207 36 c 128,-1,27
 253 21 253 21 307 21 c 0,28,29
 404 21 404 21 459.5 71.5 c 128,-1,30
 515 122 515 122 515 209 c 0,31,32
 515 292 515 292 468 340.5 c 128,-1,33
 421 389 421 389 311 389 c 2,34,-1
 252 389 l 1,35,-1
 252 414 l 1,36,-1
 311 414 l 2,37,38
 391 414 391 414 439.5 455 c 128,-1,39
 488 496 488 496 488 581 c 0,40,41
 488 655 488 655 444.5 697.5 c 128,-1,42
 401 740 401 740 316 740 c 0,21,22
EndSplineSet
EndChar

StartChar: gamma
Encoding: 947 947 383
Width: 457
GlyphClass: 2
Flags: W
AnchorPoint: "Anchor-3" 437 528 basechar 0
AnchorPoint: "Anchor-2" 229 528 basechar 0
AnchorPoint: "Anchor-0" 229 -240 basechar 0
LayerCount: 2
Fore
SplineSet
443 528 m 1,0,-1
 254 42 l 2,1,2
 226 -31 226 -31 213 -103.5 c 128,-1,3
 200 -176 200 -176 198 -240 c 1,4,-1
 172 -240 l 1,5,6
 172 -196 172 -196 179 -149 c 128,-1,7
 186 -102 186 -102 196 -59 c 128,-1,8
 206 -16 206 -16 216 15 c 1,9,-1
 0 528 l 1,10,-1
 28 528 l 1,11,-1
 190 142 l 2,12,13
 201 115 201 115 209.5 95 c 128,-1,14
 218 75 218 75 228 47 c 1,15,-1
 230 47 l 1,16,17
 239 72 239 72 247.5 93.5 c 128,-1,18
 256 115 256 115 266 141 c 2,19,-1
 415 528 l 1,20,-1
 443 528 l 1,0,-1
EndSplineSet
EndChar

StartChar: delta
Encoding: 948 948 384
Width: 567
GlyphClass: 2
Flags: W
AnchorPoint: "Anchor-2" 284 768 basechar 0
AnchorPoint: "Anchor-0" 284 0 basechar 0
LayerCount: 2
Fore
SplineSet
310 768 m 0,0,1
 351 768 351 768 394.5 758 c 128,-1,2
 438 748 438 748 488 722 c 1,3,-1
 476 700 l 1,4,5
 432 723 432 723 393 733 c 128,-1,6
 354 743 354 743 310 743 c 0,7,8
 242 743 242 743 206 713 c 128,-1,9
 170 683 170 683 170 633 c 0,10,11
 170 596 170 596 186 571.5 c 128,-1,12
 202 547 202 547 233.5 525.5 c 128,-1,13
 265 504 265 504 311 478 c 0,14,15
 364 447 364 447 409 413.5 c 128,-1,16
 454 380 454 380 481 334.5 c 128,-1,17
 508 289 508 289 508 221 c 0,18,19
 508 118 508 118 451 54 c 128,-1,20
 394 -10 394 -10 285 -10 c 0,21,22
 181 -10 181 -10 119.5 49 c 128,-1,23
 58 108 58 108 58 211 c 0,24,25
 58 300 58 300 109.5 366 c 128,-1,26
 161 432 161 432 280 468 c 1,27,28
 235 494 235 494 204.5 516.5 c 128,-1,29
 174 539 174 539 158.5 566 c 128,-1,30
 143 593 143 593 143 633 c 0,31,32
 143 694 143 694 189.5 731 c 128,-1,33
 236 768 236 768 310 768 c 0,0,1
305 451 m 1,34,35
 201 423 201 423 143 366.5 c 128,-1,36
 85 310 85 310 85 211 c 0,37,38
 85 118 85 118 139.5 66.5 c 128,-1,39
 194 15 194 15 285 15 c 0,40,41
 380 15 380 15 430.5 69.5 c 128,-1,42
 481 124 481 124 481 221 c 0,43,44
 481 303 481 303 432.5 356.5 c 128,-1,45
 384 410 384 410 305 451 c 1,34,35
EndSplineSet
EndChar

StartChar: epsilon
Encoding: 949 949 385
Width: 435
GlyphClass: 2
Flags: W
AnchorPoint: "Anchor-2" 218 528 basechar 0
AnchorPoint: "Anchor-0" 218 0 basechar 0
LayerCount: 2
Fore
SplineSet
316 294 m 1,0,-1
 316 269 l 1,1,-1
 256 269 l 2,2,3
 170 269 170 269 122 238 c 128,-1,4
 74 207 74 207 74 138 c 0,5,6
 74 86 74 86 113.5 50.5 c 128,-1,7
 153 15 153 15 238 15 c 0,8,9
 283 15 283 15 321.5 23 c 128,-1,10
 360 31 360 31 397 45 c 1,11,-1
 397 20 l 1,12,13
 371 9 371 9 329.5 -0.5 c 128,-1,14
 288 -10 288 -10 238 -10 c 0,15,16
 140 -10 140 -10 93.5 31 c 128,-1,17
 47 72 47 72 47 138 c 0,18,19
 47 191 47 191 75.5 228.5 c 128,-1,20
 104 266 104 266 164 281 c 1,21,-1
 164 283 l 1,22,23
 107 300 107 300 86 330 c 128,-1,24
 65 360 65 360 65 401 c 0,25,26
 65 451 65 451 90 481 c 128,-1,27
 115 511 115 511 155.5 524.5 c 128,-1,28
 196 538 196 538 242 538 c 0,29,30
 291 538 291 538 325.5 530 c 128,-1,31
 360 522 360 522 396 508 c 1,32,-1
 387 484 l 1,33,34
 358 497 358 497 320.5 505 c 128,-1,35
 283 513 283 513 243 513 c 0,36,37
 169 513 169 513 130.5 484 c 128,-1,38
 92 455 92 455 92 401 c 0,39,40
 92 348 92 348 133.5 321 c 128,-1,41
 175 294 175 294 262 294 c 2,42,-1
 316 294 l 1,0,-1
EndSplineSet
EndChar

StartChar: zeta
Encoding: 950 950 386
Width: 457
GlyphClass: 2
Flags: W
AnchorPoint: "Anchor-2" 229 760 basechar 0
AnchorPoint: "Anchor-0" 229 -197 basechar 0
LayerCount: 2
Fore
SplineSet
421 -77 m 0,0,1
 421 -107 421 -107 407.5 -136.5 c 128,-1,2
 394 -166 394 -166 369 -197 c 1,3,-1
 339 -197 l 1,4,5
 367 -163 367 -163 381.5 -132.5 c 128,-1,6
 396 -102 396 -102 394 -77 c 0,7,8
 392 -32 392 -32 361.5 -15 c 128,-1,9
 331 2 331 2 263 12 c 0,10,11
 156 28 156 28 107.5 80 c 128,-1,12
 59 132 59 132 59 224 c 0,13,14
 59 292 59 292 78.5 349 c 128,-1,15
 98 406 98 406 138.5 463 c 128,-1,16
 179 520 179 520 241.5 586 c 128,-1,17
 304 652 304 652 391 736 c 1,18,19
 362 735 362 735 335 735 c 128,-1,20
 308 735 308 735 279 735 c 2,21,-1
 92 735 l 1,22,-1
 92 760 l 1,23,-1
 428 760 l 1,24,-1
 428 738 l 1,25,26
 336 649 336 649 271 581.5 c 128,-1,27
 206 514 206 514 165 458 c 128,-1,28
 124 402 124 402 105 346 c 128,-1,29
 86 290 86 290 86 224 c 0,30,31
 86 141 86 141 131 96 c 128,-1,32
 176 51 176 51 271 36 c 0,33,34
 318 28 318 28 351.5 17.5 c 128,-1,35
 385 7 385 7 403 -15 c 128,-1,36
 421 -37 421 -37 421 -77 c 0,0,1
EndSplineSet
EndChar

StartChar: eta
Encoding: 951 951 387
Width: 573
GlyphClass: 2
Flags: W
AnchorPoint: "Anchor-2" 287 528 basechar 0
AnchorPoint: "Anchor-0" 287 -240 basechar 0
LayerCount: 2
Fore
SplineSet
309 538 m 0,0,1
 394 538 394 538 441.5 491 c 128,-1,2
 489 444 489 444 489 346 c 2,3,-1
 489 -240 l 1,4,-1
 463 -240 l 1,5,-1
 463 345 l 2,6,7
 463 433 463 433 422.5 473 c 128,-1,8
 382 513 382 513 309 513 c 0,9,10
 223 513 223 513 169.5 461.5 c 128,-1,11
 116 410 116 410 116 302 c 2,12,-1
 116 0 l 1,13,-1
 90 0 l 1,14,-1
 90 528 l 1,15,-1
 111 528 l 1,16,-1
 115 417 l 1,17,-1
 117 417 l 1,18,19
 128 448 128 448 152 475.5 c 128,-1,20
 176 503 176 503 214.5 520.5 c 128,-1,21
 253 538 253 538 309 538 c 0,0,1
EndSplineSet
EndChar

StartChar: theta
Encoding: 952 952 388
Width: 555
GlyphClass: 2
Flags: W
AnchorPoint: "Anchor-3" 495 775 basechar 0
AnchorPoint: "Anchor-2" 278 775 basechar 0
AnchorPoint: "Anchor-0" 278 0 basechar 0
LayerCount: 2
Fore
SplineSet
499 394 m 0,0,1
 499 186 499 186 441 88 c 128,-1,2
 383 -10 383 -10 276 -10 c 0,3,4
 170 -10 170 -10 113 87.5 c 128,-1,5
 56 185 56 185 56 392 c 0,6,7
 56 586 56 586 114 680.5 c 128,-1,8
 172 775 172 775 278 775 c 0,9,10
 386 775 386 775 442.5 681 c 128,-1,11
 499 587 499 587 499 394 c 0,0,1
278 750 m 0,12,13
 87 750 87 750 83 407 c 1,14,-1
 471 407 l 1,15,16
 468 750 468 750 278 750 c 0,12,13
276 15 m 0,17,18
 374 15 374 15 422 106.5 c 128,-1,19
 470 198 470 198 472 382 c 1,20,-1
 83 382 l 1,21,22
 87 15 87 15 276 15 c 0,17,18
EndSplineSet
EndChar

StartChar: iota
Encoding: 953 953 389
Width: 284
GlyphClass: 2
Flags: W
AnchorPoint: "Anchor-2" 94 528 basechar 0
AnchorPoint: "Anchor-0" 172 0 basechar 0
LayerCount: 2
Fore
SplineSet
106 528 m 1,0,-1
 106 143 l 2,1,2
 106 73 106 73 132.5 44 c 128,-1,3
 159 15 159 15 212 15 c 0,4,5
 227 15 227 15 241.5 17 c 128,-1,6
 256 19 256 19 268 22 c 1,7,-1
 268 -3 l 1,8,9
 244 -10 244 -10 210 -10 c 0,10,11
 146 -10 146 -10 113 25 c 128,-1,12
 80 60 80 60 80 136 c 2,13,-1
 80 528 l 1,14,-1
 106 528 l 1,0,-1
EndSplineSet
EndChar

StartChar: lambda
Encoding: 955 955 391
Width: 480
GlyphClass: 2
Flags: W
AnchorPoint: "Anchor-2" 240 766 basechar 0
AnchorPoint: "Anchor-0" 240 0 basechar 0
LayerCount: 2
Fore
SplineSet
-6 0 m 1,0,-1
 224 537 l 1,1,-1
 188 646 l 2,2,3
 169 702 169 702 147.5 721.5 c 128,-1,4
 126 741 126 741 92 741 c 0,5,6
 78 741 78 741 67.5 738.5 c 128,-1,7
 57 736 57 736 48 733 c 1,8,-1
 48 759 l 1,9,10
 58 762 58 762 69.5 764 c 128,-1,11
 81 766 81 766 98 766 c 0,12,13
 142 766 142 766 166 744 c 128,-1,14
 190 722 190 722 211 660 c 2,15,-1
 415 64 l 2,16,17
 425 36 425 36 436.5 26.5 c 128,-1,18
 448 17 448 17 462 17 c 0,19,20
 470 17 470 17 476 18.5 c 128,-1,21
 482 20 482 20 487 21 c 1,22,-1
 487 -3 l 1,23,24
 482 -5 482 -5 475.5 -6.5 c 128,-1,25
 469 -8 469 -8 459 -8 c 0,26,27
 431 -8 431 -8 415.5 8 c 128,-1,28
 400 24 400 24 390 55 c 2,29,-1
 263 426 l 2,30,31
 255 450 255 450 248.5 467.5 c 128,-1,32
 242 485 242 485 237 504 c 1,33,-1
 235 504 l 1,34,35
 228 486 228 486 221 468 c 128,-1,36
 214 450 214 450 207 433 c 2,37,-1
 24 0 l 1,38,-1
 -6 0 l 1,0,-1
EndSplineSet
EndChar

StartChar: nu
Encoding: 957 957 393
Width: 493
GlyphClass: 2
Flags: W
AnchorPoint: "Anchor-2" 247 528 basechar 0
AnchorPoint: "Anchor-0" 247 0 basechar 0
LayerCount: 2
Fore
SplineSet
-1 528 m 1,0,-1
 28 528 l 1,1,-1
 199 66 l 2,2,3
 202 58 202 58 205 49 c 128,-1,4
 208 40 208 40 212 30 c 1,5,-1
 214 30 l 1,6,7
 314 118 314 118 372.5 240 c 128,-1,8
 431 362 431 362 431 528 c 1,9,-1
 457 528 l 1,10,11
 457 354 457 354 396 227 c 128,-1,12
 335 100 335 100 220 0 c 1,13,-1
 197 0 l 1,14,-1
 -1 528 l 1,0,-1
EndSplineSet
EndChar

StartChar: xi
Encoding: 958 958 394
Width: 448
GlyphClass: 2
Flags: W
AnchorPoint: "Anchor-2" 224 760 basechar 0
AnchorPoint: "Anchor-0" 224 -197 basechar 0
LayerCount: 2
Fore
SplineSet
59 210 m 0,0,1
 59 292 59 292 105.5 338 c 128,-1,2
 152 384 152 384 223 400 c 1,3,-1
 223 402 l 1,4,5
 161 413 161 413 126 449 c 128,-1,6
 91 485 91 485 91 549 c 0,7,8
 91 604 91 604 113.5 641.5 c 128,-1,9
 136 679 136 679 174 702.5 c 128,-1,10
 212 726 212 726 257 737 c 1,11,12
 229 736 229 736 206 735.5 c 128,-1,13
 183 735 183 735 142 735 c 2,14,-1
 91 735 l 1,15,-1
 91 760 l 1,16,-1
 407 760 l 1,17,-1
 407 735 l 1,18,-1
 373 735 l 2,19,20
 328 735 328 735 283 725.5 c 128,-1,21
 238 716 238 716 200.5 694.5 c 128,-1,22
 163 673 163 673 140.5 637 c 128,-1,23
 118 601 118 601 118 549 c 0,24,25
 118 478 118 478 167 446.5 c 128,-1,26
 216 415 216 415 314 415 c 2,27,-1
 380 415 l 1,28,-1
 380 390 l 1,29,-1
 314 390 l 2,30,31
 250 390 250 390 198.5 371 c 128,-1,32
 147 352 147 352 116.5 312 c 128,-1,33
 86 272 86 272 86 210 c 0,34,35
 86 153 86 153 107.5 120.5 c 128,-1,36
 129 88 129 88 169 70 c 128,-1,37
 209 52 209 52 264 40 c 0,38,39
 317 29 317 29 350.5 16 c 128,-1,40
 384 3 384 3 400 -18.5 c 128,-1,41
 416 -40 416 -40 416 -77 c 0,42,43
 416 -104 416 -104 403 -133.5 c 128,-1,44
 390 -163 390 -163 367 -197 c 1,45,-1
 337 -197 l 1,46,47
 367 -154 367 -154 378.5 -127 c 128,-1,48
 390 -100 390 -100 390 -77 c 0,49,50
 390 -50 390 -50 379 -33.5 c 128,-1,51
 368 -17 368 -17 338 -5.5 c 128,-1,52
 308 6 308 6 253 17 c 0,53,54
 192 30 192 30 148.5 51.5 c 128,-1,55
 105 73 105 73 82 111 c 128,-1,56
 59 149 59 149 59 210 c 0,0,1
EndSplineSet
EndChar

StartChar: pi
Encoding: 960 960 396
Width: 584
GlyphClass: 2
Flags: W
AnchorPoint: "Anchor-2" 292 528 basechar 0
AnchorPoint: "Anchor-0" 292 0 basechar 0
LayerCount: 2
Fore
SplineSet
512 15 m 0,0,1
 527 15 527 15 536 17 c 128,-1,2
 545 19 545 19 552 21 c 1,3,-1
 552 -4 l 1,4,5
 544 -6 544 -6 533 -8 c 128,-1,6
 522 -10 522 -10 508 -10 c 0,7,8
 467 -10 467 -10 444.5 16 c 128,-1,9
 422 42 422 42 422 92 c 2,10,-1
 422 505 l 1,11,-1
 145 505 l 1,12,-1
 145 0 l 1,13,-1
 119 0 l 1,14,-1
 119 505 l 1,15,-1
 12 505 l 1,16,-1
 12 527 l 1,17,-1
 98 528 l 1,18,-1
 558 528 l 1,19,-1
 558 505 l 1,20,-1
 448 505 l 1,21,-1
 448 100 l 2,22,23
 448 59 448 59 463 37 c 128,-1,24
 478 15 478 15 512 15 c 0,0,1
EndSplineSet
EndChar

StartChar: rho
Encoding: 961 961 397
Width: 571
GlyphClass: 2
Flags: W
AnchorPoint: "Anchor-2" 286 528 basechar 0
AnchorPoint: "Anchor-0" 286 -240 basechar 0
LayerCount: 2
Fore
SplineSet
512 266 m 0,0,1
 512 135 512 135 455.5 62.5 c 128,-1,2
 399 -10 399 -10 290 -10 c 0,3,4
 232 -10 232 -10 188.5 6.5 c 128,-1,5
 145 23 145 23 116 46 c 1,6,-1
 114 46 l 1,7,8
 116 13 116 13 116 -10.5 c 128,-1,9
 116 -34 116 -34 116 -63 c 2,10,-1
 116 -240 l 1,11,-1
 90 -240 l 1,12,-1
 90 284 l 2,13,14
 90 408 90 408 142.5 473 c 128,-1,15
 195 538 195 538 302 538 c 0,16,17
 512 538 512 538 512 266 c 0,0,1
302 512 m 0,18,19
 204 512 204 512 160 451 c 128,-1,20
 116 390 116 390 116 276 c 2,21,-1
 116 76 l 1,22,23
 149 48 149 48 193.5 31.5 c 128,-1,24
 238 15 238 15 292 15 c 0,25,26
 383 15 383 15 434 78.5 c 128,-1,27
 485 142 485 142 485 266 c 0,28,29
 485 386 485 386 441 449 c 128,-1,30
 397 512 397 512 302 512 c 0,18,19
EndSplineSet
EndChar

StartChar: sigma1
Encoding: 962 962 398
Width: 470
GlyphClass: 2
Flags: W
AnchorPoint: "Anchor-2" 235 528 basechar 0
AnchorPoint: "Anchor-0" 235 -197 basechar 0
LayerCount: 2
Fore
SplineSet
305 538 m 0,0,1
 341 538 341 538 372 532.5 c 128,-1,2
 403 527 403 527 429 517 c 1,3,-1
 425 492 l 1,4,5
 370 513 370 513 304 513 c 0,6,7
 198 513 198 513 142 449.5 c 128,-1,8
 86 386 86 386 86 268 c 0,9,10
 86 175 86 175 127 117.5 c 128,-1,11
 168 60 168 60 271 40 c 0,12,13
 318 30 318 30 351 18.5 c 128,-1,14
 384 7 384 7 401 -14.5 c 128,-1,15
 418 -36 418 -36 418 -75 c 0,16,17
 418 -110 418 -110 402 -140 c 128,-1,18
 386 -170 386 -170 366 -197 c 1,19,-1
 336 -197 l 1,20,21
 364 -160 364 -160 377.5 -131.5 c 128,-1,22
 391 -103 391 -103 391 -75 c 0,23,24
 391 -32 391 -32 360.5 -14 c 128,-1,25
 330 4 330 4 260 17 c 0,26,27
 151 38 151 38 105 102.5 c 128,-1,28
 59 167 59 167 59 268 c 0,29,30
 59 396 59 396 122 467 c 128,-1,31
 185 538 185 538 305 538 c 0,0,1
EndSplineSet
EndChar

StartChar: sigma
Encoding: 963 963 399
Width: 569
GlyphClass: 2
Flags: W
AnchorPoint: "Anchor-2" 285 528 basechar 0
AnchorPoint: "Anchor-0" 285 0 basechar 0
LayerCount: 2
Fore
SplineSet
509 252 m 0,0,1
 509 130 509 130 448.5 60 c 128,-1,2
 388 -10 388 -10 279 -10 c 0,3,4
 206 -10 206 -10 157 23 c 128,-1,5
 108 56 108 56 83.5 114.5 c 128,-1,6
 59 173 59 173 59 248 c 0,7,8
 59 377 59 377 127.5 452.5 c 128,-1,9
 196 528 196 528 343 528 c 2,10,-1
 545 528 l 1,11,-1
 545 503 l 1,12,-1
 422 503 l 1,13,14
 463 447 463 447 486 387.5 c 128,-1,15
 509 328 509 328 509 252 c 0,0,1
86 248 m 0,16,17
 86 180 86 180 107 127.5 c 128,-1,18
 128 75 128 75 171.5 45 c 128,-1,19
 215 15 215 15 281 15 c 0,20,21
 379 15 379 15 430.5 78 c 128,-1,22
 482 141 482 141 482 252 c 0,23,24
 482 331 482 331 458 389.5 c 128,-1,25
 434 448 434 448 390 503 c 1,26,-1
 343 503 l 2,27,28
 209 503 209 503 147.5 435 c 128,-1,29
 86 367 86 367 86 248 c 0,16,17
EndSplineSet
EndChar

StartChar: tau
Encoding: 964 964 400
Width: 426
GlyphClass: 2
Flags: W
AnchorPoint: "Anchor-2" 213 528 basechar 0
AnchorPoint: "Anchor-0" 213 0 basechar 0
LayerCount: 2
Fore
SplineSet
391 528 m 1,0,-1
 391 503 l 1,1,-1
 182 503 l 1,2,-1
 182 154 l 2,3,4
 182 86 182 86 204.5 50.5 c 128,-1,5
 227 15 227 15 291 15 c 0,6,7
 310 15 310 15 330 18.5 c 128,-1,8
 350 22 350 22 367 27 c 1,9,-1
 367 3 l 1,10,11
 353 -2 353 -2 332 -5.5 c 128,-1,12
 311 -9 311 -9 288 -9 c 0,13,14
 214 -9 214 -9 185 33.5 c 128,-1,15
 156 76 156 76 156 149 c 2,16,-1
 156 503 l 1,17,-1
 10 503 l 1,18,-1
 10 526 l 1,19,-1
 83 528 l 1,20,-1
 391 528 l 1,0,-1
EndSplineSet
EndChar

StartChar: upsilon
Encoding: 965 965 401
Width: 584
GlyphClass: 2
Flags: W
AnchorPoint: "Anchor-2" 292 528 basechar 0
AnchorPoint: "Anchor-0" 292 0 basechar 0
LayerCount: 2
Fore
SplineSet
286 -10 m 0,0,1
 188 -10 188 -10 135 50 c 128,-1,2
 82 110 82 110 82 231 c 2,3,-1
 82 528 l 1,4,-1
 108 528 l 1,5,-1
 108 235 l 2,6,7
 108 120 108 120 154.5 67.5 c 128,-1,8
 201 15 201 15 288 15 c 0,9,10
 386 15 386 15 436.5 84 c 128,-1,11
 487 153 487 153 487 292 c 0,12,13
 487 351 487 351 480.5 411 c 128,-1,14
 474 471 474 471 457 528 c 1,15,-1
 485 528 l 1,16,17
 500 471 500 471 507 412.5 c 128,-1,18
 514 354 514 354 514 292 c 0,19,20
 514 143 514 143 456.5 66.5 c 128,-1,21
 399 -10 399 -10 286 -10 c 0,0,1
EndSplineSet
EndChar

StartChar: phi
Encoding: 966 966 402
Width: 650
GlyphClass: 2
Flags: W
AnchorPoint: "Anchor-2" 325 528 basechar 0
AnchorPoint: "Anchor-0" 325 -240 basechar 0
LayerCount: 2
Fore
SplineSet
160 535 m 1,0,-1
 181 522 l 1,1,2
 137 470 137 470 111.5 411.5 c 128,-1,3
 86 353 86 353 86 271 c 0,4,5
 86 155 86 155 139 86.5 c 128,-1,6
 192 18 192 18 308 14 c 1,7,-1
 308 369 l 2,8,9
 308 450 308 450 337.5 494 c 128,-1,10
 367 538 367 538 433 538 c 0,11,12
 510 538 510 538 550.5 470.5 c 128,-1,13
 591 403 591 403 591 286 c 0,14,15
 591 204 591 204 562 138 c 128,-1,16
 533 72 533 72 475.5 32.5 c 128,-1,17
 418 -7 418 -7 335 -11 c 1,18,-1
 335 -240 l 1,19,-1
 308 -240 l 1,20,-1
 308 -11 l 1,21,22
 220 -7 220 -7 165 29.5 c 128,-1,23
 110 66 110 66 84.5 127.5 c 128,-1,24
 59 189 59 189 59 269 c 0,25,26
 59 354 59 354 86.5 417.5 c 128,-1,27
 114 481 114 481 160 535 c 1,0,-1
433 513 m 0,28,29
 376 513 376 513 355 473.5 c 128,-1,30
 334 434 334 434 334 370 c 2,31,-1
 334 14 l 1,32,33
 407 16 407 16 458.5 51 c 128,-1,34
 510 86 510 86 537 146.5 c 128,-1,35
 564 207 564 207 564 285 c 0,36,37
 564 389 564 389 530.5 451 c 128,-1,38
 497 513 497 513 433 513 c 0,28,29
EndSplineSet
EndChar

StartChar: chi
Encoding: 967 967 403
Width: 492
GlyphClass: 2
Flags: W
AnchorPoint: "Anchor-3" 472 528 basechar 0
AnchorPoint: "Anchor-2" 246 528 basechar 0
AnchorPoint: "Anchor-0" 246 -240 basechar 0
LayerCount: 2
Fore
SplineSet
54 537 m 0,0,1
 82 537 82 537 98.5 520.5 c 128,-1,2
 115 504 115 504 127 473 c 2,3,-1
 242 184 l 1,4,-1
 418 528 l 1,5,-1
 446 528 l 1,6,-1
 258 158 l 1,7,-1
 368 -123 l 2,8,9
 390 -178 390 -178 406 -196.5 c 128,-1,10
 422 -215 422 -215 448 -215 c 0,11,12
 458 -215 458 -215 466 -213.5 c 128,-1,13
 474 -212 474 -212 481 -210 c 1,14,-1
 481 -234 l 1,15,16
 474 -236 474 -236 465.5 -238 c 128,-1,17
 457 -240 457 -240 446 -240 c 0,18,19
 408 -240 408 -240 387.5 -217.5 c 128,-1,20
 367 -195 367 -195 347 -143 c 2,21,-1
 239 134 l 1,22,-1
 49 -240 l 1,23,-1
 20 -240 l 1,24,-1
 224 160 l 1,25,-1
 104 460 l 2,26,27
 92 490 92 490 79 501 c 128,-1,28
 66 512 66 512 50 512 c 0,29,30
 39 512 39 512 30.5 510 c 128,-1,31
 22 508 22 508 13 505 c 1,32,-1
 13 529 l 1,33,34
 20 532 20 532 30 534.5 c 128,-1,35
 40 537 40 537 54 537 c 0,0,1
EndSplineSet
EndChar

StartChar: psi
Encoding: 968 968 404
Width: 697
GlyphClass: 2
Flags: W
AnchorPoint: "Anchor-2" 349 759 basechar 0
AnchorPoint: "Anchor-0" 349 -240 basechar 0
LayerCount: 2
Fore
SplineSet
361 759 m 1,0,-1
 361 20 l 1,1,2
 489 24 489 24 546 99.5 c 128,-1,3
 603 175 603 175 603 303 c 0,4,5
 603 368 603 368 594.5 421 c 128,-1,6
 586 474 586 474 570 528 c 1,7,-1
 597 528 l 1,8,9
 612 477 612 477 621 424 c 128,-1,10
 630 371 630 371 630 303 c 0,11,12
 630 215 630 215 603.5 147 c 128,-1,13
 577 79 577 79 518 39.5 c 128,-1,14
 459 0 459 0 361 -5 c 1,15,-1
 361 -240 l 1,16,-1
 335 -240 l 1,17,-1
 335 -5 l 1,18,19
 201 0 201 0 141.5 73 c 128,-1,20
 82 146 82 146 82 267 c 2,21,-1
 82 528 l 1,22,-1
 107 528 l 1,23,-1
 107 270 l 2,24,25
 107 158 107 158 160.5 91 c 128,-1,26
 214 24 214 24 335 20 c 1,27,-1
 335 759 l 1,28,-1
 361 759 l 1,0,-1
EndSplineSet
EndChar

StartChar: omega
Encoding: 969 969 405
Width: 705
GlyphClass: 2
Flags: W
AnchorPoint: "Anchor-2" 353 528 basechar 0
AnchorPoint: "Anchor-0" 353 0 basechar 0
LayerCount: 2
Fore
SplineSet
583 528 m 1,0,1
 612 464 612 464 629.5 397 c 128,-1,2
 647 330 647 330 647 251 c 0,3,4
 647 183 647 183 632 123.5 c 128,-1,5
 617 64 617 64 580.5 27 c 128,-1,6
 544 -10 544 -10 480 -10 c 0,7,8
 426 -10 426 -10 395 18 c 128,-1,9
 364 46 364 46 353 92 c 1,10,-1
 351 92 l 1,11,12
 340 46 340 46 306 18 c 128,-1,13
 272 -10 272 -10 223 -10 c 0,14,15
 146 -10 146 -10 102 54.5 c 128,-1,16
 58 119 58 119 58 251 c 0,17,18
 58 332 58 332 74.5 397 c 128,-1,19
 91 462 91 462 122 528 c 1,20,-1
 149 528 l 1,21,22
 118 460 118 460 101.5 394 c 128,-1,23
 85 328 85 328 85 251 c 0,24,25
 85 15 85 15 226 15 c 0,26,27
 282 15 282 15 311 54.5 c 128,-1,28
 340 94 340 94 340 171 c 2,29,-1
 340 338 l 1,30,-1
 366 338 l 1,31,-1
 366 171 l 2,32,33
 366 15 366 15 479 15 c 0,34,35
 552 15 552 15 586 76.5 c 128,-1,36
 620 138 620 138 620 251 c 0,37,38
 620 327 620 327 603.5 394 c 128,-1,39
 587 461 587 461 556 528 c 1,40,-1
 583 528 l 1,0,1
EndSplineSet
EndChar

StartChar: afii10051
Encoding: 1026 1026 412
Width: 669
GlyphClass: 2
Flags: W
AnchorPoint: "Anchor-2" 335 714 basechar 0
AnchorPoint: "Anchor-0" 335 0 basechar 0
LayerCount: 2
Fore
SplineSet
424 -10 m 0,0,1
 380 -10 380 -10 360 -3 c 1,2,-1
 360 24 l 1,3,4
 387 15 387 15 425 15 c 0,5,6
 490 15 490 15 523 58.5 c 128,-1,7
 556 102 556 102 556 170 c 2,8,-1
 556 249 l 2,9,10
 556 328 556 328 520.5 363.5 c 128,-1,11
 485 399 485 399 403 399 c 2,12,-1
 191 399 l 1,13,-1
 191 0 l 1,14,-1
 165 0 l 1,15,-1
 165 689 l 1,16,-1
 2 689 l 1,17,-1
 2 714 l 1,18,-1
 464 714 l 1,19,-1
 464 689 l 1,20,-1
 191 689 l 1,21,-1
 191 424 l 1,22,-1
 412 424 l 2,23,24
 500 424 500 424 541 381.5 c 128,-1,25
 582 339 582 339 582 250 c 2,26,-1
 582 169 l 2,27,28
 582 90 582 90 541 40 c 128,-1,29
 500 -10 500 -10 424 -10 c 0,0,1
EndSplineSet
EndChar

StartChar: afii10053
Encoding: 1028 1028 414
Width: 608
GlyphClass: 2
Flags: W
AnchorPoint: "Anchor-2" 304 714 basechar 0
AnchorPoint: "Anchor-0" 304 0 basechar 0
LayerCount: 2
Fore
SplineSet
405 699 m 0,0,1
 308 699 308 699 239 657.5 c 128,-1,2
 170 616 170 616 132 544 c 128,-1,3
 94 472 94 472 90 379 c 1,4,-1
 491 379 l 1,5,-1
 491 354 l 1,6,-1
 90 354 l 1,7,8
 91 252 91 252 124.5 175.5 c 128,-1,9
 158 99 158 99 223 57 c 128,-1,10
 288 15 288 15 386 15 c 0,11,12
 444 15 444 15 489 23 c 128,-1,13
 534 31 534 31 570 44 c 1,14,-1
 570 21 l 1,15,16
 537 8 537 8 491 -1 c 128,-1,17
 445 -10 445 -10 386 -10 c 0,18,19
 280 -10 280 -10 208 36.5 c 128,-1,20
 136 83 136 83 99.5 166 c 128,-1,21
 63 249 63 249 63 360 c 0,22,23
 63 464 63 464 104 546.5 c 128,-1,24
 145 629 145 629 221.5 676.5 c 128,-1,25
 298 724 298 724 405 724 c 0,26,27
 502 724 502 724 583 687 c 1,28,-1
 573 662 l 1,29,30
 530 684 530 684 488 691.5 c 128,-1,31
 446 699 446 699 405 699 c 0,0,1
EndSplineSet
EndChar

StartChar: afii10058
Encoding: 1033 1033 419
Width: 928
GlyphClass: 2
Flags: W
AnchorPoint: "Anchor-2" 464 714 basechar 0
AnchorPoint: "Anchor-0" 464 0 basechar 0
LayerCount: 2
Fore
SplineSet
47 -11 m 0,0,1
 29 -11 29 -11 17.5 -8.5 c 128,-1,2
 6 -6 6 -6 -4 -2 c 1,3,-1
 -4 24 l 1,4,5
 7 20 7 20 18.5 17 c 128,-1,6
 30 14 30 14 47 14 c 0,7,8
 84 14 84 14 106.5 42 c 128,-1,9
 129 70 129 70 144 120.5 c 128,-1,10
 159 171 159 171 171 239 c 0,11,12
 188 334 188 334 200.5 423 c 128,-1,13
 213 512 213 512 221.5 587 c 128,-1,14
 230 662 230 662 235 714 c 1,15,-1
 500 714 l 1,16,-1
 500 393 l 1,17,-1
 640 393 l 2,18,19
 712 393 712 393 764 376 c 128,-1,20
 816 359 816 359 844.5 317.5 c 128,-1,21
 873 276 873 276 873 203 c 0,22,23
 873 101 873 101 815.5 50.5 c 128,-1,24
 758 0 758 0 651 0 c 2,25,-1
 474 0 l 1,26,-1
 474 689 l 1,27,-1
 258 689 l 1,28,29
 252 626 252 626 243.5 549 c 128,-1,30
 235 472 235 472 223.5 391 c 128,-1,31
 212 310 212 310 197 234 c 0,32,33
 184 164 184 164 167.5 109 c 128,-1,34
 151 54 151 54 122.5 21.5 c 128,-1,35
 94 -11 94 -11 47 -11 c 0,0,1
500 25 m 1,36,-1
 644 25 l 2,37,38
 746 25 746 25 796 67 c 128,-1,39
 846 109 846 109 846 203 c 0,40,41
 846 269 846 269 820.5 304.5 c 128,-1,42
 795 340 795 340 747.5 354 c 128,-1,43
 700 368 700 368 635 368 c 2,44,-1
 500 368 l 1,45,-1
 500 25 l 1,36,-1
EndSplineSet
EndChar

StartChar: afii10059
Encoding: 1034 1034 420
Width: 957
GlyphClass: 2
Flags: W
AnchorPoint: "Anchor-2" 479 714 basechar 0
AnchorPoint: "Anchor-0" 479 0 basechar 0
LayerCount: 2
Fore
SplineSet
103 0 m 1,0,-1
 103 714 l 1,1,-1
 129 714 l 1,2,-1
 129 393 l 1,3,-1
 503 393 l 1,4,-1
 503 714 l 1,5,-1
 529 714 l 1,6,-1
 529 393 l 1,7,-1
 669 393 l 2,8,9
 740 393 740 393 792.5 376 c 128,-1,10
 845 359 845 359 873.5 317.5 c 128,-1,11
 902 276 902 276 902 203 c 0,12,13
 902 101 902 101 844 50.5 c 128,-1,14
 786 0 786 0 680 0 c 2,15,-1
 503 0 l 1,16,-1
 503 368 l 1,17,-1
 129 368 l 1,18,-1
 129 0 l 1,19,-1
 103 0 l 1,0,-1
529 25 m 1,20,-1
 673 25 l 2,21,22
 775 25 775 25 825 67 c 128,-1,23
 875 109 875 109 875 203 c 0,24,25
 875 269 875 269 849.5 304.5 c 128,-1,26
 824 340 824 340 776.5 354 c 128,-1,27
 729 368 729 368 664 368 c 2,28,-1
 529 368 l 1,29,-1
 529 25 l 1,20,-1
EndSplineSet
EndChar

StartChar: afii10060
Encoding: 1035 1035 421
Width: 672
GlyphClass: 2
Flags: W
AnchorPoint: "Anchor-2" 336 714 basechar 0
AnchorPoint: "Anchor-0" 336 0 basechar 0
LayerCount: 2
Fore
SplineSet
468 714 m 1,0,-1
 468 689 l 1,1,-1
 191 689 l 1,2,-1
 191 424 l 1,3,-1
 427 424 l 2,4,5
 510 424 510 424 546.5 385 c 128,-1,6
 583 346 583 346 583 253 c 2,7,-1
 583 0 l 1,8,-1
 557 0 l 1,9,-1
 557 251 l 2,10,11
 557 330 557 330 525.5 364.5 c 128,-1,12
 494 399 494 399 419 399 c 2,13,-1
 191 399 l 1,14,-1
 191 0 l 1,15,-1
 165 0 l 1,16,-1
 165 689 l 1,17,-1
 2 689 l 1,18,-1
 2 714 l 1,19,-1
 468 714 l 1,0,-1
EndSplineSet
EndChar

StartChar: afii10145
Encoding: 1039 1039 424
Width: 704
GlyphClass: 2
Flags: W
AnchorPoint: "Anchor-2" 352 714 basechar 0
AnchorPoint: "Anchor-0" 352 -175 basechar 0
LayerCount: 2
Fore
SplineSet
600 0 m 1,0,-1
 366 0 l 1,1,-1
 366 -175 l 1,2,-1
 340 -175 l 1,3,-1
 340 0 l 1,4,-1
 103 0 l 1,5,-1
 103 714 l 1,6,-1
 129 714 l 1,7,-1
 129 25 l 1,8,-1
 574 25 l 1,9,-1
 574 714 l 1,10,-1
 600 714 l 1,11,-1
 600 0 l 1,0,-1
EndSplineSet
EndChar

StartChar: afii10018
Encoding: 1041 1041 426
Width: 583
GlyphClass: 2
Flags: W
AnchorPoint: "Anchor-2" 292 714 basechar 0
AnchorPoint: "Anchor-0" 292 0 basechar 0
LayerCount: 2
Fore
SplineSet
103 0 m 1,0,-1
 103 714 l 1,1,-1
 487 714 l 1,2,-1
 487 689 l 1,3,-1
 129 689 l 1,4,-1
 129 393 l 1,5,-1
 279 393 l 2,6,7
 350 393 350 393 402.5 376 c 128,-1,8
 455 359 455 359 483.5 317.5 c 128,-1,9
 512 276 512 276 512 203 c 0,10,11
 512 101 512 101 454 50.5 c 128,-1,12
 396 0 396 0 290 0 c 2,13,-1
 103 0 l 1,0,-1
129 25 m 1,14,-1
 283 25 l 2,15,16
 385 25 385 25 435 67 c 128,-1,17
 485 109 485 109 485 203 c 0,18,19
 485 269 485 269 459.5 304.5 c 128,-1,20
 434 340 434 340 386.5 354 c 128,-1,21
 339 368 339 368 274 368 c 2,22,-1
 129 368 l 1,23,-1
 129 25 l 1,14,-1
EndSplineSet
EndChar

StartChar: afii10021
Encoding: 1044 1044 429
Width: 630
GlyphClass: 2
Flags: W
AnchorPoint: "Anchor-2" 315 714 basechar 0
AnchorPoint: "Anchor-0" 315 -175 basechar 0
LayerCount: 2
Fore
SplineSet
534 714 m 1,0,-1
 534 25 l 1,1,-1
 596 25 l 1,2,-1
 596 -175 l 1,3,-1
 570 -175 l 1,4,-1
 570 0 l 1,5,-1
 34 0 l 1,6,-1
 34 -175 l 1,7,-1
 8 -175 l 1,8,-1
 8 25 l 1,9,-1
 57 25 l 1,10,11
 95 91 95 91 127.5 175.5 c 128,-1,12
 160 260 160 260 184.5 353.5 c 128,-1,13
 209 447 209 447 224 539.5 c 128,-1,14
 239 632 239 632 242 714 c 1,15,-1
 534 714 l 1,0,-1
508 689 m 1,16,-1
 267 689 l 1,17,18
 263 608 263 608 248 519 c 128,-1,19
 233 430 233 430 208.5 341 c 128,-1,20
 184 252 184 252 153.5 171 c 128,-1,21
 123 90 123 90 87 25 c 1,22,-1
 508 25 l 1,23,-1
 508 689 l 1,16,-1
EndSplineSet
EndChar

StartChar: afii10024
Encoding: 1046 1046 431
Width: 736
GlyphClass: 2
Flags: W
AnchorPoint: "Anchor-2" 368 714 basechar 0
AnchorPoint: "Anchor-0" 368 0 basechar 0
LayerCount: 2
Fore
SplineSet
323 365 m 1,0,-1
 25 714 l 1,1,-1
 59 714 l 1,2,-1
 354 368 l 1,3,-1
 354 714 l 1,4,-1
 380 714 l 1,5,-1
 380 368 l 1,6,-1
 676 714 l 1,7,-1
 710 714 l 1,8,-1
 410 365 l 1,9,-1
 725 0 l 1,10,-1
 691 0 l 1,11,-1
 380 362 l 1,12,-1
 380 0 l 1,13,-1
 354 0 l 1,14,-1
 354 362 l 1,15,-1
 44 0 l 1,16,-1
 10 0 l 1,17,-1
 323 365 l 1,0,-1
EndSplineSet
EndChar

StartChar: afii10025
Encoding: 1047 1047 432
Width: 542
GlyphClass: 2
Flags: W
AnchorPoint: "Anchor-2" 271 714 basechar 0
AnchorPoint: "Anchor-0" 271 0 basechar 0
LayerCount: 2
Fore
SplineSet
472 544 m 0,0,1
 472 468 472 468 435 428 c 128,-1,2
 398 388 398 388 342 373 c 1,3,-1
 342 371 l 1,4,5
 410 354 410 354 447.5 313 c 128,-1,6
 485 272 485 272 485 195 c 0,7,8
 485 100 485 100 422.5 45 c 128,-1,9
 360 -10 360 -10 245 -10 c 0,10,11
 184 -10 184 -10 131 2 c 128,-1,12
 78 14 78 14 41 34 c 1,13,-1
 41 64 l 1,14,15
 80 42 80 42 135 28.5 c 128,-1,16
 190 15 190 15 245 15 c 0,17,18
 347 15 347 15 402.5 62.5 c 128,-1,19
 458 110 458 110 458 195 c 256,20,21
 458 280 458 280 403 319.5 c 128,-1,22
 348 359 348 359 235 359 c 2,23,-1
 127 359 l 1,24,-1
 127 384 l 1,25,-1
 244 384 l 2,26,27
 346 384 346 384 395.5 425.5 c 128,-1,28
 445 467 445 467 445 544 c 0,29,30
 445 616 445 616 397 657.5 c 128,-1,31
 349 699 349 699 267 699 c 0,32,33
 202 699 202 699 156 679 c 128,-1,34
 110 659 110 659 66 629 c 1,35,-1
 51 649 l 1,36,37
 94 681 94 681 145 702.5 c 128,-1,38
 196 724 196 724 267 724 c 0,39,40
 362 724 362 724 417 675 c 128,-1,41
 472 626 472 626 472 544 c 0,0,1
EndSplineSet
EndChar

StartChar: afii10026
Encoding: 1048 1048 433
Width: 693
GlyphClass: 2
Flags: W
AnchorPoint: "Anchor-2" 347 714 basechar 0
AnchorPoint: "Anchor-0" 347 0 basechar 0
LayerCount: 2
Fore
SplineSet
103 714 m 1,0,-1
 129 714 l 1,1,-1
 129 135 l 2,2,3
 129 110 129 110 129 94 c 128,-1,4
 129 78 129 78 128 51 c 1,5,-1
 130 51 l 1,6,-1
 567 714 l 1,7,-1
 589 714 l 1,8,-1
 589 0 l 1,9,-1
 563 0 l 1,10,-1
 563 568 l 2,11,12
 563 599 563 599 563 618 c 128,-1,13
 563 637 563 637 564 663 c 1,14,-1
 562 663 l 1,15,-1
 126 0 l 1,16,-1
 103 0 l 1,17,-1
 103 714 l 1,0,-1
EndSplineSet
EndChar

StartChar: afii10028
Encoding: 1050 1050 435
Width: 544
GlyphClass: 2
Flags: W
AnchorPoint: "Anchor-2" 272 714 basechar 0
AnchorPoint: "Anchor-0" 272 0 basechar 0
LayerCount: 2
Fore
SplineSet
538 0 m 1,0,-1
 500 0 l 1,1,-1
 129 365 l 1,2,-1
 129 0 l 1,3,-1
 103 0 l 1,4,-1
 103 714 l 1,5,-1
 129 714 l 1,6,-1
 129 368 l 1,7,-1
 489 714 l 1,8,-1
 529 714 l 1,9,-1
 164 367 l 1,10,-1
 538 0 l 1,0,-1
EndSplineSet
EndChar

StartChar: afii10029
Encoding: 1051 1051 436
Width: 665
GlyphClass: 2
Flags: W
AnchorPoint: "Anchor-2" 333 714 basechar 0
AnchorPoint: "Anchor-0" 333 0 basechar 0
LayerCount: 2
Fore
SplineSet
562 0 m 1,0,-1
 536 0 l 1,1,-1
 536 689 l 1,2,-1
 258 689 l 1,3,4
 252 626 252 626 243.5 549 c 128,-1,5
 235 472 235 472 223.5 391 c 128,-1,6
 212 310 212 310 197 234 c 0,7,8
 184 164 184 164 167.5 109 c 128,-1,9
 151 54 151 54 122.5 21.5 c 128,-1,10
 94 -11 94 -11 47 -11 c 0,11,12
 29 -11 29 -11 17.5 -8.5 c 128,-1,13
 6 -6 6 -6 -4 -2 c 1,14,-1
 -4 24 l 1,15,16
 7 20 7 20 18.5 17 c 128,-1,17
 30 14 30 14 47 14 c 0,18,19
 84 14 84 14 106.5 42 c 128,-1,20
 129 70 129 70 144 120.5 c 128,-1,21
 159 171 159 171 171 239 c 0,22,23
 188 334 188 334 200.5 423 c 128,-1,24
 213 512 213 512 221.5 587 c 128,-1,25
 230 662 230 662 235 714 c 1,26,-1
 562 714 l 1,27,-1
 562 0 l 1,0,-1
EndSplineSet
EndChar

StartChar: afii10037
Encoding: 1059 1059 444
Width: 566
GlyphClass: 2
Flags: W
AnchorPoint: "Anchor-2" 283 714 basechar 0
AnchorPoint: "Anchor-0" 283 0 basechar 0
LayerCount: 2
Fore
SplineSet
564 714 m 1,0,-1
 299 139 l 2,1,2
 280 98 280 98 257 64 c 128,-1,3
 234 30 234 30 201 10 c 128,-1,4
 168 -10 168 -10 119 -10 c 0,5,6
 90 -10 90 -10 71 -5.5 c 128,-1,7
 52 -1 52 -1 38 5 c 1,8,-1
 38 32 l 1,9,10
 74 15 74 15 118 15 c 0,11,12
 163 15 163 15 193 35 c 128,-1,13
 223 55 223 55 244.5 92 c 128,-1,14
 266 129 266 129 288 179 c 1,15,-1
 7 714 l 1,16,-1
 36 714 l 1,17,-1
 270 268 l 2,18,19
 280 248 280 248 287 234 c 128,-1,20
 294 220 294 220 302 201 c 1,21,22
 309 218 309 218 316 234 c 128,-1,23
 323 250 323 250 330 265 c 2,24,-1
 535 714 l 1,25,-1
 564 714 l 1,0,-1
EndSplineSet
EndChar

StartChar: afii10040
Encoding: 1062 1062 447
Width: 706
GlyphClass: 2
Flags: W
AnchorPoint: "Anchor-2" 353 714 basechar 0
AnchorPoint: "Anchor-0" 353 -175 basechar 0
LayerCount: 2
Fore
SplineSet
670 25 m 1,0,-1
 670 -175 l 1,1,-1
 645 -175 l 1,2,-1
 645 0 l 1,3,-1
 103 0 l 1,4,-1
 103 714 l 1,5,-1
 129 714 l 1,6,-1
 129 25 l 1,7,-1
 575 25 l 1,8,-1
 575 714 l 1,9,-1
 601 714 l 1,10,-1
 601 25 l 1,11,-1
 670 25 l 1,0,-1
EndSplineSet
EndChar

StartChar: afii10041
Encoding: 1063 1063 448
Width: 653
GlyphClass: 2
Flags: W
AnchorPoint: "Anchor-2" 327 714 basechar 0
AnchorPoint: "Anchor-0" 327 0 basechar 0
LayerCount: 2
Fore
SplineSet
549 0 m 1,0,-1
 523 0 l 1,1,-1
 523 320 l 1,2,3
 474 297 474 297 420.5 282 c 128,-1,4
 367 267 367 267 296 267 c 0,5,6
 192 267 192 267 143 312.5 c 128,-1,7
 94 358 94 358 94 443 c 2,8,-1
 94 714 l 1,9,-1
 120 714 l 1,10,-1
 120 448 l 2,11,12
 120 374 120 374 160.5 333 c 128,-1,13
 201 292 201 292 297 292 c 0,14,15
 364 292 364 292 418.5 306 c 128,-1,16
 473 320 473 320 523 344 c 1,17,-1
 523 714 l 1,18,-1
 549 714 l 1,19,-1
 549 0 l 1,0,-1
EndSplineSet
EndChar

StartChar: afii10042
Encoding: 1064 1064 449
Width: 987
GlyphClass: 2
Flags: W
AnchorPoint: "Anchor-2" 494 714 basechar 0
AnchorPoint: "Anchor-0" 494 0 basechar 0
LayerCount: 2
Fore
SplineSet
885 0 m 1,0,-1
 103 0 l 1,1,-1
 103 714 l 1,2,-1
 129 714 l 1,3,-1
 129 25 l 1,4,-1
 481 25 l 1,5,-1
 481 714 l 1,6,-1
 507 714 l 1,7,-1
 507 25 l 1,8,-1
 859 25 l 1,9,-1
 859 714 l 1,10,-1
 885 714 l 1,11,-1
 885 0 l 1,0,-1
EndSplineSet
EndChar

StartChar: afii10043
Encoding: 1065 1065 450
Width: 999
GlyphClass: 2
Flags: W
AnchorPoint: "Anchor-2" 500 714 basechar 0
AnchorPoint: "Anchor-0" 500 0 basechar 0
LayerCount: 2
Fore
SplineSet
963 25 m 1,0,-1
 963 -175 l 1,1,-1
 937 -175 l 1,2,-1
 937 0 l 1,3,-1
 103 0 l 1,4,-1
 103 714 l 1,5,-1
 129 714 l 1,6,-1
 129 25 l 1,7,-1
 481 25 l 1,8,-1
 481 714 l 1,9,-1
 507 714 l 1,10,-1
 507 25 l 1,11,-1
 859 25 l 1,12,-1
 859 714 l 1,13,-1
 885 714 l 1,14,-1
 885 25 l 1,15,-1
 963 25 l 1,0,-1
EndSplineSet
EndChar

StartChar: afii10044
Encoding: 1066 1066 451
Width: 637
GlyphClass: 2
Flags: W
AnchorPoint: "Anchor-2" 319 714 basechar 0
AnchorPoint: "Anchor-0" 319 0 basechar 0
LayerCount: 2
Fore
SplineSet
173 0 m 1,0,-1
 173 689 l 1,1,-1
 3 689 l 1,2,-1
 3 714 l 1,3,-1
 199 714 l 1,4,-1
 199 393 l 1,5,-1
 349 393 l 2,6,7
 420 393 420 393 472.5 376 c 128,-1,8
 525 359 525 359 553.5 317.5 c 128,-1,9
 582 276 582 276 582 203 c 0,10,11
 582 101 582 101 524 50.5 c 128,-1,12
 466 0 466 0 360 0 c 2,13,-1
 173 0 l 1,0,-1
199 25 m 1,14,-1
 353 25 l 2,15,16
 455 25 455 25 505 67 c 128,-1,17
 555 109 555 109 555 203 c 0,18,19
 555 269 555 269 529.5 304.5 c 128,-1,20
 504 340 504 340 456.5 354 c 128,-1,21
 409 368 409 368 344 368 c 2,22,-1
 199 368 l 1,23,-1
 199 25 l 1,14,-1
EndSplineSet
EndChar

StartChar: afii10045
Encoding: 1067 1067 452
Width: 768
GlyphClass: 2
Flags: W
AnchorPoint: "Anchor-2" 384 714 basechar 0
AnchorPoint: "Anchor-0" 384 0 basechar 0
LayerCount: 2
Fore
SplineSet
103 0 m 1,0,-1
 103 714 l 1,1,-1
 129 714 l 1,2,-1
 129 393 l 1,3,-1
 279 393 l 2,4,5
 350 393 350 393 402.5 376 c 128,-1,6
 455 359 455 359 483.5 317.5 c 128,-1,7
 512 276 512 276 512 203 c 0,8,9
 512 101 512 101 454 50.5 c 128,-1,10
 396 0 396 0 290 0 c 2,11,-1
 103 0 l 1,0,-1
607 0 m 1,12,-1
 607 714 l 1,13,-1
 633 714 l 1,14,-1
 633 0 l 1,15,-1
 607 0 l 1,12,-1
129 25 m 1,16,-1
 283 25 l 2,17,18
 385 25 385 25 435 67 c 128,-1,19
 485 109 485 109 485 203 c 0,20,21
 485 269 485 269 459.5 304.5 c 128,-1,22
 434 340 434 340 386.5 354 c 128,-1,23
 339 368 339 368 274 368 c 2,24,-1
 129 368 l 1,25,-1
 129 25 l 1,16,-1
EndSplineSet
EndChar

StartChar: afii10046
Encoding: 1068 1068 453
Width: 567
GlyphClass: 2
Flags: W
AnchorPoint: "Anchor-2" 284 714 basechar 0
AnchorPoint: "Anchor-0" 284 0 basechar 0
LayerCount: 2
Fore
SplineSet
103 0 m 1,0,-1
 103 714 l 1,1,-1
 129 714 l 1,2,-1
 129 393 l 1,3,-1
 279 393 l 2,4,5
 350 393 350 393 402.5 376 c 128,-1,6
 455 359 455 359 483.5 317.5 c 128,-1,7
 512 276 512 276 512 203 c 0,8,9
 512 101 512 101 454 50.5 c 128,-1,10
 396 0 396 0 290 0 c 2,11,-1
 103 0 l 1,0,-1
129 25 m 1,12,-1
 283 25 l 2,13,14
 385 25 385 25 435 67 c 128,-1,15
 485 109 485 109 485 203 c 0,16,17
 485 269 485 269 459.5 304.5 c 128,-1,18
 434 340 434 340 386.5 354 c 128,-1,19
 339 368 339 368 274 368 c 2,20,-1
 129 368 l 1,21,-1
 129 25 l 1,12,-1
EndSplineSet
EndChar

StartChar: afii10047
Encoding: 1069 1069 454
Width: 609
GlyphClass: 2
Flags: W
AnchorPoint: "Anchor-2" 305 714 basechar 0
AnchorPoint: "Anchor-0" 305 0 basechar 0
LayerCount: 2
Fore
SplineSet
228 699 m 0,0,1
 184 699 184 699 137 690.5 c 128,-1,2
 90 682 90 682 47 662 c 1,3,-1
 37 687 l 1,4,5
 78 704 78 704 127.5 714 c 128,-1,6
 177 724 177 724 228 724 c 0,7,8
 388 724 388 724 467.5 630 c 128,-1,9
 547 536 547 536 547 363 c 0,10,11
 547 252 547 252 507.5 168 c 128,-1,12
 468 84 468 84 393 37 c 128,-1,13
 318 -10 318 -10 212 -10 c 0,14,15
 153 -10 153 -10 107 -2 c 128,-1,16
 61 6 61 6 28 19 c 1,17,-1
 28 45 l 1,18,19
 64 32 64 32 109 23.5 c 128,-1,20
 154 15 154 15 212 15 c 0,21,22
 310 15 310 15 378 58 c 128,-1,23
 446 101 446 101 482.5 178 c 128,-1,24
 519 255 519 255 520 357 c 1,25,-1
 119 357 l 1,26,-1
 119 382 l 1,27,-1
 520 382 l 1,28,29
 517 530 517 530 445.5 614.5 c 128,-1,30
 374 699 374 699 228 699 c 0,0,1
EndSplineSet
EndChar

StartChar: afii10048
Encoding: 1070 1070 455
Width: 1014
GlyphClass: 2
Flags: W
AnchorPoint: "Anchor-2" 507 714 basechar 0
AnchorPoint: "Anchor-0" 507 0 basechar 0
LayerCount: 2
Fore
SplineSet
951 358 m 0,0,1
 951 252 951 252 919 169 c 128,-1,2
 887 86 887 86 820.5 38 c 128,-1,3
 754 -10 754 -10 649 -10 c 0,4,5
 548 -10 548 -10 482 38 c 128,-1,6
 416 86 416 86 384 170 c 128,-1,7
 352 254 352 254 351 362 c 1,8,-1
 129 362 l 1,9,-1
 129 0 l 1,10,-1
 103 0 l 1,11,-1
 103 714 l 1,12,-1
 129 714 l 1,13,-1
 129 387 l 1,14,-1
 351 387 l 1,15,16
 354 487 354 487 389 563 c 128,-1,17
 424 639 424 639 490 682 c 128,-1,18
 556 725 556 725 652 725 c 0,19,20
 752 725 752 725 818.5 678.5 c 128,-1,21
 885 632 885 632 918 549 c 128,-1,22
 951 466 951 466 951 358 c 0,0,1
378 372 m 0,23,24
 378 269 378 269 406.5 188.5 c 128,-1,25
 435 108 435 108 495.5 61.5 c 128,-1,26
 556 15 556 15 651 15 c 256,27,28
 746 15 746 15 806.5 59.5 c 128,-1,29
 867 104 867 104 895.5 181.5 c 128,-1,30
 924 259 924 259 924 358 c 0,31,32
 924 455 924 455 895.5 532.5 c 128,-1,33
 867 610 867 610 806.5 655 c 128,-1,34
 746 700 746 700 651 700 c 0,35,36
 558 700 558 700 497.5 658 c 128,-1,37
 437 616 437 616 407.5 542 c 128,-1,38
 378 468 378 468 378 372 c 0,23,24
EndSplineSet
EndChar

StartChar: afii10049
Encoding: 1071 1071 456
Width: 577
GlyphClass: 2
Flags: W
AnchorPoint: "Anchor-2" 289 714 basechar 0
AnchorPoint: "Anchor-0" 289 0 basechar 0
LayerCount: 2
Fore
SplineSet
250 320 m 1,0,-1
 59 0 l 1,1,-1
 26 0 l 1,2,-1
 221 325 l 1,3,4
 150 338 150 338 105.5 380.5 c 128,-1,5
 61 423 61 423 61 510 c 0,6,7
 61 616 61 616 127.5 665 c 128,-1,8
 194 714 194 714 316 714 c 2,9,-1
 474 714 l 1,10,-1
 474 0 l 1,11,-1
 448 0 l 1,12,-1
 448 320 l 1,13,-1
 250 320 l 1,0,-1
448 689 m 1,14,-1
 321 689 l 2,15,16
 206 689 206 689 147 647.5 c 128,-1,17
 88 606 88 606 88 511 c 0,18,19
 88 425 88 425 140 385 c 128,-1,20
 192 345 192 345 285 345 c 2,21,-1
 448 345 l 1,22,-1
 448 689 l 1,14,-1
EndSplineSet
EndChar

StartChar: afii10066
Encoding: 1073 1073 458
Width: 559
GlyphClass: 2
Flags: W
AnchorPoint: "Anchor-2" 280 762 basechar 0
AnchorPoint: "Anchor-0" 280 0 basechar 0
LayerCount: 2
Fore
SplineSet
60 317 m 0,0,1
 60 451 60 451 85 533.5 c 128,-1,2
 110 616 110 616 153 659 c 0,3,4
 197 705 197 705 277.5 727 c 128,-1,5
 358 749 358 749 481 762 c 1,6,-1
 484 738 l 1,7,8
 354 724 354 724 282 702.5 c 128,-1,9
 210 681 210 681 172 643 c 256,10,11
 134 605 134 605 112 532.5 c 128,-1,12
 90 460 90 460 86 362 c 1,13,-1
 88 362 l 1,14,15
 119 424 119 424 174 457.5 c 128,-1,16
 229 491 229 491 299 491 c 0,17,18
 396 491 396 491 448.5 431 c 128,-1,19
 501 371 501 371 501 250 c 0,20,21
 501 176 501 176 479 117.5 c 128,-1,22
 457 59 457 59 409.5 24.5 c 128,-1,23
 362 -10 362 -10 284 -10 c 0,24,25
 219 -10 219 -10 176 17.5 c 128,-1,26
 133 45 133 45 107.5 91.5 c 128,-1,27
 82 138 82 138 71 196.5 c 128,-1,28
 60 255 60 255 60 317 c 0,0,1
286 15 m 0,29,30
 354 15 354 15 395 46 c 128,-1,31
 436 77 436 77 455 130.5 c 128,-1,32
 474 184 474 184 474 250 c 0,33,34
 474 360 474 360 427.5 413 c 128,-1,35
 381 466 381 466 298 466 c 0,36,37
 229 466 229 466 178.5 431.5 c 128,-1,38
 128 397 128 397 87 323 c 1,39,40
 87 265 87 265 96 210 c 128,-1,41
 105 155 105 155 127 111 c 128,-1,42
 149 67 149 67 188 41 c 128,-1,43
 227 15 227 15 286 15 c 0,29,30
EndSplineSet
Substitution2: "'locl' Localized Forms in Cyrillic lookup 17 subtable" afii10066.loclSRB
EndChar

StartChar: afii10067
Encoding: 1074 1074 459
Width: 560
GlyphClass: 2
Flags: W
AnchorPoint: "Anchor-2" 280 528 basechar 0
AnchorPoint: "Anchor-0" 280 0 basechar 0
LayerCount: 2
Fore
SplineSet
468 402 m 0,0,1
 468 352 468 352 444 322 c 128,-1,2
 420 292 420 292 380 282 c 1,3,-1
 380 280 l 1,4,5
 433 271 433 271 462 238 c 128,-1,6
 491 205 491 205 491 147 c 0,7,8
 491 77 491 77 447.5 38.5 c 128,-1,9
 404 0 404 0 315 0 c 2,10,-1
 91 0 l 1,11,-1
 91 528 l 1,12,-1
 306 528 l 2,13,14
 395 528 395 528 431.5 492.5 c 128,-1,15
 468 457 468 457 468 402 c 0,0,1
441 402 m 0,16,17
 441 447 441 447 409.5 475 c 128,-1,18
 378 503 378 503 302 503 c 2,19,-1
 117 503 l 1,20,-1
 117 292 l 1,21,-1
 303 292 l 2,22,23
 376 292 376 292 408.5 320 c 128,-1,24
 441 348 441 348 441 402 c 0,16,17
464 147 m 0,25,26
 464 211 464 211 423 239 c 128,-1,27
 382 267 382 267 303 267 c 2,28,-1
 117 267 l 1,29,-1
 117 25 l 1,30,-1
 307 25 l 2,31,32
 387 25 387 25 425.5 55.5 c 128,-1,33
 464 86 464 86 464 147 c 0,25,26
EndSplineSet
EndChar

StartChar: afii10068
Encoding: 1075 1075 460
Width: 414
GlyphClass: 2
Flags: W
AnchorPoint: "Anchor-2" 207 528 basechar 0
AnchorPoint: "Anchor-0" 207 0 basechar 0
LayerCount: 2
Fore
SplineSet
394 528 m 1,0,-1
 394 503 l 1,1,-1
 117 503 l 1,2,-1
 117 0 l 1,3,-1
 91 0 l 1,4,-1
 91 528 l 1,5,-1
 394 528 l 1,0,-1
EndSplineSet
EndChar

StartChar: afii10069
Encoding: 1076 1076 461
Width: 525
GlyphClass: 2
Flags: W
AnchorPoint: "Anchor-2" 263 528 basechar 0
AnchorPoint: "Anchor-0" 263 -176 basechar 0
LayerCount: 2
Fore
SplineSet
432 528 m 1,0,-1
 432 25 l 1,1,-1
 499 25 l 1,2,-1
 499 -176 l 1,3,-1
 473 -176 l 1,4,-1
 473 0 l 1,5,-1
 47 0 l 1,6,-1
 47 -176 l 1,7,-1
 21 -176 l 1,8,-1
 21 25 l 1,9,-1
 52 25 l 1,10,11
 117 116 117 116 152.5 243 c 128,-1,12
 188 370 188 370 190 528 c 1,13,-1
 432 528 l 1,0,-1
406 503 m 1,14,-1
 215 503 l 1,15,16
 210 353 210 353 178 237.5 c 128,-1,17
 146 122 146 122 84 25 c 1,18,-1
 406 25 l 1,19,-1
 406 503 l 1,14,-1
EndSplineSet
EndChar

StartChar: afii10072
Encoding: 1078 1078 463
Width: 614
GlyphClass: 2
Flags: W
AnchorPoint: "Anchor-2" 307 528 basechar 0
AnchorPoint: "Anchor-0" 307 0 basechar 0
LayerCount: 2
Fore
SplineSet
587 528 m 1,0,-1
 350 269 l 1,1,-1
 604 0 l 1,2,-1
 569 0 l 1,3,-1
 319 267 l 1,4,-1
 319 0 l 1,5,-1
 293 0 l 1,6,-1
 293 267 l 1,7,-1
 43 0 l 1,8,-1
 8 0 l 1,9,-1
 262 269 l 1,10,-1
 24 528 l 1,11,-1
 58 528 l 1,12,-1
 293 271 l 1,13,-1
 293 528 l 1,14,-1
 319 528 l 1,15,-1
 319 271 l 1,16,-1
 553 528 l 1,17,-1
 587 528 l 1,0,-1
EndSplineSet
EndChar

StartChar: afii10073
Encoding: 1079 1079 464
Width: 429
GlyphClass: 2
Flags: W
AnchorPoint: "Anchor-2" 215 528 basechar 0
AnchorPoint: "Anchor-0" 215 0 basechar 0
LayerCount: 2
Fore
SplineSet
200 538 m 0,0,1
 276 538 276 538 316 503 c 128,-1,2
 356 468 356 468 356 404 c 0,3,4
 356 360 356 360 333 329 c 128,-1,5
 310 298 310 298 267 285 c 1,6,-1
 267 283 l 1,7,8
 327 271 327 271 351.5 234 c 128,-1,9
 376 197 376 197 376 150 c 0,10,11
 376 98 376 98 351.5 62.5 c 128,-1,12
 327 27 327 27 284.5 8.5 c 128,-1,13
 242 -10 242 -10 188 -10 c 0,14,15
 137 -10 137 -10 96.5 0.5 c 128,-1,16
 56 11 56 11 31 25 c 1,17,-1
 31 55 l 1,18,19
 68 34 68 34 106.5 24.5 c 128,-1,20
 145 15 145 15 188 15 c 0,21,22
 259 15 259 15 304 50.5 c 128,-1,23
 349 86 349 86 349 151 c 256,24,25
 349 216 349 216 307 242.5 c 128,-1,26
 265 269 265 269 188 269 c 2,27,-1
 117 269 l 1,28,-1
 117 294 l 1,29,-1
 188 294 l 2,30,31
 252 294 252 294 290.5 321 c 128,-1,32
 329 348 329 348 329 404 c 0,33,34
 329 456 329 456 296 484.5 c 128,-1,35
 263 513 263 513 200 513 c 0,36,37
 156 513 156 513 122 502.5 c 128,-1,38
 88 492 88 492 54 475 c 1,39,-1
 44 499 l 1,40,41
 78 516 78 516 114.5 527 c 128,-1,42
 151 538 151 538 200 538 c 0,0,1
EndSplineSet
EndChar

StartChar: afii10074
Encoding: 1080 1080 465
Width: 574
GlyphClass: 2
Flags: W
AnchorPoint: "Anchor-2" 287 528 basechar 0
AnchorPoint: "Anchor-0" 287 0 basechar 0
LayerCount: 2
Fore
SplineSet
117 528 m 1,0,-1
 117 114 l 2,1,2
 117 89 117 89 117 74.5 c 128,-1,3
 117 60 117 60 116 37 c 1,4,-1
 451 528 l 1,5,-1
 483 528 l 1,6,-1
 483 0 l 1,7,-1
 457 0 l 1,8,-1
 457 426 l 2,9,10
 457 447 457 447 457 459.5 c 128,-1,11
 457 472 457 472 458 494 c 1,12,-1
 120 0 l 1,13,-1
 91 0 l 1,14,-1
 91 528 l 1,15,-1
 117 528 l 1,0,-1
EndSplineSet
EndChar

StartChar: afii10076
Encoding: 1082 1082 467
Width: 417
GlyphClass: 2
Flags: W
AnchorPoint: "Anchor-2" 209 528 basechar 0
AnchorPoint: "Anchor-0" 209 0 basechar 0
LayerCount: 2
Fore
SplineSet
363 528 m 1,0,-1
 397 528 l 1,1,-1
 150 270 l 1,2,-1
 408 0 l 1,3,-1
 372 0 l 1,4,-1
 117 267 l 1,5,-1
 117 0 l 1,6,-1
 91 0 l 1,7,-1
 91 528 l 1,8,-1
 117 528 l 1,9,-1
 117 271 l 1,10,-1
 363 528 l 1,0,-1
EndSplineSet
EndChar

StartChar: afii10077
Encoding: 1083 1083 468
Width: 525
GlyphClass: 2
Flags: W
AnchorPoint: "Anchor-2" 263 528 basechar 0
AnchorPoint: "Anchor-0" 263 0 basechar 0
LayerCount: 2
Fore
SplineSet
434 0 m 1,0,-1
 408 0 l 1,1,-1
 408 503 l 1,2,-1
 206 503 l 1,3,4
 194 336 194 336 177.5 223 c 128,-1,5
 161 110 161 110 128.5 53 c 128,-1,6
 96 -4 96 -4 37 -4 c 0,7,8
 24 -4 24 -4 16 -3 c 128,-1,9
 8 -2 8 -2 4 -1 c 1,10,-1
 4 24 l 1,11,12
 14 21 14 21 37 21 c 0,13,14
 82 21 82 21 110 75.5 c 128,-1,15
 138 130 138 130 154 242 c 128,-1,16
 170 354 170 354 181 528 c 1,17,-1
 434 528 l 1,18,-1
 434 0 l 1,0,-1
EndSplineSet
EndChar

